<svg xmlns="http://www.w3.org/2000/svg" viewBox="0 0 140.23 225.95"><defs><style>.cls-1,.cls-6,.cls-7{fill:#231f20;}.cls-1,.cls-2,.cls-3,.cls-4,.cls-6,.cls-7{stroke:#231f20;}.cls-1,.cls-2,.cls-3,.cls-4,.cls-5,.cls-6,.cls-7{stroke-miterlimit:10;}.cls-1{stroke-width:0.43px;}.cls-2,.cls-3,.cls-4,.cls-8{fill:#fff;}.cls-2{stroke-width:0.17px;}.cls-3{stroke-width:0.2px;}.cls-4{stroke-width:1.64px;}.cls-5{fill:none;stroke:#fff;stroke-width:1.09px;}.cls-6{stroke-width:0.48px;}.cls-7{stroke-width:0.48px;}.cls-8{font-size:19.68px;font-family:Apple-Chancery, Apple Chancery;}.cls-11,.cls-12,.cls-9{font-size:11.48px;}.cls-9{letter-spacing:0em;}.cls-10{font-size:24px;letter-spacing:0em;}.cls-12{letter-spacing:-0.01em;}</style></defs><title>Asset 3</title><g id="Layer_2" data-name="Layer 2"><g id="Layer_1-2" data-name="Layer 1"><rect class="cls-1" x="0.21" y="0.21" width="139.81" height="225.53"/><ellipse class="cls-2" cx="57.59" cy="33.94" rx="8.24" ry="8.29" transform="translate(15.63 85.98) rotate(-81.63)"/><ellipse class="cls-2" cx="79.34" cy="83.29" rx="2.37" ry="2.44" transform="translate(-14.61 149.66) rotate(-81.63)"/><ellipse class="cls-2" cx="68.2" cy="93.64" rx="2.37" ry="2.44" transform="translate(-34.37 147.49) rotate(-81.63)"/><ellipse class="cls-2" cx="74.04" cy="96.02" rx="2.37" ry="2.44" transform="translate(-31.73 155.3) rotate(-81.63)"/><ellipse class="cls-2" cx="82.49" cy="74.57" rx="4.12" ry="4.14" transform="translate(-3.29 145.33) rotate(-81.63)"/><ellipse class="cls-2" cx="59.5" cy="71.91" rx="4.88" ry="4.94" transform="translate(-20.3 120.31) rotate(-81.63)"/><ellipse class="cls-2" cx="72.51" cy="64.33" rx="5.77" ry="5.8" transform="matrix(0.15, -0.99, 0.99, 0.15, -1.68, 126.71)"/><ellipse class="cls-2" cx="88.79" cy="58.32" rx="5.77" ry="5.8" transform="matrix(0.15, -0.99, 0.99, 0.15, 18.17, 137.67)"/><ellipse class="cls-2" cx="92.39" cy="41.45" rx="5.77" ry="5.8" transform="translate(37.94 126.82) rotate(-81.63)"/><ellipse class="cls-2" cx="74.04" cy="46.66" rx="6.6" ry="6.52" transform="translate(2.76 97.44) rotate(-67.68)"/><ellipse class="cls-2" cx="54.55" cy="54.61" rx="6.6" ry="6.52" transform="translate(-16.68 84.33) rotate(-67.68)"/><ellipse class="cls-2" cx="71.36" cy="103.57" rx="1.67" ry="1.64" transform="translate(-10.63 8.19) rotate(-6.12)"/><ellipse class="cls-2" cx="69.7" cy="99.04" rx="1.64" ry="1.67" transform="translate(-38.43 153.58) rotate(-81.63)"/><ellipse class="cls-2" cx="73.51" cy="88.45" rx="3.28" ry="3.31" transform="translate(-24.7 148.31) rotate(-81.63)"/><ellipse class="cls-2" cx="63.66" cy="85.39" rx="3.28" ry="3.31" transform="matrix(0.15, -0.99, 0.99, 0.15, -30.08, 135.95)"/><ellipse class="cls-2" cx="71.36" cy="78.69" rx="3.28" ry="3.31" transform="matrix(0.15, -0.99, 0.99, 0.15, -16.87, 137.84)"/><circle class="cls-3" cx="80.94" cy="22.59" r="8.67"/><path class="cls-4" d="M86.46,106.82,65.7,116.35s1.15,41,26.54,29.23l.82-.4C116.51,133.37,86.46,106.82,86.46,106.82Z"/><path class="cls-5" d="M93.75,144.9c7.69,17.24,9.74,20.88,9.74,20.88s2.49,1.88,9.41.09-2,3.86-6.43,6.21"/><path class="cls-5" d="M102.7,166.13s.06,3.12-5.46,7.68,4.5.6,9.23-1.73"/><path class="cls-6" d="M93.48,136.43a.7.7,0,0,0-.77-1.05c-4.2,1.39-13.46,2.64-19.54-1.82a.17.17,0,0,0-.23.25C80,143.35,86.69,145.91,93.48,136.43Z"/><path class="cls-4" d="M57.73,105.21l20.75,9.53S77.33,155.76,52,144l-.83-.4C27.67,131.76,57.73,105.21,57.73,105.21Z"/><path class="cls-5" d="M40.7,164.17s-2.49,1.88-9.42.09,1.95,3.86,6.44,6.21"/><path class="cls-5" d="M52.2,144.14c-9.44,16.35-10.71,20.38-10.71,20.38s-.06,3.12,5.45,7.68-4.5.6-9.22-1.73"/><path class="cls-7" d="M49.47,134.29a.66.66,0,0,1,.72-1c4.38,1.43,13.93,2.79,19.87-1.57a.17.17,0,0,1,.25.24C63.67,141.34,57,143.81,49.47,134.29Z"/><text class="cls-8" transform="translate(20.8 206.1) scale(1.38 1)">M<tspan class="cls-9" x="19.5" y="0">on </tspan><tspan class="cls-10" x="34.09" y="0">s</tspan><tspan class="cls-11" x="42.62" y="0">ouri</tspan><tspan class="cls-12" x="62.15" y="0">r</tspan><tspan class="cls-11" x="66.76" y="0">e</tspan></text></g></g></svg>