<?xml version="1.0" encoding="utf-8"?>
<!-- Generator: Adobe Illustrator 22.1.0, SVG Export Plug-In . SVG Version: 6.00 Build 0)  -->
<svg version="1.1" xmlns="http://www.w3.org/2000/svg" xmlns:xlink="http://www.w3.org/1999/xlink" x="0px" y="0px"
	 viewBox="0 0 369.2 311.7" style="enable-background:new 0 0 369.2 311.7;" xml:space="preserve">
<style type="text/css">
	.st0{fill:none;stroke:#707070;}
	.st1{clip-path:url(#SVGID_2_);fill:none;}
	.st2{clip-path:url(#SVGID_2_);fill:none;stroke:#707070;}
	.st3{fill:#6D6E70;stroke:#6D6E70;stroke-width:0.3757;stroke-miterlimit:10;}
	.st4{font-family:'ComicSansMS';}
	.st5{font-size:9.0155px;}
	.st6{fill:#929497;}
	.st7{fill:#58595B;}
	.st8{fill:#FFFFFF;}
	.st9{fill:#58595B;stroke:#58595B;stroke-width:0.3756;stroke-miterlimit:10;}
	.st10{fill:#6D6E70;}
	.st11{fill:#FFFFFF;stroke:#FFFFFF;stroke-width:0.3756;stroke-miterlimit:10;}
	.st12{fill:#595757;}
</style>
<g id="土層">
</g>
<g id="Layer_1">
	<rect x="-2231.4" y="-436.8" class="st0" width="1919" height="79"/>
	<g>
		<defs>
			<rect id="SVGID_1_" x="-831.4" y="-417.3" width="502" height="40"/>
		</defs>
		<clipPath id="SVGID_2_">
			<use xlink:href="#SVGID_1_"  style="overflow:visible;"/>
		</clipPath>
		<rect x="-830.9" y="-416.8" class="st1" width="149" height="39"/>
		<rect x="-830.9" y="-416.8" class="st2" width="149" height="39"/>
		<rect x="-830.9" y="-416.8" class="st1" width="149" height="39"/>
		<rect x="-830.9" y="-416.8" class="st2" width="149" height="39"/>
		<rect x="-660.9" y="-416.8" class="st1" width="149" height="39"/>
		<rect x="-660.9" y="-416.8" class="st2" width="149" height="39"/>
		<rect x="-660.9" y="-416.8" class="st1" width="149" height="39"/>
		<rect x="-660.9" y="-416.8" class="st2" width="149" height="39"/>
		<rect x="-490.9" y="-416.8" class="st1" width="149" height="39"/>
		<rect x="-490.9" y="-416.8" class="st2" width="149" height="39"/>
		<rect x="-490.9" y="-416.8" class="st1" width="149" height="39"/>
		<rect x="-490.9" y="-416.8" class="st2" width="149" height="39"/>
	</g>
	<g>
		<g>
			<text transform="matrix(1 0 0 1 198.7772 210.1339)" class="st3 st4 st5">OGU</text>
			<g>
				<path class="st6" d="M159.2,195c2.1,1.1,5,2.2,8.3,3.1c0.6,0.2,1.1-0.5,0.8-1c-1.8-3.3-7.1-11-16.2-13
					c-9.9-2.2-17.4,7.4-19.6,10.2c-0.2,0.2,0.1,0.5,0.3,0.4l6-3c0.2-0.1,0.5,0.1,0.4,0.3l-1.1,6.5c-0.1,0.8,0.7,1.4,1.4,1l5.5-3.1
					c0,0,0.1,0,0.2-0.1v4.1c0,0.7,0.8,1.2,1.4,0.9L159.2,195"/>
				<g>
					<path class="st6" d="M158.9,195.5c2.5,1.2,6.7,3.8,9.4,3c0.3-0.1,0.4-0.3,0.4-0.5c0.2-2.7-3.7-6.4-5.5-8.1
						c-3.6-3.4-8.3-6.2-13.3-6.5c-4.5-0.3-8.6,1.7-12,4.4c-1.6,1.2-6.1,4.7-6.1,7c0,0.2,0.2,0.5,0.4,0.5c1.5,0.3,3.7-1.4,5-2.1
						c0.3-0.2,1.2-0.8,1.5-0.7c0.4,0.1-0.5-1-0.2,0.2c0.3,1.2-0.6,3.2-0.7,4.4c-0.5,4.7,3.1,3,5.9,0.8c0.3-0.2,1-0.7,1.4-0.8
						c0.5-0.1-0.7-0.9-0.5-0.1c0.3,1.1-0.4,2.5,0,3.6c0.5,1.4,0.8,1.5,2.3,1.3c1.8-0.2,4.6-2.3,6.3-3.2c2.1-1.1,4.2-2.1,6.3-3.2
						c0.6-0.3,0.1-1.3-0.6-1c-2.9,1.5-5.9,3-8.8,4.4c-0.5,0.2-3.2,2-3.7,1.9c-1.2-0.4-0.6-3.4-0.6-4.4c0-0.4-0.5-0.7-0.8-0.5
						c-1.5,0.8-5.2,3.8-6.2,2.4c-0.9-1.4,1.6-4.9,0.9-6.7c-0.1-0.3-0.3-0.4-0.5-0.4c-2-0.2-4.2,2.3-6.1,2.8
						c-0.7,0.2,0.1,0.3,0.6-0.2c0.6-0.6,1.1-1.3,1.7-1.9c1.9-2,4-3.9,6.4-5.3c7-4,14.7-1.6,20.4,3.6c1.2,1.1,4.5,4,4.8,5.7
						c0.2,1.5,0.5,1.4-1.5,1c-2-0.3-4-1.5-5.8-2.3C158.8,194.2,158.3,195.2,158.9,195.5L158.9,195.5z"/>
				</g>
			</g>
			<g>
				<path class="st6" d="M219.3,201.6c-1.4-1.6-3.9-4.1-7.1-6.7c-10.3-8.6-28.4-21-37.5,3.9c-0.1,0.3-0.4,8.9,1,11.1
					c0.1,0.1,0.2,0.1,0.3,0l5.2-7.9l0.2-0.2c0.2-0.3,0.6-0.3,0.8,0c0.8,1.7,2.4,3.1,2.9,4.1c0.1,0.2,0.5,0.6,0.7,0.4l4.4-4.7
					c0.3-0.4,1-0.4,1.2,0.1l2.4,5.4c0,0,0,0,0,0c0.1,0.1,0.2,0.2,0.2,0.4c0.1,0.2,0.4,0.5-0.1,0c0.3,0.4,0.5,0.8,0.5,1.3l0.3,0.6
					c0.1,0.1,0.2,0.1,0.3,0l3.9-8c0-0.1,0.1-0.1,0.2-0.1c5.1,0.4,10.5,0.6,16,0.6c1.4,0,2.8,0,4.2,0
					C219.3,201.9,219.4,201.7,219.3,201.6z"/>
				<g>
					<path class="st6" d="M219.7,201.2c-7.3-7.8-19.4-19.3-31.2-17.6c-11,1.6-17.8,16.7-13.3,26.5c0.1,0.2,0.3,0.3,0.5,0.3
						c1.6,0,3.4-4.3,4.1-5.4c0.3-0.4,1.4-2.7,1.8-2.8c1-0.1,2.1,4.2,3.4,4.4c2.1,0.4,2.9-2.8,4.5-3.7c1.9-1.2,1.6-0.2,2.6,2.1
						c0.4,1,0.8,2,1.4,2.9c0.3-0.2,0.6-0.5,0.9-0.7c-0.1-0.1-0.2-0.2-0.2-0.3c-0.4-0.5-1.1,0.1-0.9,0.7c0.3,0.6,0.5,1.2,0.8,1.9
						c0.1,0.2,0.3,0.3,0.5,0.3c0.1,0,0.2,0,0.3,0c0.2,0,0.4-0.1,0.5-0.3c0.9-1.9,2.1-6.5,3.7-7.7c1.1-0.8,8,0.4,9.5,0.4
						c3.5,0.1,7.1,0.1,10.6,0.1c0.2,0,0.4-0.1,0.5-0.3c0-0.1,0.1-0.2,0.1-0.3c0.3-0.7-0.7-1.2-1-0.6c-0.4,0.9-11.6-0.1-12.9-0.2
						c-1.9-0.1-6-1.2-7.6-0.1c-1,0.7-1.7,3.4-2.2,4.5c-0.4,0.8-0.8,2.2-1.4,2.9c-0.4,0.4,0.5,1-0.5-1.2c-0.3,0.2-0.6,0.5-0.9,0.7
						c0.1,0.1,0.2,0.2,0.2,0.3c0.4,0.5,1.2-0.1,0.9-0.7c-1.2-2-1.6-5.3-3.6-6.7c-0.2-0.1-0.4-0.1-0.6,0c-1,0.5-1.5,1.2-2.3,2
						c-0.5,0.5-1.2,1.7-1.9,2c-1.6,0.8,0,0.7-1.3-0.1c-1.6-1-1.8-4.5-4-3.4c-1.5,0.8-3.2,4.8-4.1,6.2c-1.3,2-1,2.2-1.3,0
						c-0.2-2.4-0.6-4.9-0.4-7.3c1-10.6,11.1-18,21.2-14.6c8.7,2.9,16.4,9.8,22.5,16.3C219.4,202.6,220.2,201.8,219.7,201.2z"/>
				</g>
			</g>
			<g>
				<path class="st7" d="M253.1,163.6c-2.2-0.5-4.5-0.9-6.8-1.2c-0.4-0.1-0.7,0.5-0.4,0.8c7,7.2,14.3,16,22,26.7l1.8,2.7
					c0.1,0.2,0.4,0.3,0.6,0.2c7.1-3.3,11.3-7.4,11.3-11.9C281.5,173.5,270.1,167.1,253.1,163.6z"/>
				<g>
					<path class="st7" d="M253.2,163.1c-2.1-0.4-5.7-2-7.8-0.9c-0.2,0.1-0.3,0.4-0.3,0.6c0.2,1.5,1.9,2.5,2.9,3.6c1.8,2,3.6,4,5.4,6
						c4.5,5.2,8.8,10.6,12.8,16.2c0.9,1.3,2.1,4.5,3.9,4.7c2.5,0.3,7.6-4.3,9.2-6.1C291.6,173.1,261.5,164.8,253.2,163.1
						c-0.7-0.2-1,0.9-0.3,1.1c7.7,1.7,15.9,3.8,22.5,8.4c8,5.8,6,13.6-2.4,18.1c-0.9,0.6-2,1.1-3.1,1.3c-0.3-0.5-0.6-1-1-1.5
						c-0.2-0.2-2.2-3.1-1.8-2.5c-2.6-3.5-5.3-7-8-10.5c-2.5-3.1-5-6.1-7.6-9c-0.4-0.5-4.4-4.2-4.2-4.6c0.5-1.5,4.5,0,5.7,0.3
						C253.6,164.3,253.9,163.2,253.2,163.1z"/>
				</g>
			</g>
			<g>
				<path class="st7" d="M120.4,174.3"/>
				<g>
					<path class="st7" d="M120.4,174.9c0.7,0,0.7-1.1,0-1.1C119.6,173.7,119.6,174.9,120.4,174.9L120.4,174.9z"/>
				</g>
			</g>
			<g>
				<path class="st8" d="M154.3,157"/>
				<g>
					<path class="st8" d="M154.3,157.6c0.7,0,0.7-1.1,0-1.1C153.6,156.5,153.6,157.6,154.3,157.6L154.3,157.6z"/>
				</g>
			</g>
			<path class="st9" d="M154.4,180.9"/>
			<g>
				<path class="st10" d="M251.5,175.7c-4.4-5.3-8.7-10-12.8-14.1c-56.3-56-87-7.3-89.8-2.5c-0.1,0.2-0.4,0.4-0.6,0.5
					c-3.1,1.1-22.5,8-27.9,14.7c0,0-1.5,1.7,4.1,3.5c0.2,0,0.3,0.1,0.5,0l9.5-0.9c0,0,0,0,0,0c5.7,0,10.2,0.5,12.2,0.9
					c0.1,0,0.6,0.1,1.2,0.3c15.3,3.5,23.5,15.7,23.6,16.2c0,0,0,0.1,0,0.1c0.4,0.4,1,0.3,1.3-0.2c13.5-30.1,40-4.5,46.7,2.8
					c0,0,1.7,1.9,3.9,4.2c0.2,0.2,0.4,0.3,0.7,0.3c16-0.3,30.3-2.8,40.4-6.7c0.6-0.2,0.8-0.9,0.4-1.4c-0.7-1-1.6-2.4-1.6-2.4
					C259.2,185.4,255.3,180.3,251.5,175.7z"/>
				<g>
					<path class="st10" d="M251.9,175.3c-17.6-21-45.6-48.7-76-39.1c-7.8,2.5-14.7,7.3-20.3,13.2c-2,2.1-3.8,4.3-5.4,6.6
						c-1.7,2.4-2.4,3.1-5.3,4.2c-6,2.3-12,4.8-17.6,8c-1.9,1.1-8.1,4.1-7.6,7c0.7,3.8,7.1,2.9,9.5,2.7c5.9-0.6,11.8-0.7,17.7,0.5
						c8,1.6,15.3,6,20.8,11.9c1,1,2.8,5,4.6,4.7c1.7-0.2,3.5-5.8,4.4-7c2.5-3.5,5.9-6.3,10.1-7.3c6.4-1.5,13,1.4,18.4,4.8
						c4.9,3.1,9.2,7,13.2,11.1c1.6,1.7,3.2,4.5,5.5,5.2c2.2,0.7,6.3-0.2,8.5-0.4c3-0.2,5.9-0.5,8.9-0.9c4.9-0.6,9.7-1.5,14.5-2.7
						c2.1-0.5,8.5-1.3,9.5-3.5c0.8-1.8-2.5-5-3.3-6.1C258.8,184,255.4,179.6,251.9,175.3c-0.5-0.6-1.3,0.2-0.8,0.8
						c3.3,4,6.4,8,9.5,12.1c0.8,1,2.9,3,3.1,4.3c0.3,2.6-2.7,2.8-4.5,3.4c-8.9,2.7-18.2,4-27.5,4.6c-3,0.2-6.5,0.8-9.1-1.2
						c-1-0.7-1.8-2-2.7-2.9c-1.3-1.3-2.5-2.6-3.9-3.9c-3.4-3.2-7-6.1-10.9-8.5c-7.7-4.7-17.4-7.3-25.1-1c-2.1,1.7-3.8,3.9-5.2,6.2
						c-0.4,0.7-2.3,4.9-2.7,4.8c-0.1,0-0.4-0.8-0.5-0.9c-0.9-0.6-1.9-2.5-2.7-3.3c-1.8-1.9-3.7-3.7-5.8-5.2c-9.3-7-20.6-9.1-32-8
						c-1.9,0.2-4.1,0.8-6,0.6c-1.4-0.1-4.4-1.3-4-2.9c0.3-1.2,3-2.7,3.9-3.3c5.4-3.7,11.6-6.3,17.6-8.7c2.4-0.9,5.3-1.4,7-3.4
						c1.3-1.4,2.2-3.3,3.4-4.8c4.5-5.7,10-10.6,16.4-14c31.4-16.6,63.1,13.7,81.8,35.9C251.6,176.7,252.3,175.9,251.9,175.3z"/>
				</g>
			</g>
			<circle class="st11" cx="155.7" cy="157.7" r="1.9"/>
			<g>
				<g>
					<path class="st10" d="M176.5,210.3c0.7-1,1.3-2,2-3c0.8-1.2,1.7-3.5,2.9-4.3c0,0,0.3-0.6,0.4-0.6c-0.1,0,1.6,2.5,1.8,2.7
						c0.6,0.7,1.1,2,2.2,1.9c1.6-0.1,3.4-5.3,5-4.8c0.6,0.2,1.5,3.5,1.8,4.1c0.5,1.2,1,2.3,1.5,3.5c0.3,0.7,1.3,0.1,1-0.6
						c-1.1-2.4-1.9-6.7-4.1-8.2c-0.2-0.1-0.4-0.1-0.6,0c-1.8,0.8-2.9,4.2-4.7,4.6c-0.9,0.2,0.3,0.4-0.7-0.6
						c-0.9-0.8-1.5-2.8-2.4-3.3c-0.4-0.2-0.5-0.6-1-0.5c-0.9,0.1-1.7,1.9-2.1,2.6c-1.3,2-2.6,4-4,6
						C175.2,210.3,176.1,210.9,176.5,210.3L176.5,210.3z"/>
				</g>
			</g>
		</g>
		<g>
			<path class="st12" d="M84.2,92.2c0,0.2-0.1,0.3-0.5,0.4c0,0-0.3,0.1-0.8,0.2c-0.5,0.1-1.1,0.3-1.9,0.5c-0.1,0-1.3,0.4-3.8,1.1
				c-0.3,0.1-0.5,0.1-0.5-0.1c0-0.2,0.1-0.3,0.3-0.4l0.3-0.1l0.9-0.3c0.3-0.1,0.5-0.3,0.6-0.4c0-0.2-0.1-0.7-0.3-1.5L75.9,83
				c-0.4-1.4-0.8-2.3-1.4-2.7c-0.5-0.5-1.2-0.6-2.1-0.3c-0.6,0.2-1.1,0.5-1.6,1c-0.4,0.5-0.7,1.1-0.7,1.7c0,0.4,0.3,1.7,1,3.9
				l1.9,6.6c0.2,0.8,0.4,1.2,0.4,1.3c0.1,0.3,0.4,0.3,0.7,0.2l1-0.3c0.3-0.1,0.5,0,0.5,0.1c0,0.2-0.1,0.3-0.5,0.4L75,95.1
				c-0.2,0.1-1,0.3-2.4,0.7c-0.5,0.1-1.1,0.3-1.9,0.5c-0.8,0.2-1.3,0.4-1.4,0.4l-0.4,0.1c-0.3,0.1-0.5,0-0.5-0.2
				c0-0.1,0-0.2,0.2-0.3c0.1-0.1,0.6-0.2,1.4-0.4c0.4-0.1,0.5-0.3,0.5-0.5L70.3,95l-2.8-9.8c-0.4-1.4-0.8-2.2-1.3-2.7
				c-0.5-0.4-1.2-0.5-2-0.3c-0.9,0.2-1.5,0.7-1.9,1.4c-0.4,0.7-0.5,1.5-0.3,2.3l2.8,9.9c0.2,0.7,0.4,1.1,0.5,1.2
				c0.1,0.1,0.5,0.1,1.1-0.1l0.3-0.1c0.1-0.1,0.3-0.1,0.4-0.1c0.3-0.1,0.4,0,0.5,0.2c0,0.2-0.1,0.3-0.4,0.4l-0.4,0.1
				c-0.6,0.1-1.5,0.4-2.7,0.8l-3.5,1c-0.3,0.1-0.5,0-0.6-0.1c0-0.2,0.1-0.3,0.4-0.4c0.9-0.3,1.4-0.4,1.5-0.6
				c0.1-0.1,0.2-0.3,0.1-0.5l-2.6-9.1c-0.5-1.7-0.8-2.8-1-3c-0.2-0.3-0.5-0.3-1.2-0.2l-0.5,0.1c-0.2,0.1-0.4,0.1-0.7,0.2
				c-0.3,0.1-0.5,0.1-0.5-0.1c0-0.1,0-0.2,0.1-0.3c0.1-0.1,0.5-0.2,1.1-0.4c0.5-0.2,1.2-0.5,1.9-1c0.7-0.5,1.2-0.8,1.2-1.1
				c0.2-0.3,0.3-0.5,0.5-0.5c0.1,0,0.2,0,0.3,0.2c0.1,0.2,0.3,0.8,0.6,1.9c0.5-1.8,1.8-2.9,3.7-3.5c2.1-0.6,3.6-0.2,4.5,1.3
				c0.5-1.8,1.7-3,3.8-3.6c1.8-0.5,3.1-0.2,4.1,0.8c0.5,0.6,1,1.6,1.4,3.1l2.5,8.7c0.2,0.8,0.4,1.2,0.5,1.3c0.1,0.1,0.5,0,1.2-0.1
				l0.6-0.2C84,92,84.1,92.1,84.2,92.2z"/>
			<path class="st12" d="M107.8,79.3c0.5,2.3,0.2,4.4-0.9,6.2c-1.1,1.9-2.7,3-4.8,3.4c-2.2,0.5-4.2,0-6-1.2c-1.8-1.3-2.9-3-3.4-5.3
				c-0.5-2.4-0.2-4.5,0.9-6.4c1.1-1.9,2.7-3,4.9-3.5c2.2-0.4,4.1,0,5.9,1.3C106.2,75.2,107.3,77,107.8,79.3z M104.5,80
				c-0.5-2.6-1.4-4.6-2.5-5.9c-0.8-0.9-1.9-1.3-3.4-1c-1.4,0.3-2.3,1.2-2.7,2.7s-0.5,3.5,0,5.9c0.5,2.4,1.3,4.2,2.4,5.4
				c1.1,1.2,2.4,1.6,3.8,1.3c1.1-0.2,1.8-0.8,2.2-1.8C105,84.9,105.1,82.7,104.5,80z"/>
			<path class="st12" d="M136.4,68.6c0.2,1.1-0.3,1.7-1.3,1.9c-0.3,0-0.7,0-1-0.2c-0.3-0.2-0.5-0.4-0.5-0.7c0-0.1,0-0.3,0-0.5
				c0-0.2,0.1-0.4,0-0.5c0-0.3-0.2-0.4-0.6-0.4c-0.3,0-0.6,0.2-0.8,0.6c-0.2,0.3-0.3,0.7-0.3,1c0,0.1,0.1,0.5,0.4,1.2
				c0.2,0.7,0.4,1.3,0.4,1.7c0.2,1.6-0.2,3.1-1.1,4.4c-1,1.3-2.3,2-4,2.3c-0.4,0.1-1.3,0-2.5-0.2c-0.3-0.1-0.5-0.1-0.6-0.1
				c-0.5,0.1-0.9,0.3-1.3,0.8c-0.4,0.5-0.5,0.9-0.4,1.4c0.2,1.3,1,1.8,2.6,1.6c0.6-0.1,1.5-0.3,2.8-0.7c1-0.3,1.9-0.5,2.7-0.6
				c1.5-0.2,2.7,0,3.7,0.7c0.9,0.7,1.5,1.7,1.7,3c0.3,2.1-0.4,3.9-2,5.5c-1.6,1.6-3.8,2.6-6.5,3c-2,0.3-3.7,0.1-4.9-0.5
				c-1.3-0.6-2-1.7-2.2-3.1c-0.2-1.4,0.2-2.5,1.2-3.3c0.5-0.4,1.3-0.8,2.4-1.3c-1.8-0.4-2.8-1.3-3-2.7c-0.2-1.7,0.7-3.1,2.9-4.1
				c-1.6-0.9-2.6-2.3-2.8-4.2c-0.2-1.7,0.1-3.2,1.1-4.4c1-1.2,2.4-1.9,4.2-2.2c1-0.1,1.8-0.1,2.5,0.1c0.7,0.2,1.5,0.6,2.4,1.3
				c0.6-1.2,1.5-1.9,2.7-2.1C135.4,66.9,136.2,67.4,136.4,68.6z M134.8,86.6c-0.3-2-1.6-2.8-4-2.5c-0.7,0.1-1.7,0.3-3,0.7
				c-1.3,0.4-2.3,0.6-2.9,0.7c-1.2,0.8-1.6,2.1-1.4,3.7c0.2,1.2,0.8,2.2,1.7,2.8c1,0.6,2.2,0.8,3.7,0.6c1.8-0.3,3.3-1,4.5-2.1
				C134.6,89.3,135,88,134.8,86.6z M130.1,73.1c-0.5-3.5-1.7-5.1-3.7-4.8c-1.9,0.3-2.6,2-2.2,5.3c0.5,3.7,1.8,5.3,3.8,5.1
				C129.9,78.4,130.5,76.5,130.1,73.1z"/>
			<path class="st12" d="M166.3,79.1c0,0.2-0.3,0.3-0.8,0.4c-1.9,0.3-3.6,0.8-5,1.6c-0.1,0.1-0.2,0.1-0.3,0.1
				c-0.1,0-0.2-0.1-0.2-0.3l-0.1-2c-1,1.6-2.5,2.5-4.5,2.7c-1.8,0.1-3.1-0.3-4-1.3c-0.3-0.4-0.6-0.8-0.7-1.1
				c-0.1-0.4-0.2-1.3-0.3-2.9l-0.6-8.3c-0.1-0.8-0.1-1.3-0.3-1.5s-0.4-0.2-1-0.2l-0.5,0c-0.7,0.1-1,0-1-0.2c0-0.2,0.2-0.3,0.6-0.3
				c0.4,0,1.1,0,1.9,0c0.4,0,0.7,0,0.7,0c0.9-0.1,1.7-0.2,2.4-0.3l0.7,10.1c0.1,1.9,0.3,3.1,0.6,3.7c0.5,0.9,1.3,1.3,2.5,1.2
				c1.3-0.1,2.2-0.7,2.8-1.8c0.4-0.8,0.5-2,0.4-3.7l-0.4-5.6c-0.1-0.8-0.1-1.4-0.2-1.8l-0.1-1.2c-0.1-0.4-0.1-0.6-0.3-0.6
				c-0.1-0.1-0.4-0.1-0.8,0c-1,0.1-1.6,0-1.6-0.2c0-0.1,0.2-0.2,0.8-0.3l0.3,0c0.2,0,0.8-0.1,2-0.1c1.5-0.1,2.4-0.2,2.7-0.2
				l0.7,10.1c0.1,1.7,0.2,2.8,0.4,3.3c0.1,0.5,0.3,0.7,0.6,0.8c0.3,0.1,1,0,2.1,0C166.2,78.8,166.3,78.9,166.3,79.1z"/>
			<path class="st12" d="M201.5,72.8l-10.2-0.2l0-1.9l10.2,0.2L201.5,72.8z"/>
			<path class="st12" d="M231.9,81.8c0,0.2-0.2,0.3-0.5,0.3l-0.4,0c0,0-0.7-0.1-1.9-0.3l-1.1-0.1c-0.2,0-1.2-0.1-2.9-0.2
				c-0.1,0-0.3,0-0.4,0c-0.4,0-0.5-0.1-0.5-0.4c0-0.2,0.2-0.2,0.4-0.2l1,0.1c0.7,0.1,1,0,1.1-0.3c0-0.1,0.1-1.1,0.3-2.8l1.7-18.5
				c0.1-0.8,0.1-1.2,0-1.3c-0.1-0.2-0.2-0.3-0.6-0.3l-0.3,0l-1-0.1c-0.3,0-0.5-0.1-0.5-0.4c0-0.2,0.3-0.3,0.9-0.2
				c1.2,0,2.3-0.1,3.3-0.5l0.8-0.3l0.3-0.1c0.1,0.7,0.1,1.8,0,3.2l-0.2,2.6l-1.7,17.8c-0.1,0.7-0.1,1.2-0.1,1.3
				c0,0.1,0.1,0.2,0.2,0.3c0,0,0.5,0.1,1.4,0.2C231.7,81.5,231.9,81.7,231.9,81.8z"/>
			<path class="st12" d="M262,78.2c-0.4,2.3-1.4,4.2-3.1,5.5c-1.7,1.4-3.6,1.9-5.7,1.5c-2.2-0.3-3.9-1.4-5.2-3.2
				c-1.2-1.8-1.7-3.9-1.3-6.2c0.4-2.4,1.4-4.3,3.1-5.6c1.7-1.4,3.6-1.9,5.8-1.5c2.2,0.3,3.9,1.4,5.1,3.2
				C261.9,73.7,262.3,75.8,262,78.2z M258.7,77.7c0.4-2.6,0.3-4.8-0.3-6.4c-0.4-1.2-1.4-1.9-2.8-2.1c-1.4-0.2-2.5,0.3-3.5,1.6
				c-1,1.3-1.7,3.1-2,5.6c-0.4,2.4-0.3,4.4,0.4,5.9c0.6,1.5,1.6,2.3,3.1,2.6c1.1,0.2,2-0.1,2.7-0.9
				C257.4,82.5,258.2,80.4,258.7,77.7z"/>
			<path class="st12" d="M290.1,79.1c-0.2,1.1-0.9,1.5-2,1.3c-1.1-0.2-1.5-0.8-1.3-1.8c0.1-0.3,0.3-0.6,0.6-1.1
				c0.1-0.2,0.2-0.3,0.2-0.5c0.1-0.5-0.1-0.9-0.5-1.3c-0.4-0.4-1-0.7-1.8-0.9c-1.4-0.3-2.7,0.1-3.8,1.1c-1.1,1.1-1.8,2.7-2.3,4.9
				c-0.6,2.5-0.6,4.5-0.1,6.1c0.5,1.5,1.5,2.5,3,2.8c1,0.2,2,0.1,2.9-0.3c0.4-0.2,1-0.6,1.8-1.3c0.1-0.1,0.3-0.1,0.4-0.1
				c0.2,0.1,0.3,0.2,0.3,0.4c-0.1,0.3-0.6,0.8-1.6,1.5c-1.3,0.9-2.8,1.1-4.5,0.8c-2.1-0.5-3.7-1.6-4.8-3.4c-1.1-1.8-1.3-3.8-0.8-6.1
				c0.5-2.4,1.7-4.3,3.5-5.6s3.8-1.7,6-1.2c1.4,0.3,2.6,1,3.5,1.9C289.9,77.2,290.3,78.2,290.1,79.1z"/>
			<path class="st12" d="M314.7,97.1c-0.1,0.4-0.6,0.7-1.6,0.9c-1,0.2-1.8,0.2-2.6,0c-1.6-0.5-2.2-1.5-1.8-3.2
				c-1.4,1.5-3,1.9-4.9,1.4c-1-0.3-1.8-0.8-2.3-1.6c-0.5-0.8-0.6-1.6-0.3-2.6c0.5-1.9,2.1-3.1,4.8-3.6c0.9-0.1,2.4-0.1,4.5,0.1
				l0.2-0.9c0.6-2.1,0.9-3.4,0.8-4.2c0-1.3-0.7-2.1-2.1-2.5c-0.8-0.2-1.6-0.2-2.3,0.1c-0.7,0.3-1.1,0.8-1.3,1.4
				c-0.1,0.2,0.1,0.3,0.4,0.4s0.5,0.3,0.7,0.6c0.2,0.3,0.2,0.7,0.1,1c-0.3,1-1,1.4-2,1.1c-0.5-0.2-0.9-0.5-1.2-0.9
				c-0.3-0.5-0.3-1-0.1-1.5c0.3-1.1,1-1.9,2.1-2.5c1.2-0.6,2.7-0.6,4.4-0.1c2.6,0.7,4,1.9,4.2,3.5c0.1,0.6-0.1,1.7-0.6,3.3l-1.9,6.6
				c-0.3,1.1-0.5,1.7-0.5,1.9c-0.1,0.9,0.1,1.4,0.7,1.6c0.7,0.2,1.3,0.1,1.8-0.2c0.3-0.2,0.5-0.3,0.6-0.2
				C314.7,96.8,314.7,96.9,314.7,97.1z M309.5,91.6l0.7-2.6c-1.9-0.1-3.3,0.1-4.2,0.5c-0.9,0.4-1.6,1.2-1.9,2.3
				c-0.2,0.7-0.2,1.4,0.1,2c0.3,0.6,0.8,1,1.4,1.2c1,0.3,2,0,2.9-1C308.8,93.8,309.1,93,309.5,91.6z"/>
			<path class="st12" d="M332,104.3c-0.1,0.2-0.3,0.3-0.6,0.2l-0.4-0.1c0,0-0.7-0.2-1.8-0.7l-1.1-0.4c-0.2-0.1-1.1-0.4-2.8-0.9
				c-0.1,0-0.3-0.1-0.4-0.1c-0.4-0.1-0.5-0.3-0.4-0.5c0.1-0.2,0.2-0.2,0.5-0.1l0.9,0.3c0.7,0.2,1,0.2,1.1-0.1c0.1-0.1,0.4-1,1-2.7
				l6-17.6c0.3-0.8,0.4-1.2,0.4-1.3c0-0.2-0.2-0.4-0.5-0.5l-0.3-0.1l-1-0.3c-0.3-0.1-0.5-0.3-0.4-0.5c0.1-0.2,0.4-0.2,1,0
				c1.1,0.3,2.3,0.4,3.4,0.3l0.9-0.1l0.3,0c0,0.7-0.3,1.8-0.8,3.1l-0.8,2.4l-5.7,16.9c-0.2,0.7-0.4,1.1-0.4,1.2c0,0.1,0,0.2,0.2,0.3
				c0,0,0.4,0.2,1.3,0.5C331.9,103.9,332.1,104.1,332,104.3z"/>
		</g>
		<g>
			<path class="st12" d="M128.2,256.2c-2-0.1-6.9-0.4-7.3-0.5c-0.6-0.1-0.9-0.6-0.8-1c0.1-0.4,0.4-0.7,1.1-0.6
				c0.8,0.1,2.3,0.3,7.3,0.7l0.1-0.6c0.2-0.8,0.3-1.4,0.4-1.9c0.1-0.8,0.2-1.4,0-1.9c0-0.1,0-0.2,0-0.3c0-0.1,0-0.1,0.1-0.2l-0.4,0
				c-1-0.1-2-0.1-3-0.3c-0.7-0.1-1.5-0.3-1.3-1.1c0.1-0.4,0.4-0.6,1-0.5l0,0c0.5,0.1,1,0.2,1.4,0.3c0.4,0.1,0.9,0.1,1.4,0.2
				c1.4,0.1,3.4,0.2,5.1,0.4c0.6,0,1,0,1.4,0c0.3,0,0.7,0,1,0.1c1,0.2,1.3,0.7,1.2,1c-0.1,0.4-0.5,0.7-1.3,0.6
				c-3.9-0.4-4.9-0.4-5.2-0.5c0.1,0.1,0.4,0.6,0.2,1.8c0,0.2-0.1,0.5-0.2,0.8c-0.1,0.5-0.3,1.1-0.4,1.6l-0.1,0.6
				c1.2,0.1,2.5,0.2,3.6,0.2c1.8,0.1,4.5,0.3,5,0.4c0.7,0.1,1,0.5,0.9,0.9c0,0.2-0.2,0.8-1.4,0.6c-2-0.3-4.3-0.5-8.4-0.8
				c-0.3,1.3-0.6,2.9-0.9,3.8c0,0.1,0,0.1,0,0.2c-0.3,1.8,1.8,2.5,3.3,2.7c1.5,0.3,3.4,0.3,4.9-0.1c0.2,0,0.4-0.1,0.6,0
				c0.5,0.1,0.8,0.5,0.8,0.9c-0.2,1.3-4.2,1.2-6.3,0.9c-3.1-0.6-5.3-1.7-4.9-4.3c0,0,0-0.1,0-0.1L128.2,256.2z"/>
			<path class="st12" d="M150.3,260.2c-0.5-0.1-0.8-0.4-0.7-0.8c0-0.3,0.2-0.6,0.7-0.8c3.9-1.8,8.1-6.9,8.7-8.6
				c0.2-0.5,0.6-0.7,1-0.6c0.5,0,0.9,0.4,0.8,0.9c0,0.4-0.4,1.2-1.1,2.1c0.7,0,1.4-0.1,2-0.1c1.6-0.1,3-0.2,3.7-0.1
				c1.3,0.1,1.9,0.9,1.8,1.7c0,0.3-0.1,0.6-0.3,0.8c-5.2,7.2-9.9,12.2-18,14.3c-0.2,0.1-0.4,0.1-0.6,0c-0.6-0.1-0.9-0.5-0.9-0.9
				c0-0.4,0.4-0.7,1-0.9c6.7-1.4,12.2-6.2,16.4-12.8c0.2-0.3,0.2-0.4,0.3-0.6c0-0.3-0.2-0.4-0.6-0.4c-0.7,0-2.5,0-3.5,0.1
				c-0.8,0.1-1.8,0.1-2.5,0.1C155.1,257.3,151.5,260.3,150.3,260.2z M169.5,253.1c-0.4-0.6-1.9-2-2.6-2.3c-0.3-0.2-0.4-0.4-0.4-0.5
				c0-0.3,0.4-0.6,0.8-0.5c0.5,0,3.5,2,3.4,2.9c0,0.4-0.4,0.7-0.8,0.7C169.7,253.3,169.6,253.2,169.5,253.1z M172.2,251.1
				c-0.4-0.6-2-1.9-2.7-2.3c-0.3-0.2-0.4-0.4-0.4-0.5c0-0.3,0.4-0.6,0.8-0.5c0.3,0,3.6,1.9,3.4,2.9c0,0.4-0.4,0.7-0.8,0.7
				C172.5,251.4,172.3,251.3,172.2,251.1z"/>
			<path class="st12" d="M191.8,266c0.9,0,1.1,0.6,1.1,0.9c0,0.4-0.4,0.7-1.2,0.8c-0.7,0-1.3,0-2.1,0c-1.3,0-4.1,0.1-5.1,0.2
				c-0.7,0-1.4,0.1-2.1,0.1c-0.2,0-0.3,0-0.5,0c-0.1,0.6-0.5,1-0.9,1c-0.3,0-0.7-0.3-0.8-1c0-0.3,0-0.7,0-1.1
				c-0.1-7.2-0.6-8.3-2.2-10.1c-0.2-0.2-0.2-0.4-0.2-0.6c0-0.4,0.4-0.7,0.9-0.7c0.8,0,1.6,1.4,1.8,1.7c0.1-0.1,0.4-0.3,0.8-0.3
				c2.5-0.2,4.1-0.3,8-0.9c0.9-0.1,1.5-0.3,2.3-0.3c0.1,0,0.2,0,0.2,0c1.5,0.1,2,1,2,1.9c0,0.2-0.1,0.4-0.1,0.6
				c-0.5,1.2-1,2.9-1.6,4.5c-0.4,1.2-0.7,2.3-1.1,3.3C191.1,266,191.4,266,191.8,266z M181.9,266.4c0.3,0,0.6,0.1,0.9,0.1
				c0.5,0,0.9,0,1.4,0c0.9,0,3.4-0.2,4.9-0.3c1-2.6,2.4-7.9,2.4-8.4c0-0.4-0.1-0.6-0.6-0.6c-0.1,0-0.2,0-0.4,0
				c-1.4,0.1-4.7,0.7-5.8,0.9c-1.3,0.2-2.4,0.3-3.6,0.4c-0.1,0-0.1,0-0.2,0C181.5,260.6,181.8,266.1,181.9,266.4L181.9,266.4z"/>
			<path class="st12" d="M222,261.2c-0.5,0-1,0-1.5,0c-5.5,0.2-9.7,0.6-12,0.7c-1.5,0.1-2.2,0.2-2.8,0.2c-1.1,0-2,0-2-0.8
				c0-0.4,0.3-0.8,1.1-0.8c0,0,0.1,0,0.1,0c1.1,0,2.4,0,3.5,0c2.4-0.1,8.6-0.6,13.6-0.9c0.9-0.1,1.2,0.5,1.2,0.8
				C223.3,260.8,222.9,261.2,222,261.2L222,261.2z"/>
			<path class="st12" d="M232.6,270.8c-0.5,0-0.9-0.3-1-0.7c0-0.3,0.1-0.6,0.5-0.8c4.4-2.7,6.9-7.4,7.9-11.9c-1,0.2-2,0.4-3,0.7
				c-1.3,0.3-2.6,0.6-3.7,0.7c-0.7,0.1-1-0.3-1.1-0.7c0-0.4,0.2-0.8,0.7-0.9c0,0,0,0,0.1,0c0.1,0,0.3,0,0.4,0c0.3,0,1.6-0.2,6.8-1.3
				c0.2-1.3,0.3-2.8,0.1-4c-0.1-0.5-0.1-1-0.2-1.4c0,0,0,0,0-0.1c-0.1-0.5,0.4-0.8,0.8-0.8c0.8-0.1,0.9,0.5,1,1.3
				c0.2,1.7,0,3.8-0.1,4.6c3.7-0.8,3.7-0.8,3.8-0.8c1.6-0.2,2.6,0.7,2.8,2.2c0,0.4,0.1,6.5-1.4,9.4c-1,1.8-2.4,2.9-3.9,3.1
				s-3.2-0.9-3.3-1.6c0-0.4,0.3-0.9,0.7-0.9c0.2,0,0.5,0,0.7,0.3c0.6,0.6,1.2,0.7,1.8,0.7c1-0.1,1.9-1,2.5-2c1.2-2,1.3-7.9,1.3-8.6
				c-0.1-0.7-0.4-1.2-1.3-1.1c-0.1,0-0.3,0-0.4,0.1c-1.2,0.3-2.3,0.5-3.6,0.8C240,266.6,233.4,270.7,232.6,270.8z"/>
			<path class="st12" d="M258.6,266.7c-0.5,0.1-1-0.2-1.1-0.6c0-0.3,0.1-0.6,0.4-0.9c5.6-4.3,5.7-9.8,5.4-11.6
				c-0.1-0.3-0.1-0.6-0.2-0.9c0,0,0-0.1,0-0.1c-0.1-0.6,0.3-0.9,0.7-1c0.7-0.1,1,0.3,1.2,1.5c0.2,1.1,0.6,7.6-5.8,13.2
				C259,266.5,258.8,266.6,258.6,266.7z M270.5,260.2c0.1,0.3,0.1,0.5,0.3,0.5c0.1,0,4.2-2.3,6.9-9.4c0.2-0.4,0.4-0.6,0.7-0.7
				c0.4-0.1,0.9,0.3,1,0.8c0,0.2,0,0.4-0.1,0.6c-2.4,5.9-7.5,10.6-9.2,10.9c-0.7,0.1-1.1-0.3-1.2-0.9c0-0.1,0-0.2,0-0.3
				c0-1.9-0.3-6.2-0.7-8.5c-0.2-1-0.4-2-0.6-2.6c0-0.1-0.1-0.1-0.1-0.2c-0.1-0.5,0.3-0.9,0.8-1c0.9-0.2,1.1,0.6,1.4,2.3
				c0.2,1.2,0.2,1.2,0.2,1.2C270,254.2,270.3,259.3,270.5,260.2z"/>
		</g>
	</g>
	
		<text transform="matrix(1 0 0 1 -808.1976 -386.1411)" class="st12" style="font-family:'BodoniSvtyTwoOSITCTT-Bold'; font-size:33.3791px;">website</text>
</g>
<g id="本文">
</g>
</svg>
