<?xml version="1.0" encoding="utf-8"?>
<!-- Generator: Adobe Illustrator 22.1.0, SVG Export Plug-In . SVG Version: 6.00 Build 0)  -->
<svg version="1.1" xmlns="http://www.w3.org/2000/svg" xmlns:xlink="http://www.w3.org/1999/xlink" x="0px" y="0px"
	 viewBox="0 0 695.1 260.3" style="enable-background:new 0 0 695.1 260.3;" xml:space="preserve">
<style type="text/css">
	.st0{fill:none;stroke:#707070;}
	.st1{clip-path:url(#SVGID_2_);fill:none;}
	.st2{clip-path:url(#SVGID_2_);fill:none;stroke:#707070;}
	.st3{fill:#595757;}
	.st4{fill:none;}
	.st5{fill:#6D6E70;stroke:#6D6E70;stroke-width:5;stroke-linecap:round;stroke-miterlimit:10;}
</style>
<g id="土層">
</g>
<g id="Layer_1">
	<rect x="-2088.6" y="-1130.4" class="st0" width="1919" height="79"/>
	<g>
		<defs>
			<rect id="SVGID_1_" x="-688.6" y="-1110.9" width="502" height="40"/>
		</defs>
		<clipPath id="SVGID_2_">
			<use xlink:href="#SVGID_1_"  style="overflow:visible;"/>
		</clipPath>
		<rect x="-688.1" y="-1110.4" class="st1" width="149" height="39"/>
		<rect x="-688.1" y="-1110.4" class="st2" width="149" height="39"/>
		<rect x="-688.1" y="-1110.4" class="st1" width="149" height="39"/>
		<rect x="-688.1" y="-1110.4" class="st2" width="149" height="39"/>
		<rect x="-518.1" y="-1110.4" class="st1" width="149" height="39"/>
		<rect x="-518.1" y="-1110.4" class="st2" width="149" height="39"/>
		<rect x="-518.1" y="-1110.4" class="st1" width="149" height="39"/>
		<rect x="-518.1" y="-1110.4" class="st2" width="149" height="39"/>
		<rect x="-348.1" y="-1110.4" class="st1" width="149" height="39"/>
		<rect x="-348.1" y="-1110.4" class="st2" width="149" height="39"/>
		<rect x="-348.1" y="-1110.4" class="st1" width="149" height="39"/>
		<rect x="-348.1" y="-1110.4" class="st2" width="149" height="39"/>
	</g>
	
		<text transform="matrix(1 0 0 1 -665.4232 -1079.796)" class="st3" style="font-family:'BodoniSvtyTwoOSITCTT-Bold'; font-size:33.3791px;">website</text>
</g>
<g id="本文">
	<g>
		<rect x="44.5" y="134.4" class="st4" width="572" height="84"/>
		<g>
			<path class="st3" d="M170.3,177c0.8,1.7,0.2,3.2-1,4c-1.1,0.8-2.8,0.6-3.8-0.9c-1.8-2.9-6.1-7.3-10.2-9.1c-2.9-1.2-0.5-5.8,3.1-4
				c1.7,0.9,3.5,1.9,5.2,3.1c2.9-1.9,8-6,10-8.5c0.6-0.8,0.4-1.1-0.4-1c-6.6,0.8-17.8,2.6-20.2,3c-2.2,0.4-5.1,0.9-7.5,1
				c-3.4,0.1-4.3-5.6,0.1-5.6c2.2,0,5.1-0.4,7.3-0.6c2.4-0.2,13.9-2.2,22.5-2.9c5-0.5,6.8,3.2,4.9,6c-2.6,3.9-8.2,9-12.8,12.2
				C168.8,174.7,169.7,175.8,170.3,177z"/>
			<path class="st3" d="M223.6,178.9c-2.7-0.4-5.4-0.5-8.1-0.4c-5.4,0.2-12,0.8-15.8,1.3c-3,0.3-4.4,0.7-7.2,0.6
				c-3.5-0.1-3.7-5.5,0.4-5.3c1.8,0,4.7,0,6.5-0.1c3.5-0.4,11.4-1,16.3-1.3c3-0.2,6-0.5,8.8-0.3c2.3,0.2,3.6,1.9,3.4,3.4
				C227.5,178.2,225.8,179.2,223.6,178.9z M213.2,162.8c-2.9,0.4-6.6,0.8-8.7,0.9c-2.2,0.1-4.2,0.4-6.2,0.1c-3.1-0.6-3-5.5,0.9-5
				c1.6,0.2,2.6,0.2,4.4,0.1c2.3-0.1,6.5-0.5,9.4-1c0.9-0.1,1.5-0.3,2.2-0.5s1.5-0.4,2.4-0.3c3.7,0.1,4.8,4.9,0,5.3
				C216.1,162.5,214.8,162.6,213.2,162.8z"/>
			<path class="st3" d="M240.6,186.4c-4.4,2.6-7.9-2.4-3.3-4.7c7.4-3.7,10.8-9.4,11.9-15.6c0.2-1.5,0.2-3.3,0-4.6
				c-0.6-3.1,5-4.2,5.8-0.5c0.1,0.5,0.1,1.2,0.1,2c3-1.5,6.7-4.1,8.5-6.7c0.9-1.1,1-1.8-0.9-1.6c-6.3,0.2-14.4,1.4-16.6,1.6
				c-2.7,0.4-4,0.8-6.9,0.7c-3.2-0.1-3.8-5.3,0.4-5.2c2.2,0.1,4.5-0.2,6.6-0.4c2.2-0.1,10.6-1,18.6-1.4c5.6-0.3,7.8,3.9,4.2,8.1
				c-3.2,3.8-7.5,7.7-12.6,9.6c-0.8,0.3-1.5,0.3-2.1,0C252.4,175.5,248.6,181.6,240.6,186.4z"/>
			<path class="st3" d="M278.2,172.4c-0.7-1.4-1.7-2.8-2.7-3.6c-2-1.8,0.8-4.9,3.2-2.8c1.2,1.2,2.6,2.7,3.5,4.3
				C283.8,173,279.7,175.4,278.2,172.4z M278.5,182.4c7.1-3.1,12-8.6,14.4-15.2c0.2-0.7,0.4-1.7,0.4-2.4c-0.1-3.1,4.8-3.3,5,0
				c0.1,1.6-0.4,2.9-1,4.1c-3.3,7.8-8.1,13.4-16.5,17.4C277.3,188,275.7,183.6,278.5,182.4z M284.6,169.8c-0.5-1.5-1.3-3-2.2-4
				c-1.8-2,1.5-4.7,3.5-2.3c1.1,1.3,2.2,3,2.9,4.7C290,171.1,285.7,173,284.6,169.8z"/>
			<path class="st3" d="M312.8,170.3c-3.5,2.3-6.4-2.2-2.9-4.4c4.9-3,8.5-8,10.9-11.6c0.9-1.3,1.6-2.9,2-4.1
				c0.9-3.4,5.9-2.5,5.4,0.9c-0.1,0.7-0.4,1.5-0.8,2.2c2.4-0.4,5-1,7.2-1.1c3.5-0.2,6.6,2.2,4.7,5.5c-8,13.8-15.4,23.5-28.9,28.7
				c-4.3,1.6-6.2-3.5-2-4.9c10.6-3.6,18.8-12.6,24.5-23.4c0.5-1,0-1.2-0.7-1.2c-2,0.1-6,0.9-8,1.2
				C321.2,162.3,317.2,167.3,312.8,170.3z"/>
			<path class="st3" d="M365.3,154.1c-2.2,6.2-6.5,13-10.1,19.2c-0.6,1.1-1.6,1.5-2.5,1.5c-1.2,0-2.4-0.9-2.4-2.1
				c0-0.5,0.2-1.1,0.5-1.7c3.6-5.5,6.4-9.4,8.9-14.6c-2.9,1.4-4.8,2-6.3,2c-3.3,0-3.3-2.3-3.3-2.5c0-1.2,0.9-2.4,2.3-2.4
				c0.3,0,0.6,0,1,0.1c0.2,0.1,0.5,0.1,0.8,0.1c1.8,0,4.4-1.3,7.1-2.6c0.1-1.2,0.1-2.4,0.2-3.9c0-1.5,1.2-2.2,2.3-2.2
				s2.3,0.7,2.4,2.2v1c0.2,0,0.3-0.1,0.5-0.1c1,0,2,0.9,2,2C368.9,152,366.7,153.3,365.3,154.1L365.3,154.1z M363.9,187.2
				c-4.6,0-8.4-3.2-8.4-6.1c0-3.3,4.4-5.8,10.9-5.8c0.8,0,1.5,0.1,2.3,0.1c-0.3-4-0.3-4.2-0.3-4.8c0-3.2,1-6.2,6.9-10.1
				c0.3-0.2,0.5-0.4,0.5-0.6c0-0.3-0.5-0.3-0.7-0.3c-0.6,0-1.7,0.2-3.2,0.6c-0.2,0-0.5,0-0.6,0c-1.2,0-1.9-0.8-1.9-1.6
				c0-1.3,1.5-2.8,6.7-2.8c3.7,0,8.1,2.1,8.1,4.4c0,1.1-1.1,2.1-2.6,2.2c-4,0.4-9,3-9,8.3c0,0.8,0.1,1.6,0.2,2.5
				c0.1,1,0.3,2.1,0.5,3.1c3.1,1,8,3.2,8,6c0,1.4-1,2.6-2.3,2.6c-0.7,0-1.4-0.3-2-1c-1-1-2.3-1.9-3.8-2.7
				C372.1,184.3,368.2,187.2,363.9,187.2z M365.3,179.2c-3,0-5.5,1-5.5,1.9s1.8,2,3.7,2c2.5,0,4.8-1.5,5.1-3.5
				C367.5,179.4,366.4,179.2,365.3,179.2z"/>
			<path class="st3" d="M417.6,186.5c-2.2,0.1-4.9,0.1-7.5,0.1c-2.6,0-5.2,0-7.3-0.1c-4.4-0.1-6.5-2.4-6.7-6.1
				c-0.1-3.2-0.1-8.7-0.1-14.2c0-4.9,0-9.8,0.1-13.1c0.1-3.2,2.5-5.3,6.3-5.5c1.9-0.1,5.1-0.1,8.3-0.1c2.7,0,5.3,0,7,0.1
				c3,0.1,6,2.2,6.1,5.9c0.1,3.1,0.2,8.1,0.2,13.1c0,5.5,0,11-0.2,13.7C423.7,183.8,421.2,186.3,417.6,186.5z M419,163.5
				c0-3.2,0-6.1-0.1-8.1c-0.1-3.5-0.9-3.5-8.9-3.5c-8.5,0-9.2,0-9.3,3.5c0,2.1-0.1,4.9-0.1,8.1H419z M400.7,167.9
				c0,4.2,0,8.2,0.1,10.6c0.1,3.3,0.7,3.5,9.2,3.5c2,0,4,0,5.3,0c2.8-0.1,3.6-1.4,3.8-3.6c0.1-2.5,0.1-6.5,0.1-10.5H400.7z"/>
			<path class="st3" d="M437.1,188.4c-1.6,0-2.4-1.2-2.4-2.5c0-1,0.5-1.9,1.5-2.2c10.5-3.1,13-9.7,13.8-16c0.2-1.4,1.3-2,2.5-2
				c1.3,0,2.7,0.9,2.7,2.3c0,0.2,0,0.4,0,0.5c-1.4,7.5-4.5,15.9-16.9,19.7C437.8,188.3,437.4,188.4,437.1,188.4z M475.7,165.1
				l-12.2-0.1c0,3.9-0.1,11.3-0.1,14.4c0,2.7,0,3.5,4.2,3.5c3.5,0,5.9-0.5,5.9-5c0-1.7,1.2-2.4,2.4-2.4c1,0,2.8,0.4,2.8,2.8
				c0,8-4.9,9.3-11.2,9.3c-4.8,0-8.9-0.4-8.9-6.1c0-1.6,0-11.7,0.1-16.4h-6.7l-14,0.1h0c-1.6,0-2.4-1.1-2.4-2.2
				c0-1.1,0.9-2.3,2.4-2.3l16.4,0l-0.1-14.5c0-1.5,1.2-2.2,2.5-2.2c1.3,0,2.6,0.8,2.6,2.2l-0.1,14.5l16.5,0c1.6,0,2.3,1.1,2.3,2.2
				S477.2,165.1,475.7,165.1L475.7,165.1z M446.2,157.7c-1.2-2.2-3.5-4.4-4.6-5.1c-0.7-0.4-1-1-1-1.6c0-1.2,1.2-2.5,2.6-2.5
				c2.4,0,6.8,5.5,7.2,6.2c0.3,0.5,0.4,1,0.4,1.5c0,1.5-1.4,2.8-2.7,2.8C447.4,159,446.7,158.6,446.2,157.7z M464.8,159.1
				c-1.3,0-2.4-1.1-2.4-2.2c0-0.6,0.2-1.2,0.8-1.8c1.8-1.7,4.2-4.6,5.2-6.4c0.5-0.8,1.2-1.1,1.9-1.1c1.4,0,2.8,1.3,2.8,2.8
				c0,0.5-0.2,1-0.5,1.5C467.7,158.3,465.9,159.1,464.8,159.1z"/>
			<path class="st3" d="M494.3,186.6c-1.9,0-3.5-1.6-3.5-3.3c0-2.2,2.1-3.5,3.5-3.5c1.9,0,3.5,1.2,3.5,3.5
				C497.7,185.7,495.6,186.6,494.3,186.6z M492.1,173.9c0-0.3,0-0.6,0-1c0-4.9-0.5-16.5-0.8-24.4c0,0,0-0.1,0-0.1
				c0-1.9,1.4-2.8,2.9-2.8c1.5,0,3,1,3,2.9c0,5.9-0.8,19.7-0.8,24.5c0,1.2,0,3.3-2.2,3.3C493.2,176.3,492.1,175.5,492.1,173.9
				L492.1,173.9z"/>
			<path class="st3" d="M519.5,173.5c0-6.4,6.6-9.3,8.4-12.6c0.8-1.4,1.1-2.8,1.1-4.1c0-4.9-3.7-6.1-5.7-6.1c-4,0-5.7,3.3-6.1,4.7
				c-0.2,1-1.4,1.5-2.5,1.5c-1.4,0-2.8-0.8-2.8-2.4c0-1.9,3.1-8.8,11.3-8.8c5.9,0,11,4.1,11,11c0,1.6-0.3,3.4-1,5
				c-1.8,4.5-8.4,7.1-8.4,11.6c0,1.9-1.5,2.9-2.8,2.9C520.8,176.3,519.5,175.4,519.5,173.5z M522.2,186.6c-1.9,0-3.5-1.6-3.5-3.3
				c0-2.2,2.1-3.5,3.5-3.5c2,0,3.5,1.2,3.5,3.5C525.7,185.7,523.6,186.6,522.2,186.6z"/>
		</g>
		<g>
			<line class="st5" x1="527.1" y1="79.8" x2="527.1" y2="48.4"/>
			<line class="st5" x1="571.3" y1="89.8" x2="583.7" y2="61.4"/>
			<line class="st5" x1="600" y1="121.3" x2="624.3" y2="103.7"/>
			<line class="st5" x1="607.2" y1="164.9" x2="636.6" y2="164.9"/>
		</g>
	</g>
</g>
</svg>
