<?xml version="1.0" encoding="utf-8"?>
<!-- Generator: Adobe Illustrator 22.1.0, SVG Export Plug-In . SVG Version: 6.00 Build 0)  -->
<svg version="1.1" id="Layer_1" xmlns="http://www.w3.org/2000/svg" xmlns:xlink="http://www.w3.org/1999/xlink" x="0px" y="0px"
	 viewBox="0 0 303.9 199.2" style="enable-background:new 0 0 303.9 199.2;" xml:space="preserve">
<style type="text/css">
	.st0{fill:none;}
	.st1{fill:#010101;}
	.st2{fill:#231916;}
</style>
<g>
	<path class="st0" d="M234.4,139c-1.1,0.2-2.1,0.4-3.2,0.6c0.1,0.5,0.2,0.9,0.2,1.4c0,2.3-0.6,4.9-0.1,6.9c1,3.7,1.7,7.8,4.3,10.7
		c2,2.2,3.7,4.6,5.8,6.6c2,1.9,4.3,3.2,6.5,4.9c1.8,1.4,4.1,1,6,2.5c1.1,0.8,3,0,4.4,0.5c2.9,1.1,5.7,0.9,8.4-0.7
		c0.5-0.3,1-0.7,1.5-1.1c-0.3-0.5-0.7-1-1-1.5c0.7-0.2,1.1,0.1,1.6,0.3c0.4,0.2,0.9,0.5,1.1,0.4c1.6-1.4,3.1-2.9,4.7-4.5
		c-0.7-0.5-1.2-0.8-1.8-1.2c1.1-0.4,2-0.7,3.4-1.2c-1-0.5-1.4-0.7-1.9-1c0.5-0.1,0.8-0.2,1.2-0.3c-0.1-0.5-0.2-0.9-0.3-1.3
		c0.5-0.2,1-0.4,1.5-0.6c-0.7-0.4-1.3-0.7-2.2-1.1c3.1-1.6,4.8-4.6,3.8-6.3c0.3-0.3,0.6-0.5,1.1-0.9c-0.7-1.1-1.4-2.1-2.1-3.2
		c0.9,0.1,1.7,0.2,2.5,0.3c0-0.2,0.1-0.4,0.1-0.6c-0.5-0.3-1.1-0.5-1.9-0.9c0.4-1,1.5-2.3,1.2-3.1c-0.5-2.1,0.5-2.9,1.5-4.1
		c-0.5,0-1-0.1-1.5-0.1c1.4-0.7,3-3.4,2.1-4.2c-1.5-1.3,0-2,0.2-2.9c0.2-0.7,0.3-1.3,0.5-2c0.1-0.8,0.3-1.5,0.2-2.1
		c-0.3-1.5-0.7-2.9-1.1-4.2c-0.6,0-1.2-0.1-1.8-0.1c0-0.2,0-0.3,0-0.5c0.5,0,1.1,0.3,1.5,0c0.7-0.4,1.8-1,1.8-1.7
		c0.3-2.6,0.4-5.2,0.4-7.9c0-2.1-0.6-4.3-0.1-6.2c0.6-2.5,0.5-4.8,0.1-7.2c-0.1-0.4,0.1-0.9,0.1-1.3c0-1.1,0.1-2.3,0-3.4
		c-0.1-0.6-0.7-1.2-0.6-1.8c0.2-1.5-0.2-2.8-1-4.1c0.6-0.2,1.1-0.4,1.5-0.6c0-1.8,0-3.5,0-5.3c0-0.9,0.4-1.7,0.3-2.6
		c-0.1-2.4-0.5-4.8,0.3-7.2c0.6-1.9-0.2-3.7-1.7-4.7c-1.1-0.7-2.2-1.4-3.3-2.1c-1.2-0.7-4.4,1.1-4.3,2.4c0.5,3.8-0.7,7-3.1,9.1
		s-5.2,3.5-8,4.9c-1.9,0.9-4,1.3-6,1.8c-0.7,0.2-1.5,0.3-2.2,0.3c-2.8-0.2-3.9-3.3-4.3-6.9c-0.5-5.3,0.2-10.4,2.8-15
		c4.3-7.6,9.1-14.2,17.1-16.7c2.3-0.7,3.6,0.1,5.1,1.5c2.5,2.3,2.9,6,4.3,9.1c0.3,0.7,0.2,1.7,0.4,2.4c0.5,1.3,0.8,2.8,1.7,3.6
		c0.8,0.8,2.4-0.4,3,1.4c0.6-0.3,1.8-0.5,1.8-1c0.2-1.1-0.2-2.3-0.3-3.4c-1.6,0.3-0.7-1.4-1.1-2c-0.3-0.4,0-1.5,0.1-2.3
		c-0.6-0.4-1.2-0.7-2-1.2c0.6-0.4,0.9-0.8,1.3-1.1c0-0.1-0.1-0.3-0.1-0.4c-0.6,0.1-1.2,0.2-1.5,0.3c-1-2.1-1.9-3.9-2.8-5.8
		c-0.1-0.1-0.2-0.2-0.3-0.2c-2.2-0.1-3-3.5-5.4-3.3c-0.2,0-0.5-0.4-0.8-0.5c-2-0.7-4-1.9-6.1-2c-2.1,0-4.3,1.1-6.4,1.8
		c-0.4,0.2-0.7,1-1,1.6c-0.2,0.3-0.3,0.6-0.5,0.8c-1.4,0.9-2.6,2.4-3.9,3.2c-2.5,1.6-3.1,5.7-6.3,6c-0.2,0-0.3,0.7-0.4,0.9
		c0.6,0.7,1.1,1.4,1.6,2c-2.2-0.5-3.3,0.9-4.4,2.4c0.5,0.5,0.9,1,1.5,1.7c-0.7,0.1-1.3,0.1-1.6,0.3s-0.4,1.2-0.6,1.2
		c-2.4,0.3-3.6,2.3-5,4.4c-3,4.4-6.2,8.7-9.6,12.8c-0.9,1.1-2.4,1.4-3.7,2c-0.6-1.7-1.2-2.7-1.8-3.7c-0.2-0.4-0.6-1-0.5-1.3
		c0.5-1.3-0.2-2.3-0.4-3.4c-0.2-1.4,0.2-2.9-1.1-4c0,0,0.2-0.5,0.2-0.7c0.2-1,0.3-1.9,0.5-2.9c-0.7,0-1.4,0-2.5,0
		c0.9-0.5,1.5-0.8,2.3-1.2c-0.6-0.3-1-0.5-1.1-0.5c0-1.6,0.1-2.9,0-4.2c0-0.7-0.3-1.4-0.5-2.1c-0.8-2.6-3.2-2.3-4.8-3.4
		c-3.2-2-6,0.4-8.6,2c-2.5,1.5-4.6,3.8-6.9,5.8c-1.5,1.3-3,2.6-4.5,4c-1.7,1.7-3.3,3.5-5.2,5.6c-0.1-1-0.1-1.7-0.1-2.4
		c-0.1-3.2-0.2-6.4-0.3-9.6c0-0.3,0-0.7,0-1c-0.1-1.3,0.1-2.7-0.3-3.8c-0.4-1-1.2-2.2-2.1-2.6c-2.7-1.1-5.4-2.7-8.4-1.7
		c-1.5,0.5-2.9,1.1-4.3,1.8c-1.3,0.6-2.5,1.5-3.8,2.2c-2.3,1.2-4.8,1.9-6.8,3.6c-3,2.6-5.6,5.8-8.3,8.9c-3.6,4-6.4,8.7-9,13.6
		c-1.3,2.5-2.6,5-4,7.6c-2.5-2.4-3.2-5.7-3.7-8.7c-1-5.6,0.8-11.1,1.3-16.7c0.2-1.8,0.5-3.7,0.7-5.5c0.2-2.3-0.9-3.4-3.6-3.4
		c-1.6,0-1.7,1.4-1.9,3c-0.2,2.1-0.5,4.4-1.4,6.3c-3.1,6.6-7.5,12-12.6,16.6c-2.1,1.9-4.4,3.4-6.7,4.9c-2.8,1.8-5.5,3.8-8.5,5
		c-3.7,1.6-7.7,1.5-11.6,1.1c-1-0.1-2.1,0.1-3.3,0.2c0-2.9,0-6.2,0-9.6c-7.5,0-14.8,0-22.3,0c0-6.8,0-13.4,0-20.2
		c5.4,0,10.8,0,16.2,0c0-4.4,0-8.7,0-13.1c-5.5,0-10.8,0-16.2,0c0-6,0-11.7,0-17.6c7.2,0,14.2,0,21.3,0c0-4.4,0-8.6,0-12.9
		c-11.3,0-22.5,0-33.7,0c0,25.7,0,51.3,0,76.8c0.2,0.1,0.3,0.2,0.4,0.2c11,0,22.1,0,33.1,0c0.4,0,0.8-0.4,1.1-0.6
		c0.5-0.2,1-0.6,1.4-0.6c2.3,0.1,4.6,0.4,6.9,0.4c7.4,0.1,13.7-3.8,19.9-8c3-2.1,5.7-4.6,8.5-7.1c1.6-1.4,3.1-3.1,4.8-4.8
		c-0.1,4.8,0.6,8.9,2.6,12.7c0,0.3-0.1,1,0.2,1.2c1.9,2.4,4,4.5,7,5.2c1.3,0.3,2.2,0.2,3-0.8c0.9-1.2,1.6-2.7,2.4-4
		c1.6-2.7,3.1-5.4,4.8-8.1c2.3-3.7,4.6-7.4,7.3-10.8c1.7-2.2,3.9-3.9,6-5.4c3.2-2.3,6.4-4.4,9.8-6.2c2.1-1.1,4.4-1.6,6.9-2.5
		c0.1,4,0.3,7.3,0.4,10.7c0,1-0.4,2-0.4,3c-0.1,2.2-0.2,4.5,0,6.7c0.1,1.6,0.5,3.4,1.2,4.7c0.4,0.7,1.7,0.6,2.6,0.9
		c0.2,0.1,0.5,0.1,0.7,0.3c1.7,1.2,2.8,0.3,3.9-1.3c2.1-2.9,4.2-6,6.6-8.6c1.9-2.1,4.4-3.5,6.5-5.3c1.3-1.2,2.5-2.7,3.5-3.8
		c2-1,3.9-2,5.9-3.1c0.5,3.3,1,6.1,1.3,8.9c0.3,2.7,0.4,5.5,0.8,8.2c0.2,1.5,0,3.5,1.8,4.2c0.1,0.1,0.2,0.8,0.1,1.3
		c0,1.6,4.2,4.9,5.4,4.3c0.1,0,0.1-0.1,0.2-0.1c1.4-0.9,1.7-0.7,1.8,1.2c5.7,1,8.9-4.2,12.9-7.3c-0.1-0.4-0.1-0.9-0.2-1.7
		c0.6,0.4,0.9,0.7,1.3,0.9c0-2.1,0.3-2.4,2.1-1.9c0,1-1.1,2.3,0.5,2.8c0,2.5,2.1,3.1,3.2,4.6c0.9,1.2,1.5,1.3,1.9,2.6
		c0.1,0.3,0.5,0.6,0.8,0.8c0.8,0.3,1.6,0.5,2.4,0.8c2,0.8,4,0.2,5.9,0.3c4.3,0.2,8.1-1.3,11.9-3.2c1.2-0.6,2.3-1.2,3.8-2
		c0,3.2,0.1,6.4,0,9.5c-0.1,2.9-0.5,5.8-0.7,8.7c-0.2,3.2-0.1,6.4-0.4,9.6c-0.2,2.2,0.2,4.4-0.4,6.6c-0.2,0.9,0.6,2.3,1,3.3
		c-0.2,0.4-0.5,1-0.6,1.6c-0.2,2-0.3,4.1-0.6,6.1c-0.3,2.4,0.3,5-0.7,7.4c-0.1,0.2,0.1,0.9,0.2,0.9c0.9,0.3,0.1,0.5,0.1,0.8
		c-0.2,1.7-0.4,3.4-0.6,5.3c-1-0.2-1,0.7-0.8,1.9c0.1,0.7,0.3,1.5,0.1,2c-0.9,2.2-1.5,4.4-0.2,6.6c-1.9,0.9-3.1,2.9-2.5,4.7
		c0.9,2.6-0.9,3.3-1.8,4.7c0-0.7,0-1.3,0-2.1c-1,0.3-1.9,0.5-2.9,0.8c1.1,2.5-1.9,1.7-2.1,3.2c-1-0.2-2-0.3-3-0.5c-1-0.4-2-1-3-1.6
		c-0.5-0.3-1.1-0.4-1.7-0.5c-0.6-0.1-1.4,0.1-1.8-0.2c-1.1-1.2-2.2-1.3-3.4-0.1c-0.4-2.2-3.8-4.7-6.2-4.7c0-0.4,0.2-1.1,0-1.3
		c-0.8-1-1.7-1.7-2.5-2.7c-0.5-0.7-0.5-1.8-1.7-2c-0.7-0.2-1.9-0.8-1.9-2.6c0-1.1-1.6-2.1-2.4-3.2c0.2,0,0.4-0.1,0.5-0.1
		C234.8,145.6,234.6,142.3,234.4,139z M145,37.6c0.2-0.5,0.6-1,0.4-1.3c-0.4-1-0.9-2.3-1.6-2.7c-1.2-0.6-2.7-0.9-4-0.8
		c-0.5,0.1-0.9,1.7-1.2,2.7c-0.7,2.4,0.1,5.1,1.8,6.2c-0.8,3.3,1.8,3.5,3.1,5.2c0.2-0.5,0.3-0.9,0.4-1.1c0.5,0.2,0.9,0.4,1.4,0.6
		c-1.1-3-1-5.7,0.6-8.3C145.5,37.8,145.2,37.6,145,37.6z"/>
	<path d="M93.8,97.5c-11,0-22.1,0-33.1,0c-0.1,0-0.2-0.1-0.4-0.2c0-25.5,0-51.1,0-76.8c11.2,0,22.4,0,33.7,0c0,4.2,0,8.4,0,12.9
		c-7.1,0-14.2,0-21.3,0c0,5.9,0,11.6,0,17.6c5.4,0,10.7,0,16.2,0c0,4.5,0,8.7,0,13.1c-5.4,0-10.8,0-16.2,0c0,6.8,0,13.4,0,20.2
		c7.4,0,14.8,0,22.3,0c0,3.5,0,6.7,0,9.6c1.2-0.1,2.1-0.2,3.3-0.2c4.1-0.3,6.9-1.1,11.3-2.2c3.2-1.1,6-2.1,8.7-3.9
		c2.3-1.5,4.6-3,6.7-4.9c5.1-4.5,9.4-10,12.6-16.6c0.9-1.8,1.1-4.1,1.4-6.3c0.2-1.5,0.3-3,1.9-3c2.7,0,3.8,1.2,3.6,3.4
		c-0.2,1.8-0.5,3.7-0.7,5.5c-0.5,5.6-2.3,11.1-1.3,16.7c0.5,3,1.2,6.3,3.7,8.7c1.4-2.6,2.7-5.1,4-7.6c2.6-4.9,5.4-9.6,9-13.6
		c2.7-3,5.3-6.3,8.3-8.9c2-1.7,4.5-2.4,6.8-3.6c1.3-0.7,2.5-1.6,3.8-2.2c1.4-0.7,2.8-1.3,4.3-1.8c3-1.1,5.7,0.6,8.4,1.7
		c0.9,0.3,1.7,1.5,2.1,2.6c0.4,1.1,0.2,2.5,0.3,3.8c0,0.3,0,0.7,0,1c0.1,3.2,0.2,6.4,0.3,9.6c0,0.7,0.1,1.4,0.1,2.4
		c1.9-2.1,3.5-3.9,5.2-5.6c1.4-1.4,3-2.7,4.5-4c2.3-2,4.4-4.3,6.9-5.8c2.6-1.6,5.4-4,8.6-2c1.6,1,4,0.8,4.8,3.4
		c0.2,0.7,0.5,1.4,0.5,2.1c0.1,1.3,0,2.6,0,4.2c0.1,0.1,0.6,0.3,1.1,0.5c-0.8,0.4-1.4,0.7-2.3,1.2c1.1,0,1.8,0,2.5,0
		c-0.2,1-0.3,1.9-0.5,2.9c0,0.3-0.3,0.7-0.2,0.7c1.3,1,0.8,2.5,1.1,4c0.2,1.1,0.9,2.1,0.4,3.4c-0.1,0.3,0.2,0.9,0.5,1.3
		c0.6,1,1.2,2,1.8,3.7c1.2-0.6,2.8-0.9,3.7-2c3.3-4.1,6.5-8.4,9.6-12.8c1.4-2,2.5-4.1,5-4.4c0.2,0,0.3-1,0.6-1.2
		c0.3-0.3,0.9-0.2,1.6-0.3c-0.6-0.6-1.1-1.2-1.5-1.7c1-1.5,2.2-2.9,4.4-2.4c-0.5-0.7-1.1-1.3-1.6-2c0.1-0.2,0.2-0.9,0.4-0.9
		c3.2-0.4,3.8-4.5,6.3-6c1.3-0.8,2.5-2.3,3.9-3.2c0.2-0.1,0.3-0.5,0.5-0.8c0.3-0.5,0.6-1.4,1-1.6c2.1-0.8,4.2-1.8,6.4-1.8
		c2,0,4,1.3,6.1,2c0.3,0.1,0.5,0.5,0.8,0.5c2.4-0.2,3.2,3.2,5.4,3.3c0.1,0,0.3,0.1,0.3,0.2c0.9,1.9,1.8,3.8,2.8,5.8
		c0.3-0.1,0.9-0.2,1.5-0.3c0,0.1,0.1,0.3,0.1,0.4c-0.4,0.3-0.8,0.6-1.3,1.1c0.8,0.5,1.4,0.8,2,1.2c-0.1,0.8-0.4,1.8-0.1,2.3
		c0.4,0.7-0.4,2.4,1.1,2c0.1,1.2,0.5,2.3,0.3,3.4c-0.1,0.4-1.2,0.7-1.8,1c-0.6-1.8-2.3-0.7-3-1.4c-0.8-0.8-1.2-2.3-1.7-3.6
		c-0.3-0.7-0.1-1.7-0.4-2.4c-1.4-3-1.9-6.7-4.3-9.1c-1.5-1.4-2.7-2.3-5.1-1.5c-8,2.5-12.8,9.1-17.1,16.7c-2.6,4.6-3.3,9.7-2.8,15
		c0.3,3.6,1.5,6.7,4.3,6.9c0.7,0.1,1.5-0.1,2.2-0.3c2-0.5,4.1-0.9,6-1.8c2.8-1.4,5.6-2.8,8-4.9s3.6-5.3,3.1-9.1
		c-0.2-1.3,3.1-3.1,4.3-2.4c1.1,0.7,2.2,1.4,3.3,2.1c1.5,1,2.3,2.8,1.7,4.7c-0.8,2.4-0.3,4.8-0.3,7.2c0,0.9-0.3,1.7-0.3,2.6
		c-0.1,1.7,0,3.5,0,5.3c-0.5,0.2-0.9,0.4-1.5,0.6c0.7,1.3,1.1,2.6,1,4.1c-0.1,0.6,0.5,1.2,0.6,1.8c0.1,1.1,0.1,2.3,0,3.4
		c0,0.4-0.2,0.9-0.1,1.3c0.4,2.4,0.5,4.7-0.1,7.2c-0.5,1.9,0.1,4.1,0.1,6.2c0,2.6-0.1,5.3-0.4,7.9c-0.1,0.7-1.1,1.3-1.8,1.7
		c-0.4,0.2-1,0-1.5,0c0,0.2,0,0.3,0,0.5c0.6,0,1.1,0.1,1.8,0.1c0.4,1.4,0.8,2.8,1.1,4.2c0.1,0.6-0.2,1.4-0.2,2.1
		c-0.2,0.7-0.3,1.3-0.5,2c-0.2,0.9-1.7,1.6-0.2,2.9c0.8,0.7-0.7,3.5-2.1,4.2c0.5,0,0.9,0.1,1.5,0.1c-1,1.2-2,2.1-1.5,4.1
		c0.2,0.8-0.8,2.1-1.2,3.1c0.8,0.4,1.3,0.7,1.9,0.9c0,0.2-0.1,0.4-0.1,0.6c-0.8-0.1-1.6-0.2-2.5-0.3c0.7,1.1,1.4,2.1,2.1,3.2
		c-0.4,0.4-0.8,0.6-1.1,0.9c1,1.7-0.7,4.7-3.8,6.3c0.9,0.5,1.4,0.8,2.2,1.1c-0.5,0.2-1,0.4-1.5,0.6c0.1,0.4,0.2,0.8,0.3,1.3
		c-0.4,0.1-0.8,0.2-1.2,0.3c0.5,0.3,1,0.5,1.9,1c-1.4,0.5-2.3,0.8-3.4,1.2c0.6,0.4,1.1,0.7,1.8,1.2c-1.7,1.6-3.2,3.1-4.7,4.5
		c-0.2,0.2-0.7-0.2-1.1-0.4c-0.5-0.2-1-0.5-1.6-0.3c0.3,0.5,0.7,1,1,1.5c-0.5,0.4-1,0.8-1.5,1.1c-2.7,1.6-5.4,1.8-8.4,0.7
		c-1.4-0.5-3.3,0.4-4.4-0.5c-1.9-1.5-4.2-1-6-2.5c-2.1-1.7-4.5-3-6.5-4.9c-2.1-2-3.8-4.4-5.8-6.6c-2.6-2.9-3.3-6.9-4.3-10.7
		c-0.6-2.1,0-4.6,0.1-6.9c0-0.5-0.1-1-0.2-1.4c1.1-0.2,2.1-0.4,3.2-0.6c0.2,3.3,0.4,6.6,0.5,9.9c-0.2,0-0.4,0.1-0.5,0.1
		c0.9,1.1,2.4,2.1,2.4,3.2c0.1,1.9,1.2,2.5,1.9,2.6c1.2,0.3,1.1,1.4,1.7,2c0.8,1,1.7,1.7,2.5,2.7c0.2,0.2,0,0.9,0,1.3
		c2.4,0,5.8,2.5,6.2,4.7c1.2-1.1,2.2-1.1,3.4,0.1c0.3,0.4,1.2,0.1,1.8,0.2c0.6,0.1,1.1,0.3,1.7,0.5c1,0.6,2,1.2,3,1.6
		c1,0.2,2,0.3,3,0.5c0.1-1.5,3.1-0.7,2.1-3.2c1-0.3,1.9-0.5,2.9-0.8c0,0.8,0,1.5,0,2.1c0.9-1.5,2.8-2.2,1.8-4.7
		c-0.7-1.8,0.5-3.8,2.5-4.7c-1.3-2.2-0.7-4.4,0.2-6.6c0.2-0.5,0-1.4-0.1-2c-0.2-1.2-0.2-2.2,0.8-1.9c0.2-1.8,0.3-3.6,0.6-5.3
		c0-0.3,0.9-0.6-0.1-0.8c-0.1,0-0.3-0.7-0.2-0.9c1.1-2.4,0.4-4.9,0.7-7.4c0.3-2,0.3-4.1,0.6-6.1c0.1-0.6,0.4-1.2,0.6-1.6
		c-0.3-1.1-1.2-2.4-1-3.3c0.6-2.2,0.2-4.4,0.4-6.6c0.3-3.2,0.2-6.4,0.4-9.6c0.2-2.9,0.6-5.8,0.7-8.7c0.1-3.1,0-6.3,0-9.5
		c-1.5,0.8-2.6,1.4-3.8,2c-3.8,1.9-7.6,3.4-11.9,3.2c-2-0.1-4,0.4-5.9-0.3c-0.8-0.3-1.6-0.5-2.4-0.8c-0.3-0.1-0.7-0.4-0.8-0.8
		c-0.4-1.3-1-1.4-1.9-2.6c-1.1-1.5-3.2-2-3.2-4.6c-1.6-0.5-0.5-1.8-0.5-2.8c-1.8-0.6-2.1-0.3-2.1,1.9c-0.4-0.3-0.7-0.5-1.3-0.9
		c0.1,0.8,0.2,1.3,0.2,1.7c-4,3.2-7.2,8.3-12.9,7.3c-0.1-1.9-0.4-2.1-1.8-1.2c-0.1,0-0.1,0.1-0.2,0.1c-1.2,0.6-5.4-2.7-5.4-4.3
		c0-0.4,0-1.2-0.1-1.3c-1.8-0.7-1.6-2.6-1.8-4.2c-0.4-2.7-0.5-5.5-0.8-8.2c-0.3-2.8-0.8-5.6-1.3-8.9c-2,1-3.9,2-5.9,3.1
		c-1,1.1-2.1,2.6-3.5,3.8c-2.1,1.9-4.6,3.3-6.5,5.3c-2.4,2.6-4.4,5.6-6.6,8.6c-1.1,1.6-2.3,2.5-3.9,1.3c-0.2-0.1-0.4-0.2-0.7-0.3
		c-0.9-0.3-2.3-0.2-2.6-0.9c-0.7-1.4-1.1-3.1-1.2-4.7c-0.2-2.2-0.1-4.4,0-6.7c0-1,0.4-2,0.4-3c-0.1-3.3-0.2-6.6-0.4-10.7
		c-2.5,0.9-4.9,1.4-6.9,2.5c-3.4,1.8-6.6,3.9-9.8,6.2c-2.1,1.5-4.3,3.3-6,5.4c-2.6,3.4-4.9,7.1-7.3,10.8c-1.7,2.6-3.2,5.4-4.8,8.1
		c-0.8,1.3-1.5,2.7-2.4,4c-0.8,1.1-1.6,1.2-3,0.8c-3-0.7-5-2.8-7-5.2c-0.2-0.3-0.1-0.9-0.2-1.2c-2-3.8-2.7-7.9-2.6-12.7
		c-1.7,1.7-3.2,3.4-4.8,4.8c-2.8,2.5-5.5,5-8.5,7.1c-6.1,4.2-12.3,7.2-19.9,8"/>
	<path d="M145,37.6c0.1,0.1,0.4,0.2,1,0.5c-1.6,2.6-1.7,5.2-0.6,8.3c-0.5-0.2-1-0.4-1.4-0.6c-0.1,0.3-0.2,0.6-0.4,1.1
		c-1.3-1.6-3.9-1.9-3.1-5.2c-1.7-1.1-2.5-3.8-1.8-6.2c0.3-1,0.7-2.7,1.2-2.7c1.3-0.1,2.8,0.1,4,0.8c0.7,0.4,1.2,1.7,1.6,2.7
		C145.6,36.5,145.2,37.1,145,37.6z"/>
	<g>
		<g>
			<path class="st1" d="M14.7,19.7h17.6c10.7,0,19,4.4,19,19.2c0,7-2.6,14.4-6.8,16.7v0.5c5.3,2.1,9.3,7.9,9.3,18.2
				c0,15.8-8.9,22.8-20.1,22.8h-19V19.7z M31.8,50.7c5.7,0,8.2-3.6,8.2-9.2c0-6-2.6-8.3-8.1-8.3h-5.5v17.5H31.8z M32.8,83.7
				c6.4,0,9.6-3.4,9.6-10.4c0-6.8-3.2-9.6-9.6-9.6h-6.5v20H32.8z"/>
		</g>
	</g>
</g>
<g>
	<path class="st2" d="M102.9,136.4c0.2-0.5,0.3-1,0.5-1.4c0.2-0.5,0.3-1,0.3-1.3c0.6,0.2,1.1,0.3,1.3,0.3c0.2,0.2,0.3,0.2,0.3,0.3
		c0,0.2-0.2,0.3-0.6,0.3c-0.5,0.8-1,1.3-1.3,1.7h4.8c0.3-0.3,0.6-0.5,0.6-0.5c0.2,0,0.3,0.2,0.6,0.5c0.2,0.2,0.3,0.3,0.3,0.3
		c0,0.2-0.2,0.3-0.5,0.5v3.8v7.5c0,0.3-0.2,0.5-0.6,0.5c-0.3,0-0.5-0.2-0.5-0.3v-0.8h-7.6v0.8c0,0.3-0.2,0.5-0.6,0.5
		c-0.3,0-0.5-0.2-0.5-0.3l0.2-7.3c0-3,0-4.9-0.2-5.5c0.5,0.2,1,0.5,1.3,0.6h2.2L102.9,136.4L102.9,136.4z M108.3,136.9h-7.6v3.2h7.6
		V136.9z M108.3,140.4h-7.6v3.2h7.6V140.4z M108.3,143.9h-7.6v3.5h7.6V143.9z"/>
	<path class="st2" d="M117.3,136.6c-0.2,0.3-0.3,0.6-0.5,1.1c0.6,0.2,1.3,0.3,1.6,0.6c0.3,0.3,0.5,0.5,0.5,0.8s-0.2,0.5-0.5,0.5
		c-0.2,0-0.3-0.2-0.5-0.3c-0.3-0.6-0.6-1.1-1.3-1.4c-0.3,0.5-0.6,1-1.1,1.4c0.6,0.2,1.1,0.5,1.4,0.8c0.3,0.3,0.5,0.6,0.5,1
		s-0.2,0.6-0.5,0.6c-0.2,0-0.3-0.2-0.5-0.3c-0.2-0.8-0.6-1.3-1.1-1.7c-0.5,0.5-1,1-1.6,1.4l0,0c-0.2,0-0.2,0-0.2-0.2l0,0
		c1.3-1.3,2.4-2.9,3.2-5.1c0.3-0.8,0.5-1.3,0.5-1.9c0.6,0.2,1.1,0.3,1.3,0.3s0.3,0.2,0.3,0.2c0,0.2-0.2,0.3-0.6,0.5
		c-0.2,0.5-0.3,1-0.5,1.3h2.5c0.3-0.3,0.5-0.5,0.6-0.5c0.2,0,0.3,0.2,0.6,0.5c0.2,0.2,0.3,0.3,0.3,0.3c0,0.2-0.2,0.2-0.5,0.3
		c-0.2,0.5-0.3,1.1-0.5,1.6h2.2c0.2-0.8,0.2-1.9,0.2-3c0-0.5,0-0.8,0-1.3c1.1,0.2,1.6,0.3,1.6,0.5c0,0.2-0.2,0.3-0.5,0.5
		c0,1.4-0.2,2.5-0.3,3.5h2.5c0.5-0.5,0.8-0.8,0.8-0.8c0.2,0,0.3,0.2,1,0.6c0.2,0.2,0.3,0.3,0.3,0.5c0,0.2,0,0.2-0.2,0.2h-4.3
		c0.5,1.3,1.1,2.4,1.9,3.2c0.8,0.8,1.7,1.3,2.7,1.7l0,0c0,0,0,0.2-0.2,0.2c-0.3,0-0.5,0.3-0.6,0.6c0,0.2-0.2,0.2-0.2,0.2
		c-0.2,0-0.2,0-0.3-0.2c-1-0.6-1.6-1.3-2.2-2.1c-0.6-1-1.3-2.1-1.6-3.5c-0.3,1.4-1,2.7-1.7,3.5c-0.8,0.8-1.7,1.4-3,2.1l0,0
		c-0.2,0-0.2,0-0.2-0.2l0,0c1.3-0.8,2.2-1.6,2.9-2.7c0.6-0.8,1-1.9,1.3-3h-2.5c-1.1,2.9-3.3,5.1-6.5,6.3l0,0c-0.2,0-0.2,0-0.2-0.2
		l0,0c3.5-1.9,5.5-4.8,6.3-8.4L117.3,136.6L117.3,136.6z M116.4,145.2L116.4,145.2c0.2,0,0.3,0,0.3,0c0,0.2,0,0.3,0,0.5
		c0,1-0.2,1.7-0.6,2.4c-0.3,0.5-0.8,0.8-1.1,0.8c-0.2,0-0.3,0-0.5-0.2c-0.2-0.2-0.2-0.3-0.2-0.5c0-0.3,0.2-0.5,0.6-0.8
		C115.6,147.1,116.2,146.3,116.4,145.2 M118.7,145.3L118.7,145.3C118.7,145.2,118.9,145.2,118.7,145.3c0.2-0.2,0.2-0.2,0.2-0.2
		c0.3,0.3,0.6,0.8,0.8,1.4c0.2,0.3,0.2,0.8,0.2,1.1c0,0.6-0.3,1-0.8,1c-0.3,0-0.5-0.2-0.5-0.5c0,0,0-0.2,0-0.3c0-0.2,0-0.2,0-0.3
		c0-0.3,0.2-0.6,0.2-1C119.1,146.3,118.9,145.8,118.7,145.3 M121.9,145.3C121.9,145.3,121.9,145.2,121.9,145.3
		C121.9,145.2,121.9,145.2,121.9,145.3c0.2-0.2,0.2-0.2,0.2-0.2c0.6,0.5,1,1,1.3,1.4c0.2,0.5,0.3,0.8,0.3,1.1s0,0.5-0.2,0.6
		c-0.2,0.2-0.3,0.2-0.5,0.2c-0.3,0-0.5-0.3-0.5-0.8C122.5,146.9,122.4,145.9,121.9,145.3 M124.9,135.5L124.9,135.5
		c0-0.2,0-0.2,0.2-0.2c0.6,0.2,1.1,0.3,1.6,0.6c0.3,0.3,0.5,0.6,0.5,0.8c0,0.5-0.2,0.6-0.5,0.6c-0.2,0-0.3-0.2-0.5-0.5
		C125.9,136.4,125.4,136,124.9,135.5 M125.2,145.2L125.2,145.2C125.2,145,125.2,145,125.2,145.2c0.2-0.2,0.2-0.2,0.2-0.2
		c0.8,0.5,1.4,1,1.9,1.4c0.3,0.5,0.6,1,0.6,1.3c0,0.3,0,0.5-0.2,0.6c-0.2,0.2-0.3,0.2-0.5,0.2c-0.2,0-0.3,0-0.5-0.2
		c-0.2-0.2-0.2-0.3-0.2-0.6C126.4,146.9,125.9,145.9,125.2,145.2"/>
	<path class="st2" d="M136.8,141.3c-0.5-0.2-0.6-0.6-0.8-1.4c0-0.8-0.2-1.9-0.2-3.5c0-0.3-0.2-0.5-0.2-0.6c-0.2-0.2-0.5-0.3-0.8-0.3
		c0,0-0.2,0-0.2-0.2c0-0.2,0.2-0.2,0.3-0.3c0.2,0,0.3-0.2,0.5-0.2c0.5,0,0.8,0.2,1.3,0.6c0.2,0.2,0.3,0.3,0.3,0.5
		c0,0.2,0,0.2-0.2,0.3c0,0.2-0.2,0.3-0.2,0.3c0,0.5,0,0.8,0,1.1c0,0.8,0,1.4,0.2,2.2c0,0.5,0.2,0.6,0.5,0.6l0,0c0.2,0,0.3,0,0.5-0.2
		c0.8-0.3,1.4-0.8,2.1-1.1c0.2-0.2,0.3-0.3,0.3-0.3c0-0.2-0.2-0.3-0.5-0.6c-0.2,0-0.2-0.2-0.2-0.2c0-0.2,0.2-0.2,0.3-0.2
		c0.5,0,0.8,0.2,1.3,0.6c0.3,0.3,0.5,0.6,0.5,0.8s-0.2,0.3-0.5,0.5c-1.7,0.6-2.9,1.1-3.5,1.4c-1.3,0.6-2.1,1.1-2.5,1.6
		c-0.6,0.5-1,1.1-1,1.7c0,1.1,1.1,1.7,3.2,1.7c1.4,0,2.4-0.2,3.2-0.3c0.2,0,0.5-0.2,0.5-0.2c0.3,0,0.5,0,0.8,0.2
		c0.2,0.2,0.3,0.3,0.3,0.5c0,0.2,0,0.3-0.2,0.3c-0.2,0-0.3,0.2-0.6,0.2c-0.8,0.2-1.7,0.2-3,0.2c-1.6,0-2.7-0.2-3.5-0.5
		c-0.8-0.5-1.3-1.1-1.3-2.1C133.5,143.7,134.6,142.5,136.8,141.3"/>
	<path class="st2" d="M153.3,141c0.6,0.2,1,0.3,1,0.5c0,0.2-0.2,0.2-0.6,0.3c-0.2,0.3-0.3,0.5-0.5,0.6h6.7c0.5-0.5,0.8-0.8,0.8-0.8
		c0.2,0,0.3,0.2,1,0.6c0.3,0.2,0.3,0.3,0.3,0.5c0,0.2,0,0.2-0.2,0.2h-5.4c0.6,0.6,1.4,1.1,2.4,1.6c1,0.5,2.2,0.8,3.5,1l0,0v0.2
		c-0.2,0-0.3,0.2-0.5,0.2c-0.2,0.2-0.2,0.3-0.3,0.5c0,0.2-0.2,0.2-0.3,0.2c-0.2,0-0.3,0-0.6-0.2c-0.8-0.3-1.6-0.6-2.4-1.1h-0.2v1.1
		v2.7c0,0.3-0.2,0.5-0.6,0.5c-0.3,0-0.5-0.2-0.5-0.3v-0.3h-6v0.3c0,0.3-0.2,0.5-0.6,0.5c-0.2,0-0.3,0-0.3-0.2c0,0-0.2-0.2-0.2-0.3
		v-2.9V145c-1,0.6-2.1,1.1-3.3,1.4l0,0c-0.2,0-0.2,0-0.2-0.2l0,0c1.9-0.8,3.5-1.9,4.8-3.3h-3.3c-0.3,0-0.6,0-1.1,0.2l-0.2-0.6
		c0.3,0,0.8,0.2,1.3,0.2h3.6c0.5-0.5,0.6-1,0.8-1.4h-2.4v0.2c0,0.3-0.2,0.5-0.6,0.5c-0.3,0-0.5-0.2-0.5-0.3v-2.4c0-1,0-1.7-0.2-2.2
		c0.5,0.2,0.8,0.3,1.3,0.6h7.5c0.3-0.3,0.5-0.5,0.6-0.5c0.2,0,0.3,0.2,0.6,0.5c0.2,0.2,0.3,0.3,0.3,0.3c0,0.2-0.2,0.3-0.5,0.5v0.8
		v2.4c0,0.3-0.2,0.5-0.6,0.5c-0.3,0-0.5-0.2-0.5-0.3v-0.2h-3.8L153.3,141L153.3,141z M151.7,135.3L151.7,135.3c0-0.6,0-1.1,0-1.6
		c0.8,0.2,1.3,0.2,1.4,0.2c0.2,0,0.2,0.2,0.2,0.2c0,0.2-0.2,0.2-0.5,0.3v0.8h3.2V135c0-0.5,0-1-0.2-1.4c0.6,0,1.1,0.2,1.4,0.2
		c0.2,0,0.3,0.2,0.3,0.2c0,0.2-0.2,0.3-0.5,0.3v0.8h3c0.5-0.5,0.8-0.8,0.8-0.8s0.3,0.2,1,0.6c0.3,0.2,0.3,0.3,0.3,0.5
		c0,0.2,0,0.2-0.2,0.2h-5.1v0.6c0,0.3-0.2,0.5-0.6,0.5c-0.3,0-0.5-0.2-0.5-0.3v-0.2c0-0.2,0-0.3,0-0.5h-3.2v0.6
		c0,0.3-0.2,0.5-0.6,0.5c-0.3,0-0.5-0.2-0.5-0.3v-0.2c0-0.2,0-0.3,0-0.5h-3.3c-0.5,0-0.8,0-1.1,0.2l-0.2-0.6c0.5,0,0.8,0.2,1.3,0.2
		h3.5V135.3z M158.2,137.7h-7.8v1.3h7.8V137.7z M158.2,139.3h-7.8v1.3h7.8V139.3z M151.2,144.2h6c-0.5-0.5-1-1-1.3-1.3h-3.2
		C152.3,143.4,151.9,143.7,151.2,144.2 M157.3,144.7h-6v1.4h6V144.7z M157.3,146.4h-6v1.6h6V146.4z"/>
	<path class="st2" d="M169.9,137.1L169.9,137.1c-0.5-0.3-0.8-0.6-1-1c-0.5-0.5-0.6-1-0.6-1.4l0,0c0-0.2,0-0.2,0.2-0.2
		c0,0,0.2,0,0.2,0.2c0.3,0.5,0.5,0.8,1,1.1c0.3,0.2,0.6,0.3,1.1,0.5c0.3,0.2,0.6,0.3,1,0.5c0.2,0.2,0.3,0.5,0.3,0.6
		c0,0.3-0.2,0.5-0.5,0.5c-0.2,0-0.3,0-0.5-0.2c-0.2,0-0.3-0.2-0.6-0.2c-0.3,0-0.8,0-1.1,0.2c-0.5,0.2-0.8,0.2-1.1,0.3
		c-0.2,0.2-0.3,0.2-0.3,0.3c0,0.2,0,0.3,0.2,0.5c0.2,0.2,0.2,0.5,0.2,0.6c0,0.2,0,0.5-0.2,1.3c-0.2,0.6-0.2,1.6-0.2,2.7
		c0,0.2,0,0.2,0,0.2h0.2c1.3-1,2.2-1.6,3-2.1s1.7-0.6,2.4-0.6c1,0,1.7,0.3,2.4,0.8c0.6,0.5,1,1.1,1,1.9c0,1.4-0.8,2.4-2.5,3.3
		c-1.3,0.6-3,1.1-5.2,1.1l0,0c-0.2,0-0.3,0-0.3-0.2c0-0.2,0.2-0.2,0.3-0.2c1.9-0.3,3.5-0.8,4.8-1.4c0.8-0.5,1.3-0.8,1.6-1.3
		c0.3-0.5,0.5-1,0.5-1.6c0-0.6-0.2-1.1-0.6-1.4c-0.3-0.3-0.8-0.5-1.4-0.5c-0.8,0-1.6,0.3-2.5,0.8c-0.6,0.5-1.3,1-1.9,1.6
		c-0.5,0.5-0.8,1-0.8,1.1c-0.2,0.3-0.3,0.3-0.5,0.3c-0.2,0-0.3-0.2-0.5-0.3c-0.2-0.2-0.2-0.5-0.2-1c0-1,0.2-2.1,0.5-3.8
		c0-0.3,0.2-0.6,0.2-1v-0.6c0-0.3,0.2-0.6,0.6-0.8C168.4,137.5,169.2,137.4,169.9,137.1"/>
	<path class="st2" d="M189.3,138.7c0,0.8,0,1.6,0,2.1v1c0.2,0.5,0.3,1,0.3,1.6c0,1.4-0.5,2.5-1.6,3.5c-0.8,0.8-1.9,1.3-3.2,1.6
		c-0.3,0-0.5,0.2-0.5,0.2c-0.2,0-0.2,0-0.2-0.2c0-0.2,0-0.2,0.2-0.2c1.1-0.5,2.1-1,2.9-1.7c0.8-0.6,1.3-1.6,1.4-2.4
		c-0.3,0.3-0.8,0.5-1.3,0.5s-1-0.2-1.3-0.5c-0.3-0.3-0.5-0.8-0.5-1.4c0-0.6,0.2-1.1,0.6-1.6c0.3-0.3,0.8-0.5,1.3-0.5s1,0.2,1.3,0.3
		v-2.2c-1.4,0.2-2.7,0.3-4.1,0.8c-0.6,0.2-1,0.3-1.3,0.5c-0.2,0.2-0.3,0.2-0.5,0.2c-0.3,0-0.6-0.2-1.1-0.5c-0.5-0.3-0.6-0.8-0.6-1.1
		c0-0.2,0-0.3,0.2-0.3c0,0,0.2,0,0.2,0.2c0.3,0.3,0.8,0.6,1.3,0.6c0.2,0,0.5,0,0.8-0.2c1.4-0.3,3-0.5,5.1-0.8c0-0.3,0-0.8,0-1.6
		c0-0.3,0-0.6-0.2-0.8c-0.2-0.3-0.5-0.5-1-0.3c-0.2,0-0.2,0-0.2-0.2c0-0.2,0-0.2,0.2-0.2c0.2-0.2,0.5-0.2,0.8-0.2
		c0.2,0,0.5,0.2,1,0.3c0.3,0.2,0.5,0.5,0.5,0.6c0,0.2,0,0.3-0.2,0.5c-0.2,0.2-0.2,0.3-0.2,0.6c0,0.5,0,1,0,1.3
		c0.8-0.2,1.7-0.2,2.9-0.2c0.5,0,0.8,0,1-0.2c0.2-0.2,0.3-0.2,0.5-0.2c0.3,0,0.6,0.2,1.1,0.3c0.3,0.2,0.5,0.3,0.5,0.5
		c0,0.3-0.2,0.3-0.5,0.3c-0.2,0-0.5,0-1-0.2c-0.8-0.2-1.4-0.2-2.1-0.2C190.9,138.5,190.1,138.5,189.3,138.7 M187.2,141
		c-0.3,0-0.6,0.2-0.8,0.5c-0.2,0.3-0.3,0.6-0.3,1.1c0,0.3,0.2,0.6,0.5,1c0.2,0.2,0.5,0.3,0.8,0.3s0.6-0.2,0.8-0.3
		c0.2-0.2,0.3-0.5,0.3-1c0-0.5-0.2-0.8-0.3-1.1C187.9,141.2,187.7,141,187.2,141"/>
	<path class="st2" d="M203.1,140.1c1,0.8,1.7,1.7,2.2,2.9c0.3,1,0.6,1.9,0.6,3c0,1-0.2,1.7-0.5,2.2c-0.2,0.3-0.5,0.5-0.8,0.6
		c-0.3,0.2-0.5,0.2-0.8,0.2c-0.2,0-0.2,0-0.2-0.2c0-0.3-0.2-0.5-0.5-0.6c-0.3-0.2-0.6-0.3-1.3-0.5c0,0,0,0,0-0.2
		c0-0.2,0-0.2,0.2-0.2c1,0.2,1.6,0.2,1.9,0.2s0.5-0.2,0.5-0.3c0.2-0.3,0.2-0.8,0.2-1.6c0-0.5,0-0.8,0-1.1c-1.9,1.6-4.4,2.7-7.5,3.3
		c0,0-0.2,0-0.2-0.2c0,0,0,0,0-0.2c2.9-1,5.4-2.4,7.3-4.3c-0.2-0.3-0.3-0.8-0.5-1.3c-1.9,1.4-4.1,2.4-6.5,2.9c0,0-0.2,0-0.2-0.2
		c0,0,0,0,0-0.2c2.4-0.8,4.4-2.1,6.2-3.5c-0.2-0.3-0.5-0.6-0.8-1c-1.3,1-3,1.6-5.2,2.1c-0.2,0-0.2,0-0.2-0.2l0,0
		c2.4-0.8,4.3-1.9,5.5-3.3h-2.5c-0.5,0-0.8,0-1.1,0.2l-0.2-0.6c0.5,0,0.8,0.2,1.3,0.2h7.5c0.5-0.6,0.8-0.8,0.8-0.8
		c0.2,0,0.3,0.2,1,0.6c0.3,0.2,0.3,0.3,0.3,0.5c0,0.2,0,0.2-0.2,0.2h-4.1c0.3,1.4,0.6,2.5,1.3,3.6c0.6-0.6,1.3-1.3,1.7-1.9
		c0.3-0.3,0.5-0.6,0.6-1c0.8,0.5,1.3,0.8,1.3,1c0,0.2-0.2,0.2-0.5,0.2h-0.2c-1,0.8-1.9,1.6-2.7,2.1c0.3,0.6,0.8,1.1,1.1,1.6
		c1.1,1.1,2.2,2.1,3.6,2.5l0,0c0,0,0,0.2-0.2,0.2c-0.2,0-0.3,0.2-0.3,0.2c-0.2,0.2-0.2,0.3-0.3,0.5c0,0.2-0.2,0.2-0.3,0.2
		c-0.2,0-0.3-0.2-0.5-0.3c-1.1-0.8-2.1-1.7-2.9-2.9c-1.1-1.6-1.7-3.5-2.2-5.9h-0.6C204,139.4,203.6,139.8,203.1,140.1 M199.3,136.1
		h4.8V135c0-0.3,0-0.6,0-1.1c0.8,0.2,1.3,0.2,1.4,0.2c0.2,0,0.3,0.2,0.3,0.2c0,0.2-0.2,0.3-0.6,0.5v1.3h4.9c0.3-0.5,0.6-0.6,0.6-0.6
		c0.2,0,0.5,0.2,1,0.6c0.2,0.2,0.3,0.3,0.3,0.5c0,0.2-0.2,0.3-0.6,0.3c-0.2,0-0.5,0-0.6,0.2c-0.3,0.3-0.6,0.6-1,0.8l0,0
		c0,0-0.2,0-0.2-0.2l0,0c0.2-0.5,0.3-1,0.5-1.3L199.3,136.1c0,0.8-0.2,1.3-0.5,1.7c-0.3,0.3-0.5,0.5-1,0.5c-0.3,0-0.6-0.2-0.6-0.6
		c0-0.3,0.2-0.5,0.5-0.6c0.8-0.5,1.3-1.1,1.3-2.1c0,0,0,0,0.2,0c0,0,0.2,0,0.2,0.2C199.3,135.5,199.3,135.8,199.3,136.1"/>
</g>
</svg>
