<?xml version="1.0" encoding="utf-8"?>
<!-- Generator: Adobe Illustrator 24.1.3, SVG Export Plug-In . SVG Version: 6.00 Build 0)  -->
<svg version="1.1" id="レイヤー_1" xmlns="http://www.w3.org/2000/svg" xmlns:xlink="http://www.w3.org/1999/xlink" x="0px"
	 y="0px" viewBox="0 0 300 300" style="enable-background:new 0 0 300 300;" xml:space="preserve">
<style type="text/css">
	.st0{fill:#C30D23;}
	.st1{fill:#FFFFFF;}
</style>
<g>
	<rect x="10" y="10" class="st0" width="280" height="280"/>
	<circle class="st1" cx="150" cy="150.9" r="112.1"/>
	<g>
		<g>
			<g>
				<g>
					<g>
						<g>
							<g>
								<path class="st0" d="M144.3,128.2C144.3,128.1,144.3,128.1,144.3,128.2L144.3,128.2z"/>
								<path class="st0" d="M145.4,172C145.4,172.1,145.4,172.1,145.4,172c0.2,0.1,0.3,0.1,0.4,0.1L145.4,172z"/>
								<path class="st0" d="M144.5,179.1C144.5,179.1,144.4,179.1,144.5,179.1C144.5,179.1,144.6,179.1,144.5,179.1z"/>
								<path class="st0" d="M144,155.8c0-0.1,0-0.1-0.1-0.1C144,155.7,144,155.7,144,155.8z"/>
								<path class="st0" d="M143.5,115.3C143.5,115.3,143.5,115.3,143.5,115.3c0,0,0.1,0,0.1,0L143.5,115.3z"/>
								<path class="st0" d="M143.8,115.4c-0.1,0.2-0.2,0-0.2-0.1c-0.2,0.2-0.2,0.3-0.1,0.5C143.6,115.8,143.6,115.5,143.8,115.4z"
									/>
								<path class="st0" d="M142.9,91.8L142.9,91.8C142.9,91.8,142.9,91.8,142.9,91.8z"/>
								<path class="st0" d="M132.6,156.5c0,0,0-0.1-0.1-0.1C132.5,156.4,132.5,156.5,132.6,156.5z"/>
								<path class="st0" d="M142.6,95.5l0.4,0C142.8,95.5,142.7,95.5,142.6,95.5z"/>
								<path class="st0" d="M145.8,172.2l0.1,0.1C145.9,172.2,145.9,172.2,145.8,172.2z"/>
								<path class="st0" d="M144.2,185.6c-0.1,0-0.2,0-0.3,0c0,0,0,0,0,0L144.2,185.6z"/>
								<path class="st0" d="M138.4,218.5c0,0,0.1,0,0.1,0l-0.3-0.1C138.3,218.4,138.3,218.4,138.4,218.5z"/>
								<path class="st0" d="M142.6,194.5c0,0,0.1,0,0.1,0c0.1-0.2,0.2-0.6,0.1-1.1l-0.5,0L142.6,194.5z"/>
								<path class="st0" d="M132.1,204.3l0.9-1c0.4,3.1-0.5,4.5,0.2,7.1l-0.2-0.1c-0.2,0.4,1.8,0.6-0.7,4.8h-0.1
									c0,0.1,0.2,0.1,0,0.4l0.6-0.7c0.2,0.4,0.7,0.8,0.7,1.4c-0.1,0.1-0.3,0.2-0.4,0.2l0.2,1.4l-0.6,0.4c0.3,0.4,1.6,0.2,0.9,1.4
									c0.9-0.4,0.5,0.6,1,0.4c-0.1,0.1-0.3,0.2-0.4,0.3c0.1,0.7,0.3,2,0.8,2.3c0,0,1.8-2.7,2.7-3.4c-0.2,1,0.1,0.3,0.4,0.1
									l-0.2-0.1c0.2-0.6,0.8-0.6,0.9-0.9c0,0-0.1,0-0.2,0l0.1,0c-0.1,0-0.2,0-0.2,0c-0.1,0-0.2,0-0.2-0.2l0.1,0
									c-0.1-0.2,0-0.7,0-0.8l0.5,0c-0.9-0.4,1.3-2.9,1.4-3.5c0.6-0.6-0.1-1.3,0.1-2c0.1-1.2,0.7-0.6,1.1-1.2
									c0.3-0.7-0.5,0.1-0.6-0.1l0.6-0.9c0.1,0.5,0.3,0.2,0.5,0.1c0.1-0.8,0.9-1.9,0-2.2c0.4-1,0.8-1,0.8-1.5
									c-0.2,0.1-0.3,0.4-0.5,0.4c0.4-0.4-0.1-0.2-0.2,0c-0.4-0.6,1.7-3.2,0.7-3.4h0.2c-0.7-0.1-1.5,0.1-1.9-0.3l0.3-0.3l-0.3-0.4
									c0.2-0.3,0.4-0.1,0.5-0.1c-0.3-0.7,0.1-1.7,0.2-2.6l-2,0.9c0.5-0.7,1.4-2,0.8-2.2l0.7-0.4c1.3-1.5-0.6-1-0.2-1.6l0.7-0.7
									l0,0.7c0.4-0.7,0.6-1,1.1-1.6c0,0,0,0,0,0c0,0-0.1,0.1-0.1,0.1l0-0.1c-0.4-0.1-0.6-0.5-0.6-1c0.1-0.7-0.4-1.3,0.3-2.5
									l-0.8-0.3l0.5-0.9h0.6c0,0.9,0.2,2.5,0.2,3.6l0.3,0c0-0.7-0.3-1.4-0.2-1.8c0.1-0.2,0.7-0.7,1.2-0.4l-0.6-0.4
									c-0.1-2.2-0.1-2.2,0.6-4.5l-0.3,0.2c-0.2-0.5-0.4-0.9,0.1-1c0.1-1.4,0.5-2.8,1.2-3.7l-0.7-0.2c0-0.3,1.1-0.7,0.1-0.9
									l-0.3-0.6c0.1-0.4-0.4-0.6,0.1-1.1c0,0,0,0,0,0c0,0,0,0,0,0c0,0,0.1-0.1,0.1-0.1c0,0,0,0-0.1,0c0.3-0.9-0.6,0-0.2-1
									c0.5-0.3-0.9-0.4-0.7-0.9l1-0.5c0.6-0.9-0.4-1.1-0.4-2.4c0.4-0.6,1.2-0.9,2-0.5c-0.9-0.6-0.6-0.3-1.1-1
									c0.4-0.1,0.5,0,0.8,0.1c0.5-0.7-0.3-0.4-0.3-0.9c-0.7-0.1-1.9-0.3-1.9-0.5l-0.2,0.2c-0.4-0.5-0.6-1.1-0.2-1.7l0.4,0
									l-0.2-0.7l0.5,0l-0.1-0.9l-0.1,0.1c-0.1-0.2-0.2-1,0-1.4l0.3,0c0.8-1.2-0.3-2.2-0.3-3.5l0.5,0.2c0.5-0.5-0.8-0.1-0.6-0.7
									l0.6,0c-0.9-0.5,0.2-0.6,0.5-1l-0.8,0.2l0.2-0.6c0.3-0.7,1.1-0.4,1.5-0.3l-0.7-0.5l0.7-0.1c-0.9-0.4,0.1-0.4-0.3-1
									c0.3-0.1,0.4,0.1,0.6-0.1l-1.1-1l0.5,0.6l-1.1-0.1c-0.8-0.6,0.1-0.9-0.2-1.3l0.3,0.3c-0.3-0.7,0.2-0.8,0.4-1.2
									c-0.2,0.1-0.5,0.3-0.6,0c-0.1-0.2,0.4-0.1,0.5-0.3c-0.7,0-1.1-0.6-0.8-1.1c0.1,0,0.2,0,0.3,0c-0.1-0.1-0.3-0.2-0.1-0.4
									l0.8,0.1l-0.8-0.4c0.2-0.3-0.4-0.7,0.2-0.6l0.2,0.2l0.2-2.1l0.6,0c-0.9-0.2,0.3-1.1-0.8-1.1c0.6-0.4-0.4-1.6,0.8-1.3
									c0.1-1.4-1.1-2.1-0.5-3.8c1.1-0.6,0.7-2.2,0.8-3.3c-0.4-2.1-0.8-3.4-1.2-5.6c1.5-1.3-0.5-3.2,0.3-4.6l-0.6-0.4
									c0.9-0.9-0.2-2.3,0.7-3.6c-0.3-0.3-0.3-0.5-0.4-0.6c0,0.1-0.1,0.1-0.5,0.2c0.3-0.4-0.1-1.1,0.7-1.1l0.1,0.1
									c0.8,0.1-0.4-1.1,0.3-1.5l-0.8,0.2l0.1-0.7l0.2,0.2c-1.8-3,0.8-4.4-0.9-7.3c0.9,0.4-0.5-0.6,0.5-0.6
									c1.2-0.7-0.3-1.3-0.6-1.9c0,0-0.1,0-0.2,0l0.1-1c1.2,0.6-1-0.7,0-0.2c0.9-2.7,0-6.2,0.4-9.3l-0.3,0.1
									c0.1-0.8-0.3-1.8,0.2-2.4c0.5-0.6-0.8-1.3-0.8-1.5c-0.5-0.7,0.5-1.3,0.5-1c-0.1-0.7-1.3-1.4-0.8-2.3c1-0.3-1-2.7,0.1-2.7
									l-0.1,0c0.8-1.2-0.6-2.4,0.2-3.8c0,0,0.1,0,0.2,0.1l-3.5-2.7l-3.9,0.8l-3.1,2.4l0.7,6.4l-1.2,5.1l0.4,12.5l0.9,0.9
									c-1.5,2.4,0.2,5.6-0.9,8.2l0.8,0.1c0,0.7-0.4,0.7-0.6,0.9c0.2,6.9,1.2,14,0.2,20.3c-0.5,0.6-0.2,2.4-0.7,2.9
									c0.9,2,0.9,4.2,0.8,6.2l-0.1-0.1l0.1,1c-0.1,0-0.2,0-0.2,0c0.7,1.1,0,2.8-0.3,4.1l-0.1-0.1c-0.1,7.7,1.3,14.8,0.2,22.4
									c-1.2,3.5,0.5,7.7-0.6,11.7C131.1,195.4,131.7,203.6,132.1,204.3z"/>
								<path class="st0" d="M133.1,216.4L133.1,216.4C132.7,216.4,132.9,216.4,133.1,216.4z"/>
								<path class="st0" d="M141.7,199.4C141.7,199.5,141.7,199.5,141.7,199.4l0.4-0.1L141.7,199.4z"/>
								<path class="st0" d="M142,210.3c0.1-0.5,0-0.5-0.1-0.4C141.8,210.1,141.9,210.2,142,210.3z"/>
								<path class="st0" d="M133.7,220.4c0,0.3,0.2,0.2,0.4,0c0-0.3-0.1-0.4-0.1-0.4C133.9,220.1,133.7,220.3,133.7,220.4z"/>
								<path class="st0" d="M138,219.4l0.3,0.1C138.2,219.3,138.1,219.3,138,219.4z"/>
							</g>
						</g>
					</g>
				</g>
			</g>
			<g>
				<g>
					<g>
						<g>
							<g>
								<path class="st0" d="M100,185.3C99.9,185.3,100,185.4,100,185.3L100,185.3z"/>
								<path class="st0" d="M115.4,169C115.4,169,115.4,169,115.4,169c-0.1-0.1-0.2-0.2-0.2-0.3L115.4,169z"/>
								<path class="st0" d="M118.7,167.2C118.7,167.2,118.7,167.2,118.7,167.2C118.7,167.2,118.6,167.1,118.7,167.2z"/>
								<path class="st0" d="M110.4,175.8C110.4,175.8,110.4,175.9,110.4,175.8C110.4,175.9,110.4,175.8,110.4,175.8z"/>
								<path class="st0" d="M95.8,190.5C95.8,190.5,95.8,190.5,95.8,190.5C95.7,190.5,95.7,190.5,95.8,190.5L95.8,190.5z"/>
								<path class="st0" d="M95.6,190.3c0.1,0,0.1,0.2,0.1,0.2c0.2,0.1,0.3,0,0.3-0.1C95.9,190.2,95.8,190.4,95.6,190.3z"/>
								<path class="st0" d="M87.5,199.3L87.5,199.3C87.5,199.2,87.5,199.2,87.5,199.3z"/>
								<path class="st0" d="M118.5,183.8C118.6,183.8,118.5,183.9,118.5,183.8C118.6,183.9,118.6,183.9,118.5,183.8z"/>
								<path class="st0" d="M89.1,198.1l-0.2-0.3C88.9,198,89,198,89.1,198.1z"/>
								<path class="st0" d="M115.2,168.7l-0.1-0.1C115.2,168.6,115.2,168.7,115.2,168.7z"/>
								<path class="st0" d="M121.3,165.1c0.1,0.1,0.1,0.1,0.2,0.2c0,0,0,0,0,0L121.3,165.1z"/>
								<path class="st0" d="M137.5,157.7c0,0-0.1-0.1-0.1-0.1l0.1,0.2C137.5,157.8,137.5,157.8,137.5,157.7z"/>
								<path class="st0" d="M125.7,163.1c0,0,0-0.1-0.1-0.1c-0.1,0-0.3,0.1-0.5,0.3l0.3,0.3L125.7,163.1z"/>
								<path class="st0" d="M136.6,167.3l-1-0.3c0.8-1.4,2-1.2,2.5-2.7l0.1,0.2c0.3,0-1-1.5,2.2-1.2l0.1,0.1c0-0.1-0.1-0.2,0.2-0.1
									L140,163c0-0.3-0.2-0.8,0-1c0.1,0,0.3,0.1,0.4,0.3l0.4-0.6l0.6,0.3c-0.1-0.4-1-1.2-0.1-1.1c-0.8-0.5-0.1-0.6-0.5-0.8
									c0.1,0.1,0.3,0.1,0.4,0.2c0.2-0.3,0.5-1,0.3-1.4c0,0-2.3-0.4-3.2-0.8c0.5-0.2,0-0.2-0.2-0.3l0.1,0.2c-0.4,0.1-0.7-0.3-1-0.3
									c0,0,0.1,0.1,0.1,0.1l0-0.1c0.1,0.1,0.1,0.1,0.1,0.2c0.1,0.1,0.1,0.2,0.1,0.2l0-0.1c0,0.1-0.3,0.2-0.3,0.3l-0.3-0.3
									c0.4,0.8-2,0.1-2.2,0.3c-0.6-0.2-0.4,0.6-0.9,0.6c-0.5,0.3-0.7-0.3-1.2-0.4c-0.5,0.1,0.4,0.3,0.3,0.5l-0.8-0.1
									c0.2-0.2-0.1-0.3-0.3-0.4c-0.3,0.2-1.3,0-0.8,0.8c-0.7,0-0.9-0.2-1.1-0.1c0.2,0.1,0.4,0.1,0.5,0.2c-0.4-0.1,0,0.1,0.1,0.1
									c0,0.5-2.3-0.1-1.7,0.7l-0.1-0.1c0.5,0.6,1,1,1.2,1.5l-0.3-0.1l0.1,0.4c-0.3-0.1-0.4-0.3-0.4-0.3c0,0.5-0.7,0.6-1.1,0.8
									l1.7,1.1c-0.6-0.1-1.7-0.3-1.3,0.2l-0.6-0.3c-1.4-0.4,0,0.8-0.5,0.7l-0.8-0.3l0.3-0.2c-0.5,0-0.8-0.1-1.4-0.2c0,0,0,0,0,0
									c0,0,0.1,0,0.1,0.1l0,0c0.2,0.3,0.3,0.6,0.1,0.8c-0.3,0.2-0.2,0.8-1.1,0.6l0.4,0.7l-0.6,0l-0.4-0.4c0.3-0.3,0.8-1,1.2-1.4
									l-0.2-0.2c-0.2,0.2-0.3,0.7-0.5,0.8c-0.2,0-0.8-0.3-0.9-0.7l0.3,0.6c-0.8,0.8-0.7,0.8-2.1,1.2l0.3,0.1
									c0,0.3-0.1,0.6-0.5,0.3c-0.6,0.4-1.4,0.6-2.2,0.4l0.4,0.6c-0.1,0.1-1-0.5-0.4,0.2l0,0.4c-0.2,0.1,0,0.5-0.4,0.3c0,0,0,0,0,0
									c0,0,0,0,0,0c0,0-0.1,0-0.1,0c0,0,0,0,0,0c-0.5,0.1,0.4,0.5-0.2,0.5c-0.5-0.2,0.5,0.8,0.2,0.8l-0.9-0.6
									c-0.7-0.1-0.1,0.7-0.6,1.2c-0.5,0-1.2-0.6-1.6-1.3c0.4,0.9,0.3,0.5,0.4,1.1c-0.3-0.2-0.3-0.3-0.5-0.6
									c-0.6-0.1,0.1,0.4-0.1,0.6c0.4,0.6,1.2,1.5,1.2,1.6l0.2,0.1c0.1,0.5,0,0.8-0.5,0.8l-0.2-0.3l-0.1,0.4l-0.3-0.3l-0.3,0.4
									l0.1,0c0,0.1-0.2,0.5-0.5,0.5l-0.2-0.2c-1-0.2-0.6,0.9-1.1,1.5l-0.3-0.4c-0.5-0.2,0.5,0.6,0.1,0.6l-0.5-0.5
									c0.4,0.8-0.4,0.1-0.7,0l0.6,0.6l-0.4,0.1c-0.5,0-0.9-0.6-1.2-1l0.3,0.7l-0.6-0.5c0.5,0.8-0.2,0-0.1,0.6
									c-0.2-0.2-0.3-0.4-0.4-0.4l0.4,1.1l-0.1-0.6l0.7,0.8c0.3,0.8-0.4,0.2-0.4,0.6l-0.1-0.3c-0.1,0.5-0.4,0.1-0.8,0.1
									c0.2,0.1,0.5,0.2,0.5,0.5c0,0.1-0.3-0.2-0.5-0.2c0.5,0.5,0.6,1,0.1,0.9c-0.1-0.1-0.1-0.2-0.2-0.2c0,0.1,0.1,0.3-0.1,0.2
									l-0.5-0.6l0.4,0.7c-0.3-0.1,0,0.5-0.4,0.1l-0.1-0.2l-0.9,0.6l-0.5-0.5c0.5,0.7-0.7,0.2,0.1,0.9c-0.6-0.3-0.3,0.9-1.1-0.1
									c-0.6,0.4,0,1.6-1.1,1.7c-1-0.6-1.3,0.3-1.8,0.6c-0.5,1.1-0.7,1.8-1.2,2.8c-1.5-0.6-0.8,1.5-1.9,1.4l0.3,0.6
									c-1-0.4-0.7,1-1.8,0.8c0.1,0.3,0.1,0.4,0,0.5c0,0,0.2,0,0.4,0.3c-0.3-0.1-0.4,0.4-0.9-0.1l0-0.1c-0.5-0.6-0.2,0.6-0.8,0.3
									l0.6,0.5l-0.4,0.1l0-0.2c0.1,2.4-2.2,1-2.1,3.2c-0.5-0.8,0.1,0.5-0.6-0.1c-1.1-0.6-0.3,0.7-0.3,1.1c0,0,0.1,0.1,0.1,0.1
									l-0.5,0.3c-0.6-1.1,0.4,1-0.1,0c-1.6,0.3-2.3,2.2-3.7,3l0.3,0.2c-0.3,0.2-0.4,0.9-1,0.7c-0.6-0.1,0.1,1,0,1.2
									c0.1,0.6-0.8,0.1-0.7,0c-0.2,0.4,0.4,1.4-0.3,1.4c-0.8-0.6-0.3,1.7-1.1,0.8l0.1,0.1c-1-0.1-0.5,1.3-1.5,1.2
									c0,0,0-0.1-0.1-0.1l1.4,3.5l3,2.5l3,1.4l1.9-2.8l2.7-0.9l4.3-4.7l-0.3-0.9c2,0.2,1.9-2.1,3.6-2.3l-0.5-0.6
									c0.2-0.3,0.5,0.1,0.7,0.1c2.4-2.6,4.4-5.8,7.3-7.3c0.6,0.1,1-0.7,1.6-0.5c0.1-1.4,0.9-2.1,1.7-2.8l0,0.1l0.3-0.4
									c0.1,0,0.1,0.1,0.1,0.1c-0.1-0.9,1-1,1.7-1.3l0,0.1c2.9-2.6,4.6-6.2,8.1-8.1c2.2-0.4,2.5-3,4.7-3.7
									C133.9,171.1,136.6,167.8,136.6,167.3z"/>
								<path class="st0" d="M140.4,162.3L140.4,162.3C140.6,162.5,140.5,162.4,140.4,162.3z"/>
								<path class="st0" d="M128.1,162C128.1,162,128.1,162,128.1,162l-0.4-0.3L128.1,162z"/>
								<path class="st0" d="M132,158c-0.2,0.1-0.2,0.2-0.1,0.2C132,158.2,132,158.1,132,158z"/>
								<path class="st0" d="M141.4,160.4c0.1-0.1-0.1-0.2-0.3-0.3c-0.1,0.1-0.1,0.2-0.1,0.2C141.2,160.4,141.3,160.4,141.4,160.4z"
									/>
								<path class="st0" d="M138.1,157.7l-0.1-0.2C137.9,157.6,138,157.6,138.1,157.7z"/>
							</g>
						</g>
					</g>
				</g>
			</g>
			<g>
				<g>
					<g>
						<g>
							<g>
								<path class="st0" d="M107.6,118.5C107.6,118.4,107.6,118.5,107.6,118.5L107.6,118.5z"/>
								<path class="st0" d="M124.6,133.2C124.6,133.2,124.6,133.2,124.6,133.2c0.1-0.1,0.2-0.2,0.3-0.2L124.6,133.2z"/>
								<path class="st0" d="M126.6,136.4C126.6,136.4,126.6,136.4,126.6,136.4C126.6,136.3,126.7,136.3,126.6,136.4z"/>
								<path class="st0" d="M117.6,128.5C117.6,128.4,117.6,128.4,117.6,128.5C117.6,128.5,117.6,128.4,117.6,128.5z"/>
								<path class="st0" d="M102.3,114.5C102.3,114.5,102.3,114.5,102.3,114.5C102.3,114.5,102.3,114.4,102.3,114.5L102.3,114.5z"
									/>
								<path class="st0" d="M102.5,114.3c0,0.1-0.2,0.1-0.2,0.1c-0.1,0.2,0,0.3,0.1,0.3C102.6,114.6,102.4,114.5,102.5,114.3z"/>
								<path class="st0" d="M93.2,106.7L93.2,106.7C93.2,106.6,93.2,106.6,93.2,106.7z"/>
								<path class="st0" d="M110,137C110,137,109.9,137,110,137C109.9,137,109.9,137,110,137z"/>
								<path class="st0" d="M94.4,108.1l0.3-0.3C94.5,108,94.5,108.1,94.4,108.1z"/>
								<path class="st0" d="M124.9,133l0.1-0.1C125,132.9,125,132.9,124.9,133z"/>
								<path class="st0" d="M128.8,138.8c-0.1,0.1-0.1,0.2-0.2,0.2c0,0,0,0,0,0L128.8,138.8z"/>
								<path class="st0" d="M136.9,154.7c0,0,0.1-0.1,0.1-0.1l-0.2,0.1C136.8,154.7,136.8,154.7,136.9,154.7z"/>
								<path class="st0" d="M131,143.2c0,0,0.1,0,0.1-0.1c0-0.1-0.1-0.3-0.3-0.5l-0.3,0.3L131,143.2z"/>
								<path class="st0" d="M127.3,154.2l0.3-1c1.4,0.8,1.3,1.9,2.8,2.3l-0.2,0.1c0,0.3,1.5-1.1,1.3,2.2l-0.1,0.1
									c0.1,0,0.2-0.1,0.1,0.2l0.1-0.7c0.3,0,0.8-0.2,1,0c0,0.1-0.1,0.3-0.2,0.4l0.6,0.4l-0.2,0.6c0.4-0.1,1.2-1,1.1-0.1
									c0.4-0.8,0.6-0.2,0.8-0.5c-0.1,0.1-0.1,0.3-0.2,0.4c0.3,0.2,1,0.5,1.4,0.3c0,0,0.3-2.3,0.6-3.2c0.2,0.5,0.2,0,0.3-0.3
									l-0.2,0.1c-0.1-0.4,0.3-0.8,0.3-1c0,0-0.1,0.1-0.1,0.1l0.1,0c-0.1,0.1-0.1,0.1-0.2,0.1c-0.1,0.1-0.2,0.1-0.2,0.1l0.1,0
									c-0.1,0-0.2-0.2-0.3-0.3l0.3-0.3c-0.8,0.5-0.2-2-0.4-2.2c0.2-0.6-0.6-0.4-0.7-0.8c-0.3-0.5,0.2-0.7,0.3-1.2
									c-0.1-0.5-0.3,0.4-0.4,0.4l0.1-0.8c0.2,0.1,0.3-0.2,0.4-0.3c-0.2-0.3-0.1-1.3-0.8-0.8c-0.1-0.7,0.2-0.9,0-1.1
									c-0.1,0.2-0.1,0.4-0.2,0.5c0.1-0.4-0.1,0-0.1,0.1c-0.5,0.1-0.1-2.3-0.8-1.7l0.1-0.1c-0.6,0.5-1,1.1-1.4,1.2l0.1-0.3
									l-0.4,0.1c0.1-0.3,0.2-0.4,0.3-0.4c-0.5,0-0.6-0.7-0.8-1l-1.1,1.8c0.1-0.6,0.2-1.7-0.3-1.3l0.3-0.6c0.4-1.5-0.8,0-0.7-0.4
									l0.2-0.8l0.3,0.3c0-0.5,0-0.8,0.2-1.4c0,0,0,0,0,0c0,0,0,0.1,0,0.1l-0.1,0c-0.3,0.2-0.6,0.3-0.8,0.1
									c-0.2-0.3-0.8-0.1-0.7-1.1l-0.6,0.4l0-0.6l0.4-0.4c0.3,0.3,1,0.7,1.5,1.1l0.2-0.2c-0.2-0.2-0.7-0.3-0.8-0.5
									c0-0.2,0.2-0.8,0.7-1l-0.6,0.3c-0.9-0.7-0.9-0.7-1.2-2l-0.1,0.3c-0.3,0-0.6-0.1-0.3-0.5c-0.4-0.6-0.7-1.3-0.5-2.2l-0.6,0.4
									c-0.1-0.1,0.5-1.1-0.2-0.4l-0.4,0c-0.1-0.2-0.5,0-0.4-0.4c0,0,0,0,0,0c0,0,0,0,0,0c0,0,0-0.1,0-0.1c0,0,0,0,0,0
									c-0.1-0.5-0.4,0.5-0.5-0.2c0.2-0.5-0.8,0.5-0.8,0.2l0.5-0.9c0.1-0.7-0.7-0.1-1.2-0.5c0-0.5,0.5-1.2,1.2-1.6
									c-0.9,0.5-0.5,0.3-1.1,0.4c0.2-0.3,0.3-0.3,0.6-0.5c0.1-0.6-0.4,0.1-0.6-0.1c-0.6,0.5-1.4,1.2-1.5,1.2l-0.1,0.2
									c-0.5,0.1-0.8,0-0.8-0.5l0.3-0.3l-0.4-0.1l0.3-0.4l-0.5-0.2l0,0.1c-0.1,0-0.5-0.2-0.5-0.5l0.2-0.2c0.1-1-1-0.6-1.5-1
									l0.4-0.3c0.2-0.5-0.6,0.5-0.6,0.2l0.4-0.5c-0.8,0.4-0.1-0.4,0-0.7l-0.5,0.7l-0.1-0.4c-0.1-0.5,0.6-0.9,0.9-1.2l-0.6,0.3
									l0.5-0.6c-0.7,0.5,0-0.2-0.6-0.1c0.2-0.2,0.3-0.3,0.4-0.4l-1.1,0.4l0.6-0.1l-0.8,0.8c-0.8,0.4-0.2-0.4-0.6-0.3l0.3-0.1
									c-0.5-0.1-0.2-0.4-0.1-0.7c-0.1,0.2-0.2,0.5-0.4,0.5c-0.1,0,0.2-0.3,0.2-0.5c-0.5,0.5-1,0.6-0.9,0.2
									c0.1-0.1,0.1-0.1,0.2-0.2c-0.1,0-0.3,0.2-0.2,0l0.6-0.5l-0.7,0.4c0.1-0.3-0.5,0-0.1-0.4l0.2-0.1l-0.6-0.9l0.4-0.5
									c-0.7,0.6-0.2-0.6-0.9,0.2c0.3-0.6-0.9-0.2,0.1-1.1c-0.4-0.6-1.6,0.1-1.7-1c0.5-1-0.3-1.3-0.6-1.8c-1.1-0.4-1.9-0.6-2.9-1.1
									c0.6-1.5-1.5-0.8-1.5-1.9l-0.5,0.3c0.3-1-1-0.7-0.8-1.8c-0.3,0.1-0.4,0.1-0.5,0.1c0,0,0,0.2-0.3,0.4c0-0.3-0.5-0.3,0.1-0.9
									l0.1,0c0.5-0.5-0.7-0.1-0.4-0.8l-0.5,0.7l-0.2-0.3l0.2,0c-2.4,0.2-1.1-2.1-3.3-1.9c0.7-0.5-0.5,0.1,0.1-0.6
									c0.6-1.1-0.7-0.3-1.1-0.3c0,0-0.1,0.1-0.1,0.1l-0.3-0.4c1.1-0.7-1,0.5,0-0.1c-0.4-1.6-2.3-2.2-3.2-3.6l-0.2,0.3
									c-0.3-0.3-0.9-0.4-0.8-1c0.1-0.6-1,0.1-1.2,0.1c-0.6,0.2-0.1-0.8,0-0.7c-0.4-0.1-1.4,0.4-1.4-0.3c0.6-0.9-1.7-0.2-0.9-1.1
									l-0.1,0.1c0.1-1-1.3-0.4-1.3-1.5c0,0,0.1-0.1,0.1-0.1l-3.4,1.6l-2.4,3.1l-1.3,3.1l2.8,1.8l1,2.7l4.9,4.1l0.9-0.3
									c-0.1,2,2.2,1.8,2.4,3.5l0.5-0.5c0.3,0.2,0,0.5-0.1,0.7c2.7,2.3,6,4.1,7.6,7c-0.1,0.6,0.8,1,0.6,1.6
									c1.4,0.1,2.2,0.8,2.9,1.6l-0.1,0l0.5,0.2c0,0.1-0.1,0.1-0.1,0.2c0.9-0.1,1,1,1.3,1.6l-0.1,0c2.7,2.8,6.4,4.3,8.4,7.8
									c0.5,2.1,3.2,2.4,4,4.5C123.4,151.7,126.8,154.2,127.3,154.2z"/>
								<path class="st0" d="M132.5,157.8L132.5,157.8C132.3,158,132.4,158,132.5,157.8z"/>
								<path class="st0" d="M132.2,145.5C132.2,145.6,132.2,145.6,132.2,145.5l0.2-0.4L132.2,145.5z"/>
								<path class="st0" d="M136.4,149.2c-0.1-0.2-0.2-0.2-0.2-0.1C136.2,149.2,136.3,149.2,136.4,149.2z"/>
								<path class="st0" d="M134.4,158.8c0.1,0.1,0.2-0.1,0.3-0.3c-0.1-0.1-0.2-0.1-0.2-0.1C134.4,158.5,134.4,158.7,134.4,158.8z"
									/>
								<path class="st0" d="M137,155.3l0.2-0.2C137.1,155.1,137,155.2,137,155.3z"/>
							</g>
						</g>
					</g>
				</g>
			</g>
		</g>
		<g>
			<g>
				<g>
					<g>
						<g>
							<g>
								<path class="st0" d="M168.6,128.2C168.7,128.1,168.6,128.1,168.6,128.2L168.6,128.2z"/>
								<path class="st0" d="M169.8,172C169.8,172.1,169.8,172.1,169.8,172c0.2,0.1,0.3,0.1,0.4,0.1L169.8,172z"/>
								<path class="st0" d="M168.8,179.1C168.8,179.1,168.8,179.1,168.8,179.1C168.9,179.1,169,179.1,168.8,179.1z"/>
								<path class="st0" d="M168.3,155.8c0-0.1,0-0.1-0.1-0.1C168.3,155.7,168.3,155.7,168.3,155.8z"/>
								<path class="st0" d="M167.8,115.3C167.8,115.3,167.9,115.3,167.8,115.3c0,0,0.1,0,0.1,0L167.8,115.3z"/>
								<path class="st0" d="M168.1,115.4c-0.1,0.2-0.2,0-0.2-0.1c-0.2,0.2-0.2,0.3-0.1,0.5C168,115.8,167.9,115.5,168.1,115.4z"/>
								<path class="st0" d="M167.2,91.8L167.2,91.8C167.3,91.8,167.2,91.8,167.2,91.8z"/>
								<path class="st0" d="M156.9,156.5c0,0,0-0.1-0.1-0.1C156.9,156.4,156.9,156.5,156.9,156.5z"/>
								<path class="st0" d="M167,95.5l0.4,0C167.2,95.5,167.1,95.5,167,95.5z"/>
								<path class="st0" d="M170.1,172.2l0.1,0.1C170.2,172.2,170.2,172.2,170.1,172.2z"/>
								<path class="st0" d="M168.6,185.6c-0.1,0-0.2,0-0.3,0c0,0,0,0,0,0L168.6,185.6z"/>
								<path class="st0" d="M162.7,218.5c0,0,0.1,0,0.1,0l-0.3-0.1C162.6,218.4,162.6,218.4,162.7,218.5z"/>
								<path class="st0" d="M167,194.5c0,0,0.1,0,0.1,0c0.1-0.2,0.2-0.6,0.1-1.1l-0.5,0L167,194.5z"/>
								<path class="st0" d="M156.4,204.3l0.9-1c0.4,3.1-0.5,4.5,0.2,7.1l-0.2-0.1c-0.2,0.4,1.8,0.6-0.7,4.8h-0.1
									c0,0.1,0.2,0.1,0,0.4l0.6-0.7c0.2,0.4,0.7,0.8,0.7,1.4c-0.1,0.1-0.3,0.2-0.4,0.2l0.2,1.4l-0.6,0.4c0.3,0.4,1.6,0.2,0.9,1.4
									c0.9-0.4,0.5,0.6,1,0.4c-0.1,0.1-0.3,0.2-0.4,0.3c0.1,0.7,0.3,2,0.8,2.3c0,0,1.8-2.7,2.7-3.4c-0.2,1,0.1,0.3,0.4,0.1
									l-0.2-0.1c0.2-0.6,0.8-0.6,0.9-0.9c0,0-0.1,0-0.2,0l0.1,0c-0.1,0-0.2,0-0.2,0c-0.1,0-0.2,0-0.2-0.2l0.1,0
									c-0.1-0.2,0-0.7,0-0.8l0.5,0c-0.9-0.4,1.3-2.9,1.4-3.5c0.6-0.6-0.1-1.3,0.1-2c0.1-1.2,0.7-0.6,1.1-1.2
									c0.3-0.7-0.5,0.1-0.6-0.1l0.6-0.9c0.1,0.5,0.3,0.2,0.5,0.1c0.1-0.8,0.9-1.9,0-2.2c0.4-1,0.8-1,0.8-1.5
									c-0.2,0.1-0.3,0.4-0.5,0.4c0.4-0.4-0.1-0.2-0.2,0c-0.4-0.6,1.7-3.2,0.7-3.4h0.2c-0.7-0.1-1.5,0.1-1.9-0.3l0.3-0.3l-0.3-0.4
									c0.2-0.3,0.4-0.1,0.5-0.1c-0.3-0.7,0.1-1.7,0.2-2.6l-2,0.9c0.5-0.7,1.4-2,0.8-2.2l0.7-0.4c1.3-1.5-0.6-1-0.2-1.6l0.7-0.7
									l0,0.7c0.4-0.7,0.6-1,1.1-1.6c0,0,0,0,0,0c0,0-0.1,0.1-0.1,0.1l0-0.1c-0.4-0.1-0.6-0.5-0.6-1c0.1-0.7-0.4-1.3,0.3-2.5
									l-0.8-0.3l0.5-0.9h0.6c0,0.9,0.2,2.5,0.2,3.6l0.3,0c0-0.7-0.3-1.4-0.2-1.8c0.1-0.2,0.7-0.7,1.2-0.4l-0.6-0.4
									c-0.1-2.2-0.1-2.2,0.6-4.5l-0.3,0.2c-0.2-0.5-0.4-0.9,0.1-1c0.1-1.4,0.5-2.8,1.2-3.7l-0.7-0.2c0-0.3,1.1-0.7,0.1-0.9
									l-0.3-0.6c0.1-0.4-0.4-0.6,0.1-1.1c0,0,0,0,0,0c0,0,0,0,0,0c0,0,0.1-0.1,0.1-0.1c0,0,0,0-0.1,0c0.3-0.9-0.6,0-0.2-1
									c0.5-0.3-0.9-0.4-0.7-0.9l1-0.5c0.6-0.9-0.4-1.1-0.4-2.4c0.4-0.6,1.2-0.9,2-0.5c-0.9-0.6-0.6-0.3-1.1-1
									c0.4-0.1,0.5,0,0.8,0.1c0.5-0.7-0.3-0.4-0.3-0.9c-0.7-0.1-1.9-0.3-1.9-0.5l-0.2,0.2c-0.4-0.5-0.6-1.1-0.2-1.7l0.4,0
									l-0.2-0.7l0.5,0l-0.1-0.9l-0.1,0.1c-0.1-0.2-0.2-1,0-1.4l0.3,0c0.8-1.2-0.3-2.2-0.3-3.5l0.5,0.2c0.5-0.5-0.8-0.1-0.6-0.7
									l0.6,0c-0.9-0.5,0.2-0.6,0.5-1l-0.8,0.2l0.2-0.6c0.3-0.7,1.1-0.4,1.5-0.3l-0.7-0.5l0.7-0.1c-0.9-0.4,0.1-0.4-0.3-1
									c0.3-0.1,0.4,0.1,0.6-0.1l-1.1-1l0.5,0.6l-1.1-0.1c-0.8-0.6,0.1-0.9-0.2-1.3l0.3,0.3c-0.3-0.7,0.2-0.8,0.4-1.2
									c-0.2,0.1-0.5,0.3-0.6,0c-0.1-0.2,0.4-0.1,0.5-0.3c-0.7,0-1.1-0.6-0.8-1.1c0.1,0,0.2,0,0.3,0c-0.1-0.1-0.3-0.2-0.1-0.4
									l0.8,0.1l-0.8-0.4c0.2-0.3-0.4-0.7,0.2-0.6l0.2,0.2l0.2-2.1l0.6,0c-0.9-0.2,0.3-1.1-0.8-1.1c0.6-0.4-0.4-1.6,0.8-1.3
									c0.1-1.4-1.1-2.1-0.5-3.8c1.1-0.6,0.7-2.2,0.8-3.3c-0.4-2.1-0.8-3.4-1.2-5.6c1.5-1.3-0.5-3.2,0.3-4.6l-0.6-0.4
									c0.9-0.9-0.2-2.3,0.7-3.6c-0.3-0.3-0.3-0.5-0.4-0.6c0,0.1-0.1,0.1-0.5,0.2c0.3-0.4-0.1-1.1,0.7-1.1l0.1,0.1
									c0.8,0.1-0.4-1.1,0.3-1.5l-0.8,0.2l0.1-0.7l0.2,0.2c-1.8-3,0.8-4.4-0.9-7.3c0.9,0.4-0.5-0.6,0.5-0.6
									c1.2-0.7-0.3-1.3-0.6-1.9c0,0-0.1,0-0.2,0l0.1-1c1.2,0.6-1-0.7,0-0.2c0.9-2.7,0-6.2,0.4-9.3l-0.3,0.1
									c0.1-0.8-0.3-1.8,0.2-2.4c0.5-0.6-0.8-1.3-0.8-1.5c-0.5-0.7,0.5-1.3,0.5-1c-0.1-0.7-1.3-1.4-0.8-2.3c1-0.3-1-2.7,0.1-2.7
									l-0.1,0c0.8-1.2-0.6-2.4,0.2-3.8c0,0,0.1,0,0.2,0.1l-3.5-2.7l-3.9,0.8l-3.1,2.4l0.7,6.4l-1.2,5.1l0.4,12.5l0.9,0.9
									c-1.5,2.4,0.2,5.6-0.9,8.2l0.8,0.1c0,0.7-0.4,0.7-0.6,0.9c0.2,6.9,1.2,14,0.2,20.3c-0.5,0.6-0.2,2.4-0.7,2.9
									c0.9,2,0.9,4.2,0.8,6.2l-0.1-0.1l0.1,1c-0.1,0-0.2,0-0.2,0c0.7,1.1,0,2.8-0.3,4.1l-0.1-0.1c-0.1,7.7,1.3,14.8,0.2,22.4
									c-1.2,3.5,0.5,7.7-0.6,11.7C155.5,195.4,156,203.6,156.4,204.3z"/>
								<path class="st0" d="M157.4,216.4L157.4,216.4C157.1,216.4,157.2,216.4,157.4,216.4z"/>
								<path class="st0" d="M166.1,199.4C166.1,199.5,166,199.5,166.1,199.4l0.4-0.1L166.1,199.4z"/>
								<path class="st0" d="M166.3,210.3c0.1-0.5,0-0.5-0.1-0.4C166.2,210.1,166.2,210.2,166.3,210.3z"/>
								<path class="st0" d="M158,220.4c0,0.3,0.2,0.2,0.4,0c0-0.3-0.1-0.4-0.1-0.4C158.3,220.1,158.1,220.3,158,220.4z"/>
								<path class="st0" d="M162.3,219.4l0.3,0.1C162.5,219.3,162.4,219.3,162.3,219.4z"/>
							</g>
						</g>
					</g>
				</g>
			</g>
			<g>
				<g>
					<g>
						<g>
							<g>
								<path class="st0" d="M194.3,193.3C194.3,193.4,194.3,193.4,194.3,193.3L194.3,193.3z"/>
								<path class="st0" d="M177.3,178.6C177.3,178.6,177.3,178.6,177.3,178.6c-0.1,0.1-0.2,0.2-0.3,0.2L177.3,178.6z"/>
								<path class="st0" d="M175.3,175.5C175.3,175.4,175.3,175.4,175.3,175.5C175.3,175.5,175.2,175.5,175.3,175.5z"/>
								<path class="st0" d="M184.3,183.4C184.3,183.4,184.3,183.4,184.3,183.4C184.3,183.4,184.3,183.4,184.3,183.4z"/>
								<path class="st0" d="M199.6,197.3C199.6,197.3,199.6,197.3,199.6,197.3C199.6,197.4,199.6,197.4,199.6,197.3L199.6,197.3z"
									/>
								<path class="st0" d="M199.4,197.5c0-0.1,0.2-0.1,0.2-0.1c0.1-0.2,0-0.3-0.1-0.3C199.3,197.2,199.5,197.3,199.4,197.5z"/>
								<path class="st0" d="M208.7,205.2L208.7,205.2C208.6,205.2,208.7,205.2,208.7,205.2z"/>
								<path class="st0" d="M191.9,174.9C191.9,174.9,192,174.9,191.9,174.9C192,174.8,191.9,174.8,191.9,174.9z"/>
								<path class="st0" d="M207.5,203.7l-0.3,0.3C207.4,203.8,207.4,203.8,207.5,203.7z"/>
								<path class="st0" d="M177,178.9l-0.1,0.1C176.9,178.9,176.9,178.9,177,178.9z"/>
								<path class="st0" d="M173.1,173c0.1-0.1,0.1-0.2,0.2-0.2c0,0,0,0,0,0L173.1,173z"/>
								<path class="st0" d="M165,157.1c0,0-0.1,0.1-0.1,0.1l0.2-0.1C165.1,157.1,165,157.1,165,157.1z"/>
								<path class="st0" d="M170.9,168.7c0,0-0.1,0-0.1,0.1c0,0.1,0.1,0.3,0.3,0.5l0.3-0.3L170.9,168.7z"/>
								<path class="st0" d="M174.6,157.6l-0.3,1c-1.4-0.8-1.3-1.9-2.8-2.3l0.2-0.1c0-0.3-1.5,1.1-1.3-2.2l0.1-0.1
									c-0.1,0-0.2,0.1-0.1-0.2l-0.1,0.7c-0.3,0-0.8,0.2-1,0c0-0.1,0.1-0.3,0.2-0.4l-0.6-0.4l0.2-0.6c-0.4,0.1-1.2,1-1.1,0.1
									c-0.4,0.8-0.6,0.2-0.8,0.5c0.1-0.1,0.1-0.3,0.2-0.4c-0.3-0.2-1-0.5-1.4-0.3c0,0-0.3,2.3-0.6,3.2c-0.2-0.5-0.2,0-0.3,0.3
									l0.2-0.1c0.1,0.4-0.3,0.8-0.3,1c0,0,0.1-0.1,0.1-0.1l-0.1,0c0.1-0.1,0.1-0.1,0.2-0.1c0.1-0.1,0.2-0.1,0.2-0.1l-0.1,0
									c0.1,0,0.2,0.2,0.3,0.3l-0.3,0.3c0.8-0.5,0.2,2,0.4,2.2c-0.2,0.6,0.6,0.4,0.7,0.8c0.3,0.5-0.2,0.7-0.3,1.2
									c0.1,0.5,0.3-0.4,0.4-0.4l-0.1,0.8c-0.2-0.1-0.3,0.2-0.4,0.3c0.2,0.3,0.1,1.3,0.8,0.8c0.1,0.7-0.2,0.9,0,1.1
									c0.1-0.2,0.1-0.4,0.2-0.5c-0.1,0.4,0.1,0,0.1-0.1c0.5-0.1,0.1,2.3,0.8,1.7l-0.1,0.1c0.6-0.5,1-1.1,1.4-1.2l-0.1,0.3l0.4-0.1
									c-0.1,0.3-0.2,0.4-0.3,0.4c0.5,0,0.6,0.7,0.8,1l1.1-1.8c-0.1,0.6-0.2,1.7,0.3,1.3l-0.3,0.6c-0.4,1.5,0.8,0,0.7,0.4l-0.2,0.8
									l-0.3-0.3c0,0.5,0,0.8-0.2,1.4c0,0,0,0,0,0c0,0,0-0.1,0-0.1l0.1,0c0.3-0.2,0.6-0.3,0.8-0.1c0.2,0.3,0.8,0.1,0.7,1.1l0.6-0.4
									l0,0.6l-0.4,0.4c-0.3-0.3-1-0.7-1.5-1.1l-0.2,0.2c0.2,0.2,0.7,0.3,0.8,0.5c0,0.2-0.2,0.8-0.7,1l0.6-0.3
									c0.9,0.7,0.9,0.7,1.2,2l0.1-0.3c0.3,0,0.6,0.1,0.3,0.5c0.4,0.6,0.7,1.3,0.5,2.2l0.6-0.4c0.1,0.1-0.5,1.1,0.2,0.4l0.4,0
									c0.1,0.2,0.5,0,0.4,0.4c0,0,0,0,0,0c0,0,0,0,0,0c0,0,0,0.1,0,0.1c0,0,0,0,0,0c0.1,0.5,0.4-0.5,0.5,0.2
									c-0.2,0.5,0.8-0.5,0.8-0.2l-0.5,0.9c-0.1,0.7,0.7,0.1,1.2,0.5c0,0.5-0.5,1.2-1.2,1.6c0.9-0.5,0.5-0.3,1.1-0.4
									c-0.2,0.3-0.3,0.3-0.6,0.5c-0.1,0.6,0.4-0.1,0.6,0.1c0.6-0.5,1.4-1.2,1.5-1.2l0.1-0.2c0.5-0.1,0.8,0,0.8,0.5l-0.3,0.3
									l0.4,0.1l-0.3,0.4l0.5,0.2l0-0.1c0.1,0,0.5,0.2,0.5,0.5l-0.2,0.2c-0.1,1,1,0.6,1.5,1l-0.4,0.3c-0.2,0.5,0.6-0.5,0.6-0.2
									l-0.4,0.5c0.8-0.4,0.1,0.4,0,0.7l0.5-0.7l0.1,0.4c0.1,0.5-0.6,0.9-0.9,1.2l0.6-0.3l-0.5,0.6c0.7-0.5,0,0.2,0.6,0.1
									c-0.2,0.2-0.3,0.3-0.4,0.4l1.1-0.4l-0.6,0.1l0.8-0.8c0.8-0.4,0.2,0.4,0.6,0.3l-0.3,0.1c0.5,0.1,0.2,0.4,0.1,0.7
									c0.1-0.2,0.2-0.5,0.4-0.5c0.1,0-0.2,0.3-0.2,0.5c0.5-0.5,1-0.6,0.9-0.2c-0.1,0.1-0.1,0.1-0.2,0.2c0.1,0,0.3-0.2,0.2,0
									l-0.6,0.5l0.7-0.4c-0.1,0.3,0.5,0,0.1,0.4l-0.2,0.1l0.6,0.9l-0.4,0.5c0.7-0.6,0.2,0.6,0.9-0.2c-0.3,0.6,0.9,0.2-0.1,1.1
									c0.4,0.6,1.6-0.1,1.7,1c-0.5,1,0.3,1.3,0.6,1.8c1.1,0.4,1.9,0.6,2.9,1.1c-0.6,1.5,1.5,0.8,1.5,1.9l0.5-0.3
									c-0.3,1,1,0.7,0.8,1.8c0.3-0.1,0.4-0.1,0.5-0.1c0,0,0-0.2,0.3-0.4c0,0.3,0.5,0.3-0.1,0.9l-0.1,0c-0.5,0.5,0.7,0.1,0.4,0.8
									l0.5-0.7l0.2,0.3l-0.2,0c2.4-0.2,1.1,2.1,3.3,1.9c-0.7,0.5,0.5-0.1-0.1,0.6c-0.6,1.1,0.7,0.3,1.1,0.3c0,0,0.1-0.1,0.1-0.1
									l0.3,0.4c-1.1,0.7,1-0.5,0,0.1c0.4,1.6,2.3,2.2,3.2,3.6l0.2-0.3c0.3,0.3,0.9,0.4,0.8,1c-0.1,0.6,1-0.1,1.2-0.1
									c0.6-0.2,0.1,0.8,0,0.7c0.4,0.1,1.4-0.4,1.4,0.3c-0.6,0.9,1.7,0.2,0.9,1.1l0.1-0.1c-0.1,1,1.3,0.4,1.3,1.5
									c0,0-0.1,0.1-0.1,0.1l3.4-1.6l2.4-3.1l1.3-3.1l-2.8-1.8l-1-2.7l-4.9-4.1l-0.9,0.3c0.1-2-2.2-1.8-2.4-3.5l-0.5,0.5
									c-0.3-0.2,0-0.5,0.1-0.7c-2.7-2.3-6-4.1-7.6-7c0.1-0.6-0.8-1-0.6-1.6c-1.4-0.1-2.2-0.8-2.9-1.6l0.1,0l-0.5-0.2
									c0-0.1,0.1-0.1,0.1-0.2c-0.9,0.1-1-1-1.3-1.6l0.1,0c-2.7-2.8-6.4-4.3-8.4-7.8c-0.5-2.1-3.2-2.4-4-4.5
									C178.5,160.1,175.1,157.6,174.6,157.6z"/>
								<path class="st0" d="M169.4,154L169.4,154C169.6,153.8,169.5,153.9,169.4,154z"/>
								<path class="st0" d="M169.7,166.3C169.7,166.3,169.7,166.3,169.7,166.3l-0.2,0.4L169.7,166.3z"/>
								<path class="st0" d="M165.5,162.6c0.1,0.2,0.2,0.2,0.2,0.1C165.7,162.6,165.6,162.6,165.5,162.6z"/>
								<path class="st0" d="M167.5,153c-0.1-0.1-0.2,0.1-0.3,0.3c0.1,0.1,0.2,0.1,0.2,0.1C167.4,153.3,167.5,153.1,167.5,153z"/>
								<path class="st0" d="M164.9,156.5l-0.2,0.2C164.8,156.7,164.9,156.6,164.9,156.5z"/>
							</g>
						</g>
					</g>
				</g>
			</g>
			<g>
				<g>
					<g>
						<g>
							<g>
								<path class="st0" d="M201.9,126.5C201.9,126.5,201.9,126.4,201.9,126.5L201.9,126.5z"/>
								<path class="st0" d="M186.5,142.8C186.4,142.8,186.4,142.8,186.5,142.8c0.1,0.1,0.2,0.2,0.2,0.3L186.5,142.8z"/>
								<path class="st0" d="M183.2,144.6C183.2,144.6,183.2,144.6,183.2,144.6C183.2,144.6,183.3,144.7,183.2,144.6z"/>
								<path class="st0" d="M191.5,136C191.5,136,191.5,136,191.5,136C191.5,136,191.5,136,191.5,136z"/>
								<path class="st0" d="M206.1,121.3C206.1,121.3,206.1,121.3,206.1,121.3C206.2,121.4,206.2,121.4,206.1,121.3L206.1,121.3z"
									/>
								<path class="st0" d="M206.3,121.6c-0.1,0-0.1-0.2-0.1-0.2c-0.2-0.1-0.3,0-0.3,0.1C206,121.6,206.1,121.5,206.3,121.6z"/>
								<path class="st0" d="M214.4,112.6L214.4,112.6C214.4,112.6,214.4,112.6,214.4,112.6z"/>
								<path class="st0" d="M183.3,128C183.3,128,183.3,127.9,183.3,128C183.3,127.9,183.3,128,183.3,128z"/>
								<path class="st0" d="M212.8,113.7l0.2,0.3C213,113.9,212.9,113.8,212.8,113.7z"/>
								<path class="st0" d="M186.7,143.1l0.1,0.1C186.7,143.2,186.7,143.1,186.7,143.1z"/>
								<path class="st0" d="M180.6,146.7c-0.1-0.1-0.1-0.1-0.2-0.2c0,0,0,0,0,0L180.6,146.7z"/>
								<path class="st0" d="M164.4,154.1c0,0,0.1,0.1,0.1,0.1l-0.1-0.2C164.4,154,164.4,154,164.4,154.1z"/>
								<path class="st0" d="M176.2,148.7c0,0,0,0.1,0.1,0.1c0.1,0,0.3-0.1,0.5-0.3l-0.3-0.3L176.2,148.7z"/>
								<path class="st0" d="M165.3,144.5l1,0.3c-0.8,1.4-2,1.2-2.5,2.7l-0.1-0.2c-0.3,0,1,1.5-2.2,1.2l-0.1-0.1
									c0,0.1,0.1,0.2-0.2,0.1l0.7,0.1c0,0.3,0.2,0.8,0,1c-0.1,0-0.3-0.1-0.4-0.3l-0.4,0.6l-0.6-0.3c0.1,0.4,1,1.2,0.1,1.1
									c0.8,0.5,0.1,0.6,0.5,0.8c-0.1-0.1-0.3-0.1-0.4-0.2c-0.2,0.3-0.5,1-0.3,1.4c0,0,2.3,0.4,3.2,0.8c-0.5,0.2,0,0.2,0.2,0.3
									l-0.1-0.2c0.4-0.1,0.7,0.3,1,0.3c0,0-0.1-0.1-0.1-0.1l0,0.1c-0.1-0.1-0.1-0.1-0.1-0.2c-0.1-0.1-0.1-0.2-0.1-0.2l0,0.1
									c0-0.1,0.3-0.2,0.3-0.3l0.3,0.3c-0.4-0.8,2-0.1,2.2-0.3c0.6,0.2,0.4-0.6,0.9-0.6c0.5-0.3,0.7,0.3,1.2,0.4
									c0.5-0.1-0.4-0.3-0.3-0.5l0.8,0.1c-0.2,0.2,0.1,0.3,0.3,0.4c0.3-0.2,1.3,0,0.8-0.8c0.7,0,0.9,0.2,1.1,0.1
									c-0.2-0.1-0.4-0.1-0.5-0.2c0.4,0.1,0-0.1-0.1-0.1c0-0.5,2.3,0.1,1.7-0.7l0.1,0.1c-0.5-0.6-1-1-1.2-1.5l0.3,0.1l-0.1-0.4
									c0.3,0.1,0.4,0.3,0.4,0.3c0-0.5,0.7-0.6,1.1-0.8l-1.7-1.1c0.6,0.1,1.7,0.3,1.3-0.2l0.6,0.3c1.4,0.4,0-0.8,0.5-0.7l0.8,0.3
									l-0.3,0.2c0.5,0,0.8,0.1,1.4,0.2c0,0,0,0,0,0c0,0-0.1,0-0.1-0.1l0,0c-0.2-0.3-0.3-0.6-0.1-0.8c0.3-0.2,0.2-0.8,1.1-0.6
									l-0.4-0.7l0.6,0l0.4,0.4c-0.3,0.3-0.8,1-1.2,1.4l0.2,0.2c0.2-0.2,0.3-0.7,0.5-0.8c0.2,0,0.8,0.3,0.9,0.7l-0.3-0.6
									c0.8-0.8,0.7-0.8,2.1-1.2l-0.3-0.1c0-0.3,0.1-0.6,0.5-0.3c0.6-0.4,1.4-0.6,2.2-0.4l-0.4-0.6c0.1-0.1,1,0.5,0.4-0.2l0-0.4
									c0.2-0.1,0-0.5,0.4-0.3c0,0,0,0,0,0c0,0,0,0,0,0c0,0,0.1,0,0.1,0c0,0,0,0,0,0c0.5-0.1-0.4-0.5,0.2-0.5
									c0.5,0.2-0.5-0.8-0.2-0.8l0.9,0.6c0.7,0.1,0.1-0.7,0.6-1.2c0.5,0,1.2,0.6,1.6,1.3c-0.4-0.9-0.3-0.5-0.4-1.1
									c0.3,0.2,0.3,0.3,0.5,0.6c0.6,0.1-0.1-0.4,0.1-0.6c-0.4-0.6-1.2-1.5-1.2-1.6l-0.2-0.1c-0.1-0.5,0-0.8,0.5-0.8l0.2,0.3
									l0.1-0.4l0.3,0.3l0.3-0.4l-0.1,0c0-0.1,0.2-0.5,0.5-0.5l0.2,0.2c1,0.2,0.6-0.9,1.1-1.5l0.3,0.4c0.5,0.2-0.5-0.6-0.1-0.6
									l0.5,0.5c-0.4-0.8,0.4-0.1,0.7,0l-0.6-0.6l0.4-0.1c0.5,0,0.9,0.6,1.2,1l-0.3-0.7l0.6,0.5c-0.5-0.8,0.2,0,0.1-0.6
									c0.2,0.2,0.3,0.4,0.4,0.4l-0.4-1.1l0.1,0.6l-0.7-0.8c-0.3-0.8,0.4-0.2,0.4-0.6l0.1,0.3c0.1-0.5,0.4-0.1,0.8-0.1
									c-0.2-0.1-0.5-0.2-0.5-0.5c0-0.1,0.3,0.2,0.5,0.2c-0.5-0.5-0.6-1-0.1-0.9c0.1,0.1,0.1,0.2,0.2,0.2c0-0.1-0.1-0.3,0.1-0.2
									l0.5,0.6l-0.4-0.7c0.3,0.1,0-0.5,0.4-0.1l0.1,0.2l0.9-0.6l0.5,0.5c-0.5-0.7,0.7-0.2-0.1-0.9c0.6,0.3,0.3-0.9,1.1,0.1
									c0.6-0.4,0-1.6,1.1-1.7c1,0.6,1.3-0.3,1.8-0.6c0.5-1.1,0.7-1.8,1.2-2.8c1.5,0.6,0.8-1.5,1.9-1.4l-0.3-0.6
									c1,0.4,0.7-1,1.8-0.8c-0.1-0.3-0.1-0.4,0-0.5c0,0-0.2,0-0.4-0.3c0.3,0.1,0.4-0.4,0.9,0.1l0,0.1c0.5,0.6,0.2-0.6,0.8-0.3
									l-0.6-0.5l0.4-0.1l0,0.2c-0.1-2.4,2.2-1,2.1-3.2c0.5,0.8-0.1-0.5,0.6,0.1c1.1,0.6,0.3-0.7,0.3-1.1c0,0-0.1-0.1-0.1-0.1
									l0.5-0.3c0.6,1.1-0.4-1,0.1,0c1.6-0.3,2.3-2.2,3.7-3l-0.3-0.2c0.3-0.2,0.4-0.9,1-0.7c0.6,0.1-0.1-1,0-1.2
									c-0.1-0.6,0.8-0.1,0.7,0c0.2-0.4-0.4-1.4,0.3-1.4c0.8,0.6,0.3-1.7,1.1-0.8l-0.1-0.1c1,0.1,0.5-1.3,1.5-1.2
									c0,0,0,0.1,0.1,0.1l-1.4-3.5l-3-2.5l-3-1.4l-1.9,2.8l-2.7,0.9l-4.3,4.7l0.3,0.9c-2-0.2-1.9,2.1-3.6,2.3l0.5,0.6
									c-0.2,0.3-0.5-0.1-0.7-0.1c-2.4,2.6-4.4,5.8-7.3,7.3c-0.6-0.1-1,0.7-1.6,0.5c-0.1,1.4-0.9,2.1-1.7,2.8l0-0.1l-0.3,0.4
									c-0.1,0-0.1-0.1-0.1-0.1c0.1,0.9-1,1-1.7,1.3l0-0.1c-2.9,2.6-4.6,6.2-8.1,8.1c-2.2,0.4-2.5,3-4.7,3.7
									C168,140.7,165.3,144,165.3,144.5z"/>
								<path class="st0" d="M161.5,149.5L161.5,149.5C161.3,149.3,161.4,149.4,161.5,149.5z"/>
								<path class="st0" d="M173.8,149.8C173.8,149.8,173.7,149.8,173.8,149.8l0.4,0.3L173.8,149.8z"/>
								<path class="st0" d="M169.9,153.8c0.2-0.1,0.2-0.2,0.1-0.2C169.9,153.6,169.9,153.7,169.9,153.8z"/>
								<path class="st0" d="M160.4,151.4c-0.1,0.1,0.1,0.2,0.3,0.3c0.1-0.1,0.1-0.2,0.1-0.2C160.7,151.5,160.6,151.4,160.4,151.4z"
									/>
								<path class="st0" d="M163.8,154.1l0.1,0.2C164,154.2,163.9,154.2,163.8,154.1z"/>
							</g>
						</g>
					</g>
				</g>
			</g>
		</g>
	</g>
</g>
</svg>
