<?xml version="1.0" encoding="utf-8"?>
<!-- Generator: Adobe Illustrator 22.1.0, SVG Export Plug-In . SVG Version: 6.00 Build 0)  -->
<svg version="1.1" id="Layer_1" xmlns="http://www.w3.org/2000/svg" xmlns:xlink="http://www.w3.org/1999/xlink" x="0px" y="0px"
	 viewBox="0 0 300 300" style="enable-background:new 0 0 300 300;" xml:space="preserve">
<style type="text/css">
	.st0{fill:#6D6E71;}
	.st1{fill:none;stroke:#6D6E71;stroke-width:0.9976;stroke-miterlimit:10;}
	.st2{fill:#939598;}
	.st3{fill:#58595B;}
	.st4{fill:#FFFFFF;}
	.st5{fill:none;stroke:#FFFFFF;stroke-width:0.9976;stroke-miterlimit:10;}
</style>
<g>
	<path class="st0" d="M152.7,206.7c-1.4,0-2.6-0.4-3.6-1.3c-1-0.9-1.6-2.1-1.6-3.5c0-1.7,0.5-3.3,1.6-4.8c1.2-1.6,2.6-2.4,4.3-2.4
		c1.7,0,2.9,0.4,3.7,1.1c0.8,0.8,1.3,2,1.3,3.7c0,1.7-0.5,3.3-1.4,4.7C155.9,205.9,154.5,206.7,152.7,206.7 M153.4,196.3
		c-1.2,0-2.3,0.6-3.1,1.8c-0.8,1.1-1.2,2.4-1.2,3.7c0,1,0.4,1.8,1.1,2.4c0.7,0.6,1.5,0.9,2.6,0.9c1.2,0,2.2-0.6,3-1.9
		c0.7-1.1,1.1-2.3,1.1-3.7c0-1.2-0.3-2.1-0.8-2.5C155.5,196.6,154.6,196.3,153.4,196.3"/>
	<path class="st1" d="M152.7,206.7c-1.4,0-2.6-0.4-3.6-1.3c-1-0.9-1.6-2.1-1.6-3.5c0-1.7,0.5-3.3,1.6-4.8c1.2-1.6,2.6-2.4,4.3-2.4
		c1.7,0,2.9,0.4,3.7,1.1c0.8,0.8,1.3,2,1.3,3.7c0,1.7-0.5,3.3-1.4,4.7C155.9,205.9,154.5,206.7,152.7,206.7z M153.4,196.3
		c-1.2,0-2.3,0.6-3.1,1.8c-0.8,1.1-1.2,2.4-1.2,3.7c0,1,0.4,1.8,1.1,2.4c0.7,0.6,1.5,0.9,2.6,0.9c1.2,0,2.2-0.6,3-1.9
		c0.7-1.1,1.1-2.3,1.1-3.7c0-1.2-0.3-2.1-0.8-2.5C155.5,196.6,154.6,196.3,153.4,196.3z"/>
	<path class="st0" d="M168.9,201.6c-0.3,1.5-1,2.8-2,3.7c-1,0.9-2.2,1.4-3.5,1.4c-1.2,0-2.2-0.3-2.8-1c-0.6-0.7-0.9-1.7-0.9-3.1
		c0-1.3,0.3-2.7,0.9-4c0.6-1.4,1.4-2.5,2.4-3.4c0.6-0.6,1.3-0.9,2-0.9c0.5,0,1.1,0.2,1.8,0.5c0.9,0.4,1.4,0.8,1.4,1.2
		c0,0.2-0.1,0.4-0.2,0.6c-0.2,0.2-0.3,0.2-0.5,0.2c-0.1,0-0.3-0.1-0.5-0.2c-0.8-0.5-1.4-0.7-1.9-0.7c-0.4,0-0.8,0.2-1.2,0.6
		c-0.2,0.2-0.5,0.6-0.9,1.1c-1.2,1.5-1.7,3.2-1.7,5c0,0.9,0.1,1.6,0.4,2c0.3,0.4,0.9,0.6,1.8,0.6c0.9,0,1.7-0.3,2.3-0.9
		c0.7-0.6,1.2-1.5,1.5-2.6c-1.4,0.1-2.6,0.3-3.6,0.8c-0.1,0.1-0.2,0.1-0.3,0.1c-0.2,0-0.4-0.1-0.6-0.3c-0.1-0.2-0.2-0.3-0.2-0.5
		c0-0.3,0.1-0.5,0.4-0.7c1.1-0.7,3-1,5.6-1c0.2,0,0.4,0.1,0.5,0.2c0.1,0.1,0.2,0.3,0.2,0.6C169.3,201.3,169.1,201.5,168.9,201.6"/>
	<path class="st1" d="M168.9,201.6c-0.3,1.5-1,2.8-2,3.7c-1,0.9-2.2,1.4-3.5,1.4c-1.2,0-2.2-0.3-2.8-1c-0.6-0.7-0.9-1.7-0.9-3.1
		c0-1.3,0.3-2.7,0.9-4c0.6-1.4,1.4-2.5,2.4-3.4c0.6-0.6,1.3-0.9,2-0.9c0.5,0,1.1,0.2,1.8,0.5c0.9,0.4,1.4,0.8,1.4,1.2
		c0,0.2-0.1,0.4-0.2,0.6c-0.2,0.2-0.3,0.2-0.5,0.2c-0.1,0-0.3-0.1-0.5-0.2c-0.8-0.5-1.4-0.7-1.9-0.7c-0.4,0-0.8,0.2-1.2,0.6
		c-0.2,0.2-0.5,0.6-0.9,1.1c-1.2,1.5-1.7,3.2-1.7,5c0,0.9,0.1,1.6,0.4,2c0.3,0.4,0.9,0.6,1.8,0.6c0.9,0,1.7-0.3,2.3-0.9
		c0.7-0.6,1.2-1.5,1.5-2.6c-1.4,0.1-2.6,0.3-3.6,0.8c-0.1,0.1-0.2,0.1-0.3,0.1c-0.2,0-0.4-0.1-0.6-0.3c-0.1-0.2-0.2-0.3-0.2-0.5
		c0-0.3,0.1-0.5,0.4-0.7c1.1-0.7,3-1,5.6-1c0.2,0,0.4,0.1,0.5,0.2c0.1,0.1,0.2,0.3,0.2,0.6C169.3,201.3,169.1,201.5,168.9,201.6z"/>
	<path class="st0" d="M175.5,206.5c-1.6,0-2.7-0.5-3.5-1.4c-0.6-0.7-1-1.8-1.2-3.2c-0.1-0.6-0.1-1.9-0.1-3.8c0-0.7,0-1.3,0-1.7
		c0-0.5,0.1-0.8,0.1-1c0.1-0.4,0.4-0.6,0.7-0.6c0.5,0,0.7,0.4,0.7,1.3v4.4c0,3.1,1.1,4.6,3.2,4.6c2,0,3-2.6,3-7.7v-0.7
		c0-0.3,0-0.5,0-0.6c0-0.3,0.1-0.6,0.2-0.8c0.1-0.3,0.4-0.5,0.6-0.5c0.5,0,0.8,0.3,0.8,1c0,0.2,0,0.5,0,0.9v0.9
		C180,203.6,178.5,206.5,175.5,206.5"/>
	<path class="st1" d="M175.5,206.5c-1.6,0-2.7-0.5-3.5-1.4c-0.6-0.7-1-1.8-1.2-3.2c-0.1-0.6-0.1-1.9-0.1-3.8c0-0.7,0-1.3,0-1.7
		c0-0.5,0.1-0.8,0.1-1c0.1-0.4,0.4-0.6,0.7-0.6c0.5,0,0.7,0.4,0.7,1.3v4.4c0,3.1,1.1,4.6,3.2,4.6c2,0,3-2.6,3-7.7v-0.7
		c0-0.3,0-0.5,0-0.6c0-0.3,0.1-0.6,0.2-0.8c0.1-0.3,0.4-0.5,0.6-0.5c0.5,0,0.8,0.3,0.8,1c0,0.2,0,0.5,0,0.9v0.9
		C180,203.6,178.5,206.5,175.5,206.5z"/>
	<path class="st2" d="M78.7,180.2c3.7,2,8.7,3.7,14.2,5.4c1,0.3,1.9-0.8,1.4-1.7c-3.2-5.6-12.2-18.9-27.8-22.4
		c-17.1-3.8-29.9,12.7-33.7,17.5c-0.3,0.4,0.1,0.9,0.6,0.7l10.3-5.1c0.4-0.2,0.8,0.1,0.8,0.6l-1.8,11.2c-0.2,1.4,1.2,2.4,2.4,1.7
		l9.4-5.3c0,0,0.1-0.1,0.3-0.2v7c0,1.2,1.3,2,2.4,1.5L78.7,180.2"/>
	<path class="st2" d="M78,181.5c2.4,1.3,4.9,2.3,7.5,3.2c1.3,0.5,2.6,0.9,4,1.3c1.3,0.4,2.9,1.2,4.2,1c2.4-0.4,2.6-2.8,1.6-4.5
		c-0.7-1.2-1.4-2.3-2.2-3.4c-4.8-6.9-11.1-13.1-18.8-16.6c-4.5-2.1-9.5-3.4-14.5-3.1c-4.4,0.3-8.6,1.8-12.4,4
		c-6.1,3.5-11,8.6-15.3,14c-0.6,0.8-1.1,1.5-0.7,2.5c0.5,1.2,1.7,1.4,2.8,1c0.9-0.4,1.8-0.9,2.6-1.3c1.6-0.8,3.3-1.6,4.9-2.4
		c0.6-0.3,1.3-0.6,1.9-0.9c0.2-0.1,0.5-0.2,0.6-0.3c0.5-0.4,0,0.5-0.6,0.1c-0.2-0.3-0.5-0.6-0.7-0.9c-0.1-0.6,0.1-0.3,0,0.2
		c-0.1,0.5-0.2,1.1-0.3,1.6c-0.3,1.6-0.5,3.1-0.8,4.7c-0.4,2.2-1.6,5.6,0.4,7.3c2.2,1.9,5.2-0.6,7.2-1.7c2-1.1,4-2.3,6.1-3.4
		c-0.8-0.4-1.5-0.9-2.3-1.3c0,2.3-0.1,4.7,0,7c0.1,2,1.9,3.6,3.9,3.1c0.6-0.1,1.1-0.5,1.6-0.7c5.2-2.6,10.4-5.2,15.6-7.9
		c1.7-0.9,3.4-1.7,5.1-2.6c1.7-0.9,0.2-3.5-1.5-2.6c-3.6,1.8-7.3,3.7-10.9,5.5c-2.5,1.3-5,2.5-7.5,3.8c-0.5,0.3-2.9,1.8-3.3,1.4
		c-0.1-0.1,0-0.9,0-1.1v-2.4v-3.5c0-1.1-1.3-1.8-2.3-1.3c-2.3,1.3-4.6,2.6-6.8,3.9l-1.8,1c-0.2,0.1-0.8,0.6-1,0.6
		c-0.5,0-0.1-1.4,0-1.9c0.5-3,1-5.9,1.4-8.9c0.3-1.7-0.8-3.4-2.7-2.7c-0.8,0.3-1.7,0.8-2.5,1.2c-1.7,0.8-3.4,1.7-5,2.5
		c-0.7,0.4-1.4,0.7-2.1,1.1c-0.2,0.1-0.4,0.2-0.6,0.3c-0.6,0.4-0.1-0.5,0.7,0c0.2,0.3,0.5,0.6,0.7,0.9c0.3,0.7-0.6,1-0.1,0.5
		c0.1-0.1,0.2-0.3,0.3-0.4c0.2-0.3,0.4-0.6,0.7-0.8c0.6-0.8,1.3-1.6,2-2.4c1.6-1.9,3.4-3.7,5.3-5.3c4.4-3.9,9.7-7.1,15.6-8.1
		c12.6-2.1,24.7,7.1,31.7,16.7c0.7,1,1.4,2,2.1,3.1c0.3,0.4,0.5,0.9,0.8,1.3c0.1,0.1,0.2,0.4,0.3,0.5c0.1,0.3,0.3,0.3,0.5-0.1
		c-0.4-0.1-0.8-0.2-1.1-0.3c-4.3-1.3-8.7-2.8-12.7-4.9C77.8,178.1,76.2,180.6,78,181.5"/>
	<path class="st2" d="M181.9,191.6c-2.5-2.7-6.7-7.1-12.1-11.6c-17.7-14.8-48.8-36.1-64.3,6.7c-0.2,0.5-0.7,15.3,1.6,19.1
		c0.1,0.2,0.4,0.2,0.5,0l8.9-13.5l0.3-0.4c0.3-0.5,1-0.4,1.3,0.1c1.4,2.9,4.1,5.3,5,7c0.2,0.4,0.9,1.1,1.2,0.7l7.5-8.1
		c0.5-0.8,1.7-0.6,2,0.2l4.1,9.3c0,0,0,0,0.1,0.1c0.1,0.2,0.3,0.4,0.4,0.6c0.2,0.3,0.6,0.9-0.1,0c0.5,0.7,0.9,1.3,0.9,2.2l0.4,1
		c0.1,0.2,0.4,0.2,0.5,0l6.6-13.7c0-0.1,0.2-0.2,0.3-0.2c8.8,0.7,18,1.1,27.5,1.1c2.4,0,4.9,0,7.2-0.1
		C182,192.1,182.1,191.8,181.9,191.6"/>
	<path class="st2" d="M183,190.6c-5.4-5.9-11.4-11.2-17.8-16.1c-4.8-3.7-9.8-7.1-15.2-9.8c-5.2-2.6-10.8-4.5-16.7-4.7
		c-5.9-0.2-11.4,1.8-16,5.4c-6.3,5-10.2,12.5-13,19.9c-0.7,2-0.6,4.1-0.6,6.2c0,3.4,0.1,6.7,0.6,10.1c0.2,1.7,1.7,8.5,4.5,5
		c1.1-1.3,1.9-2.9,2.9-4.3c1.6-2.4,3.2-4.8,4.7-7.1c0.4-0.6,1-1.2,1.3-1.9c0,0,0.1-0.1,0.1-0.1c0,0,0.1-0.1,0.1-0.1
		c0.2-0.7-0.9,0.7-0.9,0.2c-0.1,0.3,0.8,1.3,1,1.5c0.4,0.5,0.7,1,1.1,1.5c0.7,0.8,1.4,1.6,2,2.5c0.5,0.7,0.9,1.6,1.6,2.1
		c1.1,0.8,2.1,0.4,2.9-0.4c1.8-1.9,3.5-3.8,5.3-5.7c0.5-0.6,1.4-1.2,1.8-1.9c0.1-0.2-0.3-0.3-0.2-0.1c0.1,0.4,0.3,0.7,0.5,1.1
		c1.1,2.4,2.1,4.9,3.2,7.3c0.3,0.7,0.7,1.2,1,1.9c-0.1-0.4-0.1-0.8-0.2-1.2l0,0c0.8-0.2,1.7-0.4,2.5-0.7c-0.1-0.2-0.3-0.3-0.4-0.5
		c-1-1.3-3.4,0.4-2.4,1.8c0.9,1.3,0.8,3,2.2,3.9c0.4,0.3,1.1,0.3,1.5,0c1.3-0.8,1.8-2.7,2.4-4c1.2-2.4,2.3-4.8,3.5-7.2
		c0.4-0.8,0.8-1.7,1.2-2.5c0.1-0.2,0.3-0.4,0.3-0.6c0,0,0.1-0.1,0.1-0.1c-0.1,0.2-0.3,0.4-0.4,0.6c0.2,0,0.4,0,0.6,0
		c0.3,0.1,0.8,0.1,1.2,0.1c5.2,0.4,10.5,0.6,15.7,0.8c3.1,0.1,6.1,0.1,9.2,0.1c1.5,0,3,0,4.6,0c1.2,0,2.9,0.3,4-0.4
		c0.6-0.4,0.8-1,0.7-1.7c0-0.1,0-0.2,0-0.3c-0.3-1.9-3.2-1.1-2.9,0.8c0,0.1,0,0.2,0,0.3c0.2-0.6,0.5-1.1,0.7-1.7
		c-0.2,0.1-1.1,0-1.3,0c-0.7,0-1.4,0-2.1,0c-1.4,0-2.8,0-4.3,0c-2.7,0-5.3,0-8-0.1c-5.3-0.1-10.7-0.4-16-0.8
		c-1.4-0.1-3.3-0.6-4.2,0.8c-0.3,0.5-0.6,1.2-0.8,1.8c-1.1,2.3-2.2,4.5-3.3,6.8c-0.6,1.2-1.1,2.3-1.7,3.5c-0.2,0.4-0.4,0.7-0.5,1.1
		c-0.2,0.5-0.4,0.4,0.1,0.1h1.5c0.5,0.4,0.1,0.3,0.1-0.1c0-0.2-0.1-0.4-0.2-0.5c-0.3-0.8-0.5-1.4-1-2.2c-0.8,0.6-1.6,1.2-2.3,1.8
		c0.1,0.2,0.3,0.3,0.4,0.5c0.7,0.9,2.2,0.4,2.5-0.7c0.2-0.7-0.2-1.4-0.6-1.9c-0.1-0.2-0.5-1-0.3-0.4c-0.1-0.1-0.1-0.2-0.1-0.3
		c-0.4-1.2-1-2.4-1.6-3.5c-0.6-1.4-1.2-2.8-1.8-4.1c-0.4-0.9-0.7-1.9-1.7-2.3c-2.5-1.2-4.5,2-5.9,3.6c-1.1,1.1-2.1,2.3-3.2,3.4
		c-0.4,0.4-0.8,0.8-1.1,1.2c-0.1,0.2-0.6,0.4-0.4,0.4c0.4,0,0.8-0.1,1.2-0.2c-0.3-0.1-1.2-1.7-1.4-2.1c-0.7-0.9-1.5-1.7-2.1-2.7
		c-1-1.4-1.9-4.3-4.2-3.4c-1.3,0.5-2.3,2.6-3,3.7c-1.5,2.3-3,4.6-4.6,6.9c-0.6,1-1.3,1.9-1.9,2.9c-0.2,0.3-0.4,0.6-0.6,0.9
		c-0.3,0.5-0.4,0.2,0,0h1.5c0.4,0.2,0.1,0.2,0-0.2c-0.1-0.4-0.2-0.7-0.3-1.1c-0.2-0.8-0.4-1.6-0.5-2.5c-0.3-2-0.4-4-0.5-6
		c-0.1-1.8-0.1-3.6,0-5.3c0-0.6,0-1.2,0.1-1.9c0-0.2,0-0.4,0-0.6c0-0.1,0.1-0.6,0-0.2c0.1-0.5,0.9-2.3,1.3-3.3
		c0.6-1.3,1.2-2.7,1.8-4c1.1-2.1,2.3-4.2,3.7-6.1c2.2-3.1,4.9-5.9,8.2-7.8c12.2-7.2,26.6,0.5,36.9,7.6c8,5.6,15.4,12.1,22,19.2
		C182.2,194.1,184.3,192,183,190.6"/>
	<path class="st3" d="M239.9,126.3c-3.8-0.8-7.7-1.5-11.8-2.1c-0.8-0.1-1.2,0.8-0.7,1.4c11.9,12.3,24.6,27.4,37.8,45.8l3,4.6
		c0.2,0.3,0.7,0.5,1,0.3c12.2-5.7,19.4-12.8,19.4-20.4C288.7,143.3,269.1,132.3,239.9,126.3"/>
	<path class="st3" d="M240.3,124.9c-1.9-0.4-3.8-0.8-5.8-1.1c-2-0.4-4.1-0.9-6.2-1c-1.2-0.1-2.3,0.6-2.6,1.8
		c-0.3,1.6,1.1,2.6,2.1,3.6c4.7,4.9,9.2,10,13.6,15.2c8.7,10.2,17.2,20.7,24.5,31.9c0.3,0.5,0.6,1,0.9,1.4c1.1,1.4,2.4,1.2,3.9,0.5
		c3.1-1.5,6.2-3.2,9-5.2c4.2-3.1,8.3-7,9.8-12.1c2.4-8.2-3.4-15.3-9.6-19.9c-5-3.7-10.8-6.4-16.6-8.6
		C255.9,128.6,248.1,126.5,240.3,124.9c-1.9-0.4-2.7,2.5-0.8,2.9c11.5,2.4,23.3,5.6,33.6,11.4c5.8,3.3,13.3,8.3,14,15.6
		c0.4,4.1-1.7,7.9-4.5,10.8c-1.9,2-4.1,3.7-6.3,5.1c-1.2,0.8-2.5,1.5-3.8,2.2c-0.7,0.4-1.5,0.8-2.2,1.1c-0.1,0.1-1.3,0.5-1.3,0.6
		c0-0.1,0.4,0.8,0.4,0.4c0-0.4-0.8-1.2-1-1.6c-0.5-0.8-1-1.5-1.5-2.3c-1.5-2.3-3.2-4.4-4.8-6.6c-4.1-5.5-8.3-11-12.7-16.3
		c-4.4-5.5-9-10.8-13.7-16c-1.1-1.2-2.2-2.4-3.3-3.6c-0.6-0.6-1.1-1.2-1.7-1.8c-0.4-0.5-1.1-1.4-1.7-1.7c-0.1-0.1-0.2-0.2-0.3-0.3
		c-0.7,0.6-0.8,0.9-0.2,0.9c0.3,0.2,1.1,0.2,1.5,0.2c1.1,0.2,2.2,0.4,3.3,0.5c2,0.4,4,0.7,6.1,1.1
		C241.4,128.2,242.2,125.3,240.3,124.9"/>
	<path class="st3" d="M12,146.2c1.9,0,1.9-3,0-3C10.1,143.2,10.1,146.2,12,146.2"/>
	<path class="st4" d="M70.3,116.5c1.9,0,1.9-3,0-3C68.4,113.5,68.4,116.5,70.3,116.5"/>
	<path class="st0" d="M237.2,147.2c-7.6-9.1-14.9-17.2-22-24.2c-96.6-96.1-149.4-12.5-154.2-4.3c-0.2,0.4-0.6,0.7-1.1,0.9
		c-5.3,1.8-38.7,13.8-47.8,25.2c0,0-2.6,3,7.1,6c0.3,0.1,0.5,0.1,0.8,0.1l16.2-1.6c0,0,0,0,0,0c9.8,0,17.6,0.9,21,1.6
		c0.2,0,1.1,0.2,2.1,0.5c26.2,6,40.4,26.9,40.5,27.8c0,0,0,0.1,0.1,0.2c0.6,0.7,1.8,0.6,2.2-0.3c23.1-51.6,68.6-7.7,80.1,4.7
		c0,0,3,3.2,6.7,7.2c0.3,0.3,0.8,0.5,1.2,0.5c27.4-0.6,52-4.9,69.3-11.5c1-0.4,1.3-1.5,0.8-2.4c-1.2-1.8-2.7-4.2-2.7-4.2
		C250.5,163.8,243.7,155.1,237.2,147.2"/>
	<path class="st0" d="M238.2,146.1c-11-13.2-22.8-25.8-35.9-37c-10.9-9.3-22.7-17.8-35.6-23.9c-17.5-8.4-37.3-12.2-56.4-7.2
		c-13.7,3.6-25.9,11.4-35.9,21.3c-3.7,3.6-7,7.6-10.1,11.7c-1,1.4-2.1,2.8-3,4.3c-0.5,0.8-1,2-1.7,2.7c-0.8,0.7-2.5,1-3.5,1.4
		c-1.9,0.7-3.8,1.4-5.7,2.2c-5.1,2-10.1,4.1-15,6.4c-5.2,2.4-10.4,5.1-15.3,8.2c-2.1,1.3-4.1,2.8-6,4.4c-1.2,1-2.7,2.2-3.5,3.6
		c-2,3.5,3,6.1,5.5,7.1c1.8,0.7,3.3,1.1,5.2,0.9c2-0.2,4-0.4,6-0.6c3.4-0.3,6.8-0.9,10.1-0.8c6.4,0,13,0.3,19.4,1.5
		c12.4,2.5,23.8,8.6,32.9,17.2c2.6,2.5,5.2,5.2,7.3,8.1c0.4,0.5,0.8,1.6,1.3,2c0,0-0.1-0.3-0.1-0.5c0,0.6,0.3,1,0.7,1.4
		c1.1,1,2.9,0.9,3.9-0.2c1.1-1.2,1.6-3.2,2.3-4.6c0.8-1.5,1.7-3,2.6-4.5c1.6-2.5,3.4-4.9,5.5-7c3.3-3.4,7.4-6.1,12-7.4
		c8.6-2.4,17.7,0.1,25.4,4c8,4,15.1,9.4,21.7,15.4c2.5,2.3,4.9,4.6,7.3,7.1c0.9,1,1.8,1.9,2.7,2.9c1.1,1.1,2.1,2.3,3.2,3.4
		c1.3,1.4,2.4,3.2,4.4,3.3c2.2,0.1,4.4-0.1,6.6-0.2c2.4-0.1,4.7-0.2,7.1-0.4c4.2-0.3,8.3-0.7,12.5-1.1c7.8-0.9,15.5-2.1,23.2-3.8
		c6.6-1.5,13.2-3.3,19.6-5.7c1.4-0.5,2.5-1.1,2.8-2.7c0.3-1.7-1.1-3.2-2-4.6c-2-3-4.1-5.8-6.2-8.7
		C248.6,159,243.5,152.5,238.2,146.1c-1.2-1.5-3.3,0.6-2.1,2.1c5.4,6.5,10.6,13.1,15.6,19.9c2.1,2.8,4.1,5.6,6,8.5
		c0.3,0.5,1.2,1.4,0.9,1.9c-0.2,0.3-1.7,0.6-2.1,0.8c-1.5,0.5-3,1-4.5,1.5c-14.4,4.5-29.4,6.9-44.4,8.1c-4.3,0.4-8.6,0.6-12.9,0.8
		c-1,0-2,0.1-3,0.1c-1.2,0-1.7,0.2-2.6-0.7c-1.3-1.4-2.7-2.9-4-4.3c-2-2.1-3.9-4.2-6-6.3c-5.8-5.7-12-11-18.8-15.5
		c-7.3-4.9-15.6-8.9-24.5-9.9c-9.2-1.1-18.1,2.2-24.6,8.7c-4.4,4.4-7.7,9.8-10.3,15.4c-0.1,0.2-0.1,0.3-0.2,0.5
		c-0.4,0.5-0.3,0.9,0.3,1.3c-0.4,0.3,0-0.3-0.1-0.4c-0.1-0.2-0.1-0.3-0.2-0.5c-0.1-0.2-0.3-0.5-0.4-0.7c-0.6-1-1.4-1.9-2.1-2.9
		c-6-7.6-13.8-14-22.4-18.5c-5.9-3.1-12.2-5.4-18.7-6.7c-6.1-1.2-12.5-1.5-18.8-1.6c-3.4-0.1-6.8,0.4-10.3,0.7c-2,0.2-4,0.4-6.1,0.6
		c-1.5,0.1-2.5,0.3-3.9-0.2c-1.4-0.5-2.9-1.1-4.2-2c-0.5-0.4-0.9-1-1-1.2c-0.1-0.1,0-0.1,0-0.1c0,0,0.5-0.7-0.1,0.1
		c0.3-0.4,0.6-0.7,0.9-1c3.3-3.6,7.6-6.2,11.8-8.6c9.2-5.3,19.1-9.4,29-13.1c2.4-0.9,6.2-1.6,7.7-3.8c0.6-0.9,1.2-1.9,1.8-2.8
		c2.3-3.5,4.6-6.4,7.3-9.6c8.2-9.5,18.3-17.5,29.9-22.5c15.9-6.9,33.5-7,49.9-2c26.8,8.2,49.4,27.5,68.4,47.5
		c5.7,6,11.2,12.2,16.5,18.5C237.3,149.7,239.4,147.6,238.2,146.1"/>
	<path class="st4" d="M76,116.2c0,1.8-1.4,3.2-3.2,3.2c-1.8,0-3.2-1.4-3.2-3.2c0-1.8,1.4-3.2,3.2-3.2C74.5,113,76,114.5,76,116.2"/>
	<path class="st5" d="M76,116.2c0,1.8-1.4,3.2-3.2,3.2c-1.8,0-3.2-1.4-3.2-3.2c0-1.8,1.4-3.2,3.2-3.2C74.5,113,76,114.5,76,116.2z"
		/>
	<path class="st0" d="M108.9,206.7c1.9-2.8,3.8-5.7,5.7-8.5c1-1.5,2-3,2.9-4.4c0.1-0.1,0.6-0.7,0.5-0.8l-1,0.4
		c0.2,0.3,0.3,0.6,0.5,0.9c0.2,0.3,0.4,0.6,0.6,0.8c0.6,0.9,1.3,1.8,2,2.6c1.2,1.5,2.9,5.2,5.3,3.1c1.3-1.2,2.4-2.6,3.6-3.9
		c0.7-0.8,1.4-1.6,2.2-2.3c0.4-0.4,1.2-1,1.4-1.5c0.1-0.3-0.1-0.4,0-0.1c0.1,0.6,0.6,1.3,0.8,1.8c1.6,3.7,3.3,7.4,4.9,11.1
		c0.8,1.8,3.4,0.2,2.6-1.5c-1.7-3.8-3.4-7.6-5-11.4c-0.8-1.7-1.8-4-4.3-2.9c-0.6,0.3-1.1,1-1.6,1.5c-0.8,0.8-1.5,1.6-2.3,2.5l-3,3.2
		c-0.4,0.4-0.7,0.8-1.1,1.1c-0.1,0.2-0.6,0.5-0.4,0.4c0.4,0,0.8-0.1,1.2-0.2c-0.3-0.1-1.2-1.7-1.4-2.1c-0.7-0.9-1.5-1.7-2.1-2.7
		c-1-1.4-1.9-4.3-4.2-3.4c-1.3,0.5-2.3,2.6-3,3.7c-2.4,3.7-4.9,7.4-7.3,11.1C105.3,206.8,107.9,208.3,108.9,206.7"/>
</g>
</svg>
