<?xml version="1.0" encoding="utf-8"?>
<!-- Generator: Adobe Illustrator 22.1.0, SVG Export Plug-In . SVG Version: 6.00 Build 0)  -->
<svg version="1.1" id="Layer_1" xmlns="http://www.w3.org/2000/svg" xmlns:xlink="http://www.w3.org/1999/xlink" x="0px" y="0px"
	 viewBox="0 0 782.9 134.8" style="enable-background:new 0 0 782.9 134.8;" xml:space="preserve">
<style type="text/css">
	.st0{fill:#414042;}
	.st1{fill:none;stroke:#414042;stroke-width:2.2266;stroke-miterlimit:10;}
</style>
<path class="st0" d="M486.5,119.1c0-0.7,0-1.4,0-2.1h0.8c0,0.2,0,1,0,1.4c0.3-0.8,1.2-1.6,2.7-1.6c1.3,0,2.2,0.5,2.5,1.5
	c0.5-0.9,1.3-1.5,2.9-1.5c1.4,0,2.8,0.7,2.8,3v5.3h-0.9v-5.2c0-1.1-0.5-2.2-2.1-2.2c-1.7,0-2.4,1.2-2.4,2.7v4.6H492v-5.2
	c0-1.2-0.3-2.2-2-2.2c-1.7,0-2.5,1.4-2.5,3v4.4h-0.9V119.1z"/>
<path class="st0" d="M509.5,123.5c0,0.7,0.1,1.2,0.1,1.5h-0.8c-0.1-0.2-0.1-0.5-0.1-1.2c-0.3,0.5-1,1.4-2.9,1.4
	c-2.1,0-2.9-1.2-2.9-2.4c0-1.8,1.5-2.5,4.2-2.5c0.7,0,1.3,0,1.6,0v-0.8c0-0.8-0.2-1.9-2.3-1.9c-1.7,0-2.1,0.9-2.2,1.5h-0.9
	c0.1-0.9,0.7-2.2,3.1-2.2c2,0,3.1,0.8,3.1,2.5L509.5,123.5L509.5,123.5z M508.6,120.8c-0.3,0-1.2,0-1.7,0c-2,0-3.1,0.4-3.1,1.9
	c0,1,0.8,1.6,2.1,1.6c2.5,0,2.9-1.5,2.9-3.3L508.6,120.8L508.6,120.8z"/>
<path class="st0" d="M514.8,113.1h0.9v1.5h-0.9V113.1z M514.8,117h0.9v8h-0.9V117z"/>
<path class="st0" d="M533.1,124.5c0,2.5-1.3,3.8-3.8,3.8c-2.3,0-3.2-1.2-3.5-2.4h0.9c0.3,1.1,1.3,1.6,2.5,1.6c2.3,0,2.9-1.3,2.9-3.4
	v-0.8c-0.5,1-1.4,1.6-2.9,1.6c-2.1,0-3.6-1.5-3.6-4c0-2.6,1.7-4.2,3.8-4.2c1.8,0,2.5,0.8,2.8,1.4c0-0.4,0-1,0-1.2h0.8
	c0,0.3,0,1.5,0,2.3V124.5z M526.6,120.9c0,1.9,1.2,3.3,2.8,3.3c2.2,0,2.9-1.3,2.9-3.4s-0.7-3.3-2.8-3.3
	C527.4,117.5,526.6,119.1,526.6,120.9z"/>
<path class="st0" d="M545.6,120.9c0,2.2-1.4,4.2-3.9,4.2c-2.4,0-3.8-1.8-3.8-4.2c0-2.3,1.4-4.2,3.9-4.2
	C544,116.8,545.6,118.4,545.6,120.9z M538.6,120.9c0,1.9,1.2,3.4,3,3.4c1.8,0,3-1.4,3-3.4c0-1.9-1-3.4-3-3.4
	C539.6,117.5,538.6,119.1,538.6,120.9z"/>
<path class="st0" d="M550.2,119.1c0-0.7,0-1.4,0-2.1h0.8c0,0.2,0,1,0,1.4c0.3-0.8,1.2-1.6,2.7-1.6c1.3,0,2.2,0.5,2.5,1.5
	c0.5-0.9,1.3-1.5,2.9-1.5c1.4,0,2.8,0.7,2.8,3v5.3h-0.9v-5.2c0-1.1-0.5-2.2-2.1-2.2c-1.7,0-2.4,1.2-2.4,2.7v4.6h-0.8v-5.2
	c0-1.2-0.3-2.2-2-2.2c-1.7,0-2.5,1.4-2.5,3v4.4h-0.9V119.1L550.2,119.1z"/>
<path class="st0" d="M567.2,113.1h0.9v1.5h-0.9V113.1z M567.2,117h0.9v8h-0.9V117z"/>
<path class="st0" d="M573.4,113.1h0.9v5.2c0.5-0.8,1.3-1.5,3-1.5c2.1,0,3.6,1.5,3.6,4c0,2.5-1.4,4.4-3.8,4.4c-1.5,0-2.3-0.5-2.8-1.4
	c0,0.5,0,1,0,1.2h-0.8c0-0.9,0-1.9,0-2.7L573.4,113.1L573.4,113.1z M580,120.8c0-2-1-3.3-2.8-3.3c-2.2,0-3,1.3-3,3.4
	c0,1.9,0.7,3.4,2.9,3.4C578.8,124.3,580,123,580,120.8z"/>
<path class="st0" d="M592.1,122.6c0,0.8,0,2,0,2.3h-0.8c0-0.2,0-0.8,0-1.4c-0.3,1-1.3,1.5-2.8,1.5c-1.3,0-2.9-0.4-2.9-2.9v-5.3h0.8
	v5.1c0,1.2,0.3,2.3,2.2,2.3c2,0,2.7-1,2.7-3.3v-4.1h0.9L592.1,122.6L592.1,122.6z"/>
<path class="st0" d="M603.9,122.6c-0.5,1.4-1.4,2.5-3.5,2.5c-2.2,0-3.8-1.5-3.8-4.2c0-2.2,1.3-4.2,3.8-4.2c2.2,0,3.1,1.4,3.4,2.5
	h-0.9c-0.2-0.9-0.9-1.8-2.4-1.8c-1.8,0-2.9,1.4-2.9,3.4c0,1.9,1,3.4,2.8,3.4c1.3,0,2.1-0.5,2.5-1.8H603.9z"/>
<path class="st0" d="M609.3,113.1v5.2c0.5-0.9,1.4-1.5,2.9-1.5c1.3,0,3,0.5,3,3.1v5.1h-0.9v-4.8c0-1.5-0.8-2.5-2.2-2.5
	c-1.7,0-2.8,1-2.8,3v4.5h-0.9v-11.7L609.3,113.1L609.3,113.1L609.3,113.1z"/>
<path class="st0" d="M620.5,113.1h0.9v1.5h-0.9V113.1z M620.5,117h0.9v8h-0.9V117z"/>
<g>
	<path class="st0" d="M641.9,117c1.2,4.1,2,6.5,2.1,7.1l0,0c0.1-0.7,0.9-3.2,2.2-7.1h0.9c1.5,4.9,2,6.4,2.1,7l0,0
		c0.2-0.9,0.6-2.1,2.1-7h0.9l-2.5,8h-0.9c-0.9-2.9-2-6.3-2.1-7l0,0c-0.1,0.8-1,3.6-2.2,7h-0.9l-2.4-8H641.9z"/>
	<path class="st0" d="M656.4,121.1c0,2.1,1,3.3,2.7,3.3c1.5,0,2.1-0.9,2.3-1.5h0.8c-0.3,1.1-1.2,2.2-3.2,2.2c-2.5,0-3.5-2.1-3.5-4.2
		c0-2.3,1.2-4.3,3.6-4.3c2.5,0,3.4,2.1,3.4,3.6c0,0.2,0,0.4,0,0.7h-6V121.1z M661.6,120.3c0-1.5-0.9-2.9-2.5-2.9
		c-1.7,0-2.4,1.1-2.7,2.9H661.6z"/>
	<path class="st0" d="M666.8,113.1h0.8v5.2c0.3-0.8,1.2-1.5,2.8-1.5c2,0,3.4,1.5,3.4,4c0,2.5-1.3,4.4-3.6,4.4
		c-1.4,0-2.2-0.5-2.5-1.4c0,0.5,0,1,0,1.2h-0.8c0-0.9,0-1.9,0-2.7L666.8,113.1L666.8,113.1z M672.9,120.8c0-2-1-3.3-2.5-3.3
		c-2.1,0-2.8,1.3-2.8,3.4c0,1.9,0.7,3.4,2.7,3.4C671.8,124.3,672.9,123,672.9,120.8z"/>
	<path class="st0" d="M684.2,123.8v4.4h-0.9V119c0-0.7,0-1.3,0-2h0.9c0,0.3,0,0.8,0,1.4c0.6-1,1.6-1.6,3.2-1.6c2.2,0,3.7,1.5,3.7,4
		c0,2.9-1.7,4.4-3.9,4.4C685.5,125.1,684.7,124.5,684.2,123.8z M690.1,120.7c0-1.9-1-3.2-2.9-3.2c-2.2,0-3.1,1.2-3.1,3.4
		c0,2.1,0.7,3.5,3,3.5C689,124.3,690.1,122.9,690.1,120.7z"/>
	<path class="st0" d="M703.5,120.9c0,2.2-1.4,4.2-4.2,4.2c-2.4,0-4-1.8-4-4.2c0-2.3,1.5-4.2,4.2-4.2
		C701.9,116.8,703.5,118.4,703.5,120.9z M696.3,120.9c0,1.9,1.2,3.4,3.1,3.4c2,0,3.1-1.4,3.1-3.4c0-1.9-1.2-3.4-3.1-3.4
		C697.2,117.5,696.3,119.1,696.3,120.9z"/>
	<path class="st0" d="M708.3,119.1c0-1.3,0-1.9,0-2.2h0.9c0,0.2,0,0.8,0,1.8c0.6-1.2,1.7-1.9,3.2-2v0.9c-1.8,0.1-3.2,1.2-3.2,3.2
		v4.2h-0.9V119.1z"/>
	<path class="st0" d="M716,117h1.7v-2.5h0.9v2.5h2.2v0.8h-2.2v5.2c0,0.9,0.2,1.4,1.2,1.4c0.2,0,0.7,0,0.9-0.1v0.7
		c-0.3,0.1-0.8,0.1-1.2,0.1c-1.2,0-1.8-0.5-1.8-1.8v-5.6H716V117z"/>
	<path class="st0" d="M725.4,124.9v-7.2h-1.6v-0.8h1.6v-1.1c0-1.3,0.5-2.9,2.5-2.9c0.2,0,0.7,0,0.9,0.1v0.8c-0.2-0.1-0.7-0.1-1-0.1
		c-1,0-1.5,0.7-1.5,2.1v1.1h2v0.8h-2v7.2H725.4z"/>
	<path class="st0" d="M739.8,120.9c0,2.2-1.4,4.2-4.2,4.2c-2.4,0-4-1.8-4-4.2c0-2.3,1.5-4.2,4.2-4.2
		C738.1,116.8,739.8,118.4,739.8,120.9z M732.6,120.9c0,1.9,1.2,3.4,3.1,3.4s3.1-1.4,3.1-3.4c0-1.9-1.2-3.4-3.1-3.4
		C733.6,117.5,732.6,119.1,732.6,120.9z"/>
	<path class="st0" d="M744.6,124.9v-11.7h0.9v11.7H744.6z"/>
	<path class="st0" d="M751.1,113.1h0.9v1.5h-0.9V113.1z M751.1,117h0.9v8h-0.9V117z"/>
	<path class="st0" d="M765.1,120.9c0,2.2-1.4,4.2-4.2,4.2c-2.4,0-4-1.8-4-4.2c0-2.3,1.5-4.2,4.2-4.2
		C763.4,116.8,765.1,118.4,765.1,120.9z M757.9,120.9c0,1.9,1.2,3.4,3.1,3.4s3.1-1.4,3.1-3.4c0-1.9-1.2-3.4-3.1-3.4
		C758.8,117.5,757.9,119.1,757.9,120.9z"/>
</g>
<path class="st1" d="M18.6,119.7l1.5-5.4c2.9,1.1,6.2,1.9,10.1,2.4c3.8,0.7,7.4,0.9,10.5,0.9c6.2,0,12.1-1.1,17.4-3.2
	s9.6-5.4,12.8-9.6c3.4-4.4,4.7-9.6,4.7-15.9c0-7.1-2.5-12.4-7.9-15.7c-5.3-3.2-12.8-4.9-23-4.9l-10.9,0.2l16.4-48.2h46.3l-1.3,6
	H54.7L42.8,62.7l4.4-0.2c11,0,19.6,2.3,25.9,7c6.2,4.5,9.4,11,9.4,19c0,7.1-1.8,13.4-5.7,18.7c-3.7,5.3-8.8,9.2-15.2,11.9
	c-6.5,2.7-13.4,4.1-21.1,4.1c-4.4,0-8.4-0.3-12.5-1.1C24.1,121.8,21,120.9,18.6,119.7z"/>
<g>
	<path class="st0" d="M194.2,124.8l12.5-41.9l3.9,0.2L198,125L194.2,124.8z M209.5,73.2l1.3-4.2l3.9,0.2l-1.3,4.1L209.5,73.2z"/>
	<path class="st0" d="M335.8,108.2c0.2-4,1.3-7.9,3.2-11.9c1.8-4,4.5-7.1,8-9.6c3.5-2.5,7.5-3.5,12.1-3.3c3.8,0.2,7.3,1.2,10.2,2.9
		l-0.9,2.7c-1.2-0.7-2.8-1.2-4.5-1.6c-1.8-0.4-3.5-0.8-5.1-0.9c-3.8-0.2-7.3,0.8-10.1,3.1c-2.8,2.3-5,5.2-6.5,8.6
		c-1.5,3.4-2.4,6.7-2.7,9.9c-0.3,4.4,0.5,7.6,2.3,9.4c1.8,2.1,4.6,3.1,8.3,3.4c2.1,0.1,4,0,5.9-0.3c2-0.3,3.2-0.8,3.9-1.2l-0.9,3
		c-0.9,0.5-2.4,1-4.3,1.3c-1.8,0.3-3.6,0.4-5.4,0.3c-4.5-0.3-8.1-1.6-10.6-4.3C336.5,117.1,335.4,113.3,335.8,108.2"/>
	<path class="st0" d="M401.9,85.8c3.4-3.7,7.3-5.4,11.6-5.1c2.9,0.2,5.1,1.1,6.4,2.9c1.3,1.6,2,4.2,1.7,7.2c-0.1,2.2-0.6,4.8-1.5,8
		l-6.1,25.7l-2.9-0.2l6.2-26.2c0.6-2.7,0.9-5.1,1.2-6.8c0.2-2.6-0.2-4.4-1.3-5.5c-1-1.1-2.7-1.6-4.9-1.8c-2.1-0.1-4,0.3-6,1.5
		c-2,1.1-3.6,2.9-5.1,4.8c-0.3,0.4-0.6,0.9-0.8,1.4 M383.5,124.6l-3.8-0.2l19.5-65l3.8,0.2"/>
	<path class="st0" d="M437.6,125.2l10.2-42.4l3.9,0.1l-10.3,42.4L437.6,125.2z M450.3,73l1-4.2l3.9,0.1l-1,4.2L450.3,73z"/>
	<polygon class="st0" points="118.3,102.3 119.1,99.8 122.4,89.4 122.8,86.1 123.1,83.1 120.2,83 107.5,124.8 111.3,125.1 	"/>
	<path class="st0" d="M156.3,93.4c1.3-1.9,3-3.6,5.1-5.1c3.8-2.9,7.9-4.1,11.8-3.8c2.1,0.1,3.7,0.8,5.1,2.1c1.3,1.2,2,3.2,1.7,5.7
		c-0.1,1.4-0.5,3.2-0.9,4.9l-8.2,27.6l3.8,0.2l7.7-25.7c0.9-3.1,1.5-5.7,1.6-8c0.2-3.1-0.6-5.4-2.4-7.2c-1.8-1.9-4.4-2.9-7.5-3.1
		c-3.2-0.2-6.5,0.3-9.8,1.5c-2.7,1-5.1,2.9-7.3,5.1"/>
	<path class="st0" d="M152.5,91.2v-0.3c0.2-2.7-0.6-4.9-2.5-6.7c-2-1.8-4.5-2.7-7.6-3c-3-0.2-6,0.2-8.9,1.3c-2,0.8-3.6,1.9-5.3,3.1
		l-1.8,5.3c0.2-0.2,0.3-0.5,0.6-0.8c2.1-2.1,4.4-3.6,6.8-4.5c2.5-1,5.1-1.3,7.6-1.2c5.1,0.3,7.4,3,7,7.8c-0.1,1.4-0.5,3.2-0.9,4.9
		l-8.2,27.6l3.9,0.2l7.3-24.2"/>
	<path class="st0" d="M120.9,98.3L120.9,98.3L120.9,98.3z"/>
	<path class="st0" d="M267.6,97.1c0.2,3.6-0.1,7.4-1.3,11.1s-3.1,7-5.9,9.6c-2.8,2.6-6.2,4.1-10.5,4.4c-3.5,0.2-6.6-0.2-9.5-1.3
		l0.5-2.6c1.2,0.4,2.7,0.8,4.3,1c1.7,0.2,3.2,0.3,4.7,0.2c3.6-0.2,6.4-1.5,8.7-4c2.2-2.4,3.7-5.3,4.7-8.6c0.8-3.3,1.2-6.4,0.9-9.1
		c-0.2-4-1.5-6.8-3.4-8.3c-2-1.5-4.6-2.3-8-2.1c-2,0.1-3.7,0.4-5.3,1c-1.7,0.5-2.8,1.1-3.5,1.5l0.5-2.7c0.8-0.7,2.1-1.2,3.6-1.6
		c1.7-0.5,3.2-0.8,4.9-0.9c4-0.2,7.5,0.5,10.2,2.6C265.8,89.1,267.3,92.5,267.6,97.1"/>
	<polyline class="st0" points="228.2,125.1 224.4,124.8 244,59.9 247.8,60.1 	"/>
	<path class="st0" d="M312.6,109.6c-1.3,4.1-3.1,7.2-5.7,9.3c-2.5,2.1-5.9,3.1-10.3,2.9c-3.6-0.2-6.2-1.2-7.9-3
		c-1.6-1.6-2.3-3.8-2.1-6.4c0.1-1.3,0.3-2.6,0.7-4l7-23.4h-3.9l-7,22.9c-0.3,1.3-0.6,2.9-0.7,4.6c-0.6,7.7,4,11.7,13.9,12.4
		c5.2,0.3,9.4-0.7,12.6-3.1c3.2-2.4,5.7-6.6,7.5-12.6l7.4-24.4h-4L312.6,109.6z"/>
</g>
</svg>
