<?xml version="1.0" encoding="utf-8"?>
<!-- Generator: Adobe Illustrator 22.1.0, SVG Export Plug-In . SVG Version: 6.00 Build 0)  -->
<svg version="1.1" id="Layer_1" xmlns="http://www.w3.org/2000/svg" xmlns:xlink="http://www.w3.org/1999/xlink" x="0px" y="0px"
	 viewBox="0 0 244.5 253.8" style="enable-background:new 0 0 244.5 253.8;" xml:space="preserve">
<style type="text/css">
	.st0{fill:#414042;}
	.st1{fill:none;stroke:#414042;stroke-width:0.8642;stroke-miterlimit:10;}
</style>
<path class="st0" d="M67.3,156.1c0-0.3,0-0.5,0-0.8h0.3c0,0.1,0,0.4,0,0.5c0.1-0.3,0.5-0.6,1-0.6c0.5,0,0.9,0.2,1,0.6
	c0.2-0.3,0.5-0.6,1.1-0.6c0.5,0,1.1,0.3,1.1,1.2v2.1h-0.3v-2c0-0.4-0.2-0.9-0.8-0.9c-0.7,0-0.9,0.5-0.9,1v1.8h-0.3v-2
	c0-0.5-0.1-0.9-0.8-0.9s-1,0.5-1,1.2v1.7h-0.3L67.3,156.1L67.3,156.1z"/>
<path class="st0" d="M76.2,157.8c0,0.3,0,0.5,0,0.6h-0.3c0-0.1,0-0.2,0-0.5c-0.1,0.2-0.4,0.5-1.1,0.5c-0.8,0-1.1-0.5-1.1-0.9
	c0-0.7,0.6-1,1.6-1c0.3,0,0.5,0,0.6,0v-0.3c0-0.3-0.1-0.7-0.9-0.7c-0.7,0-0.8,0.3-0.9,0.6h-0.3c0-0.3,0.3-0.9,1.2-0.9
	c0.8,0,1.2,0.3,1.2,1L76.2,157.8L76.2,157.8z M75.8,156.7c-0.1,0-0.5,0-0.7,0c-0.8,0-1.2,0.2-1.2,0.7c0,0.4,0.3,0.6,0.8,0.6
	C75.8,158.1,75.9,157.5,75.8,156.7L75.8,156.7L75.8,156.7z"/>
<path class="st0" d="M78.2,153.8h0.3v0.6h-0.3V153.8z M78.2,155.3h0.3v3.1h-0.3V155.3z"/>
<path class="st0" d="M85.3,158.2c0,1-0.5,1.5-1.5,1.5c-0.9,0-1.2-0.5-1.4-0.9h0.3c0.1,0.4,0.5,0.6,1,0.6c0.9,0,1.1-0.5,1.1-1.3v-0.3
	c-0.2,0.4-0.5,0.6-1.1,0.6c-0.8,0-1.4-0.6-1.4-1.6c0-1,0.7-1.6,1.5-1.6c0.7,0,1,0.3,1.1,0.5c0-0.2,0-0.4,0-0.5h0.3
	c0,0.1,0,0.6,0,0.9L85.3,158.2L85.3,158.2z M82.8,156.8c0,0.7,0.5,1.3,1.1,1.3c0.9,0,1.1-0.5,1.1-1.3s-0.3-1.3-1.1-1.3
	C83.1,155.5,82.8,156.1,82.8,156.8z"/>
<path class="st0" d="M90.2,156.8c0,0.9-0.5,1.6-1.5,1.6c-0.9,0-1.5-0.7-1.5-1.6c0-0.9,0.5-1.6,1.5-1.6
	C89.6,155.2,90.2,155.8,90.2,156.8z M87.5,156.8c0,0.7,0.5,1.3,1.2,1.3s1.2-0.5,1.2-1.3c0-0.7-0.4-1.3-1.2-1.3
	S87.5,156.1,87.5,156.8z"/>
<path class="st0" d="M92,156.1c0-0.3,0-0.5,0-0.8h0.3c0,0.1,0,0.4,0,0.5c0.1-0.3,0.5-0.6,1-0.6c0.5,0,0.9,0.2,1,0.6
	c0.2-0.3,0.5-0.6,1.1-0.6c0.5,0,1.1,0.3,1.1,1.2v2.1h-0.3v-2c0-0.4-0.2-0.9-0.8-0.9c-0.7,0-0.9,0.5-0.9,1v1.8h-0.3v-2
	c0-0.5-0.1-0.9-0.8-0.9s-1,0.5-1,1.2v1.7H92L92,156.1L92,156.1z"/>
<path class="st0" d="M98.6,153.8h0.3v0.6h-0.3V153.8z M98.6,155.3h0.3v3.1h-0.3V155.3z"/>
<path class="st0" d="M101,153.8h0.3v2c0.2-0.3,0.5-0.6,1.2-0.6c0.8,0,1.4,0.6,1.4,1.6s-0.5,1.7-1.5,1.7c-0.6,0-0.9-0.2-1.1-0.5
	c0,0.2,0,0.4,0,0.5H101c0-0.3,0-0.7,0-1L101,153.8L101,153.8z M103.6,156.7c0-0.8-0.4-1.3-1.1-1.3c-0.9,0-1.2,0.5-1.2,1.3
	c0,0.7,0.3,1.3,1.1,1.3C103.1,158.1,103.6,157.6,103.6,156.7z"/>
<path class="st0" d="M108.2,157.4c0,0.3,0,0.8,0,0.9h-0.3c0-0.1,0-0.3,0-0.5c-0.1,0.4-0.5,0.6-1.1,0.6c-0.5,0-1.1-0.2-1.1-1.1v-2.1
	h0.3v2c0,0.5,0.1,0.9,0.9,0.9c0.8,0,1-0.4,1-1.3v-1.6h0.3L108.2,157.4L108.2,157.4z"/>
<path class="st0" d="M112.8,157.4c-0.2,0.5-0.5,1-1.4,1c-0.9,0-1.5-0.6-1.5-1.6c0-0.9,0.5-1.6,1.5-1.6c0.9,0,1.2,0.5,1.3,1h-0.3
	c-0.1-0.3-0.3-0.7-0.9-0.7c-0.7,0-1.1,0.5-1.1,1.3c0,0.7,0.4,1.3,1.1,1.3c0.5,0,0.8-0.2,1-0.7L112.8,157.4L112.8,157.4z"/>
<path class="st0" d="M114.9,153.8v2c0.2-0.3,0.5-0.6,1.1-0.6c0.5,0,1.2,0.2,1.2,1.2v2h-0.3v-1.9c0-0.6-0.3-1-0.9-1
	c-0.7,0-1.1,0.4-1.1,1.2v1.7h-0.3v-4.5L114.9,153.8L114.9,153.8L114.9,153.8z"/>
<path class="st0" d="M119.3,153.8h0.3v0.6h-0.3V153.8z M119.3,155.3h0.3v3.1h-0.3V155.3z"/>
<g>
	<path class="st0" d="M127.6,155.3c0.5,1.6,0.8,2.5,0.8,2.8l0,0c0-0.3,0.3-1.2,0.9-2.8h0.3c0.6,1.9,0.8,2.5,0.8,2.7l0,0
		c0.1-0.3,0.2-0.8,0.8-2.7h0.3l-1,3.1h-0.3c-0.3-1.1-0.8-2.4-0.8-2.7l0,0c0,0.3-0.4,1.4-0.9,2.7h-0.3l-0.9-3.1H127.6z"/>
	<path class="st0" d="M133.2,156.9c0,0.8,0.4,1.3,1,1.3c0.6,0,0.8-0.3,0.9-0.6h0.3c-0.1,0.4-0.5,0.9-1.2,0.9c-1,0-1.4-0.8-1.4-1.6
		c0-0.9,0.5-1.7,1.4-1.7c1,0,1.3,0.8,1.3,1.4c0,0.1,0,0.2,0,0.3L133.2,156.9L133.2,156.9L133.2,156.9z M135.2,156.6
		c0-0.6-0.3-1.1-1-1.1c-0.7,0-0.9,0.4-1,1.1H135.2z"/>
	<path class="st0" d="M137.2,153.8h0.3v2c0.1-0.3,0.5-0.6,1.1-0.6c0.8,0,1.3,0.6,1.3,1.6s-0.5,1.7-1.4,1.7c-0.5,0-0.9-0.2-1-0.5
		c0,0.2,0,0.4,0,0.5h-0.3c0-0.3,0-0.7,0-1L137.2,153.8L137.2,153.8z M139.6,156.7c0-0.8-0.4-1.3-1-1.3c-0.8,0-1.1,0.5-1.1,1.3
		c0,0.7,0.3,1.3,1,1.3C139.2,158.1,139.6,157.6,139.6,156.7z"/>
	<path class="st0" d="M144,157.9v1.7h-0.3V156c0-0.3,0-0.5,0-0.8h0.3c0,0.1,0,0.3,0,0.5c0.2-0.4,0.6-0.6,1.2-0.6
		c0.9,0,1.4,0.6,1.4,1.6c0,1.1-0.7,1.7-1.5,1.7C144.5,158.4,144.2,158.2,144,157.9z M146.3,156.7c0-0.7-0.4-1.2-1.1-1.2
		c-0.9,0-1.2,0.5-1.2,1.3c0,0.8,0.3,1.4,1.2,1.4C145.9,158.1,146.3,157.6,146.3,156.7z"/>
	<path class="st0" d="M151.5,156.8c0,0.9-0.5,1.6-1.6,1.6c-0.9,0-1.6-0.7-1.6-1.6c0-0.9,0.6-1.6,1.6-1.6
		C150.9,155.2,151.5,155.8,151.5,156.8z M148.7,156.8c0,0.7,0.5,1.3,1.2,1.3c0.8,0,1.2-0.5,1.2-1.3c0-0.7-0.5-1.3-1.2-1.3
		C149,155.5,148.7,156.1,148.7,156.8z"/>
	<path class="st0" d="M153.4,156.1c0-0.5,0-0.7,0-0.9h0.3c0,0.1,0,0.3,0,0.7c0.2-0.5,0.7-0.7,1.2-0.8v0.3c-0.7,0-1.2,0.5-1.2,1.2
		v1.6h-0.3V156.1z"/>
	<path class="st0" d="M156.3,155.3h0.7v-1h0.3v1h0.9v0.3h-0.9v2c0,0.3,0.1,0.5,0.5,0.5c0.1,0,0.3,0,0.3,0v0.3c-0.1,0-0.3,0-0.5,0
		c-0.5,0-0.7-0.2-0.7-0.7v-2.2h-0.7V155.3z"/>
	<path class="st0" d="M160,158.3v-2.8h-0.6v-0.3h0.6v-0.4c0-0.5,0.2-1.1,1-1.1c0.1,0,0.3,0,0.3,0v0.3c-0.1,0-0.3,0-0.4,0
		c-0.4,0-0.6,0.3-0.6,0.8v0.4h0.8v0.3h-0.8v2.8H160z"/>
	<path class="st0" d="M165.6,156.8c0,0.9-0.5,1.6-1.6,1.6c-0.9,0-1.6-0.7-1.6-1.6c0-0.9,0.6-1.6,1.6-1.6
		C164.9,155.2,165.6,155.8,165.6,156.8z M162.8,156.8c0,0.7,0.5,1.3,1.2,1.3s1.2-0.5,1.2-1.3c0-0.7-0.5-1.3-1.2-1.3
		C163.2,155.5,162.8,156.1,162.8,156.8z"/>
	<path class="st0" d="M167.4,158.3v-4.5h0.3v4.5H167.4z"/>
	<path class="st0" d="M170,153.8h0.3v0.6H170V153.8z M170,155.3h0.3v3.1H170V155.3z"/>
	<path class="st0" d="M175.4,156.8c0,0.9-0.5,1.6-1.6,1.6c-0.9,0-1.6-0.7-1.6-1.6c0-0.9,0.6-1.6,1.6-1.6
		C174.7,155.2,175.4,155.8,175.4,156.8z M172.6,156.8c0,0.7,0.5,1.3,1.2,1.3c0.7,0,1.2-0.5,1.2-1.3c0-0.7-0.5-1.3-1.2-1.3
		C173,155.5,172.6,156.1,172.6,156.8z"/>
</g>
<path class="st1" d="M32.9,138.2l0.6-2.1c1.1,0.4,2.4,0.7,3.9,0.9c1.5,0.3,2.9,0.3,4.1,0.3c2.4,0,4.7-0.4,6.8-1.2
	c2.1-0.8,3.7-2.1,5-3.7c1.3-1.7,1.8-3.7,1.8-6.2c0-2.8-1-4.8-3.1-6.1c-2.1-1.2-5-1.9-8.9-1.9l-4.2,0.1l6.4-18.7h18l-0.5,2.3H46.9
	l-4.6,14.1L44,116c4.3,0,7.6,0.9,10.1,2.7c2.4,1.7,3.6,4.3,3.6,7.4c0,2.8-0.7,5.2-2.2,7.3c-1.4,2.1-3.4,3.6-5.9,4.6
	c-2.5,1-5.2,1.6-8.2,1.6c-1.7,0-3.3-0.1-4.9-0.4C35,139,33.8,138.6,32.9,138.2z"/>
<g>
	<path class="st0" d="M101,140.2l4.9-16.3l1.5,0.1l-4.9,16.3L101,140.2z M107,120.1l0.5-1.6l1.5,0.1l-0.5,1.6L107,120.1z"/>
	<path class="st0" d="M156,133.7c0.1-1.6,0.5-3.1,1.2-4.6c0.7-1.6,1.7-2.8,3.1-3.7c1.4-1,2.9-1.4,4.7-1.3c1.5,0.1,2.8,0.5,4,1.1
		l-0.3,1c-0.5-0.3-1.1-0.5-1.7-0.6c-0.7-0.2-1.4-0.3-2-0.3c-1.5-0.1-2.8,0.3-3.9,1.2c-1.1,0.9-1.9,2-2.5,3.3c-0.6,1.3-0.9,2.6-1,3.8
		c-0.1,1.7,0.2,2.9,0.9,3.6c0.7,0.8,1.8,1.2,3.2,1.3c0.8,0,1.6,0,2.3-0.1c0.8-0.1,1.2-0.3,1.5-0.5l-0.3,1.2
		c-0.3,0.2-0.9,0.4-1.7,0.5c-0.7,0.1-1.4,0.2-2.1,0.1c-1.7-0.1-3.1-0.6-4.1-1.7C156.3,137.2,155.9,135.7,156,133.7"/>
	<path class="st0" d="M181.7,125c1.3-1.4,2.8-2.1,4.5-2c1.1,0.1,2,0.4,2.5,1.1c0.5,0.6,0.8,1.6,0.7,2.8c0,0.9-0.2,1.9-0.6,3.1
		l-2.4,10l-1.1-0.1l2.4-10.2c0.2-1,0.3-2,0.5-2.6c0.1-1-0.1-1.7-0.5-2.1c-0.4-0.4-1-0.6-1.9-0.7c-0.8,0-1.6,0.1-2.3,0.6
		c-0.8,0.4-1.4,1.1-2,1.9c-0.1,0.2-0.2,0.3-0.3,0.5 M174.5,140.1L173,140l7.6-25.2l1.5,0.1"/>
	<path class="st0" d="M195.5,140.3l4-16.5l1.5,0l-4,16.5L195.5,140.3z M200.4,120.1l0.4-1.6l1.5,0l-0.4,1.6L200.4,120.1z"/>
	<polygon class="st0" points="71.6,131.4 71.9,130.5 73.2,126.4 73.3,125.1 73.4,124 72.3,123.9 67.4,140.2 68.9,140.3 	"/>
	<path class="st0" d="M86.3,128c0.5-0.7,1.2-1.4,2-2c1.5-1.1,3.1-1.6,4.6-1.5c0.8,0,1.4,0.3,2,0.8c0.5,0.5,0.8,1.2,0.7,2.2
		c0,0.5-0.2,1.2-0.3,1.9L92,140.2l1.5,0.1l3-10c0.3-1.2,0.6-2.2,0.6-3.1c0.1-1.2-0.2-2.1-0.9-2.8c-0.7-0.7-1.7-1.1-2.9-1.2
		c-1.2-0.1-2.5,0.1-3.8,0.6c-1,0.4-2,1.1-2.8,2"/>
	<path class="st0" d="M84.9,127.1V127c0.1-1-0.2-1.9-1-2.6c-0.8-0.7-1.7-1-2.9-1.2c-1.2-0.1-2.3,0.1-3.5,0.5
		c-0.8,0.3-1.4,0.7-2.1,1.2l-0.7,2.1c0.1-0.1,0.1-0.2,0.2-0.3c0.8-0.8,1.7-1.4,2.6-1.7c1-0.4,2-0.5,2.9-0.5c2,0.1,2.9,1.2,2.7,3
		c0,0.5-0.2,1.2-0.3,1.9l-3.2,10.7l1.5,0.1l2.8-9.4"/>
	<path class="st0" d="M72.6,129.9L72.6,129.9L72.6,129.9z"/>
	<path class="st0" d="M129.5,129.4c0.1,1.4,0,2.9-0.5,4.3c-0.5,1.4-1.2,2.7-2.3,3.7c-1.1,1-2.4,1.6-4.1,1.7
		c-1.4,0.1-2.6-0.1-3.7-0.5l0.2-1c0.5,0.2,1,0.3,1.7,0.4c0.7,0.1,1.2,0.1,1.8,0.1c1.4-0.1,2.5-0.6,3.4-1.6c0.9-0.9,1.4-2.1,1.8-3.3
		c0.3-1.3,0.5-2.5,0.3-3.5c-0.1-1.6-0.6-2.6-1.3-3.2c-0.8-0.6-1.8-0.9-3.1-0.8c-0.8,0-1.4,0.2-2.1,0.4c-0.7,0.2-1.1,0.4-1.4,0.6
		l0.2-1c0.3-0.3,0.8-0.5,1.4-0.6c0.7-0.2,1.2-0.3,1.9-0.3c1.6-0.1,2.9,0.2,4,1C128.8,126.3,129.4,127.6,129.5,129.4"/>
	<polyline class="st0" points="114.2,140.3 112.8,140.2 120.4,115 121.8,115 	"/>
	<path class="st0" d="M147,134.3c-0.5,1.6-1.2,2.8-2.2,3.6c-1,0.8-2.3,1.2-4,1.1c-1.4-0.1-2.4-0.5-3.1-1.2c-0.6-0.6-0.9-1.5-0.8-2.5
		c0-0.5,0.1-1,0.3-1.6l2.7-9.1h-1.5l-2.7,8.9c-0.1,0.5-0.2,1.1-0.3,1.8c-0.2,3,1.6,4.5,5.4,4.8c2,0.1,3.6-0.3,4.9-1.2
		s2.2-2.6,2.9-4.9l2.9-9.5h-1.6L147,134.3z"/>
</g>
</svg>
