<?xml version="1.0" encoding="utf-8"?>
<!-- Generator: Adobe Illustrator 22.1.0, SVG Export Plug-In . SVG Version: 6.00 Build 0)  -->
<svg version="1.1" id="Layer_1" xmlns="http://www.w3.org/2000/svg" xmlns:xlink="http://www.w3.org/1999/xlink" x="0px" y="0px"
	 viewBox="0 0 300 354.5" style="enable-background:new 0 0 300 354.5;" xml:space="preserve">
<style type="text/css">
	.st0{fill:#54B136;}
	.st1{opacity:0.96;}
	.st2{clip-path:url(#SVGID_2_);fill:#BCDA8F;}
	.st3{fill:#70BA31;}
	.st4{fill:#85C141;}
	.st5{fill:#EB5E32;}
	.st6{opacity:0.71;}
	.st7{clip-path:url(#SVGID_4_);fill:#85C141;}
	.st8{opacity:0.5;}
	.st9{clip-path:url(#SVGID_6_);fill:#85C141;}
	.st10{fill:#FFFFFF;}
	.st11{fill:#543E1C;}
</style>
<g>
	<g>
		<path class="st0" d="M35.6,73.1c-5.3,5.6-10.1,11.7-14.1,18.2c-1.2,1.8,0.5,4.2,2.6,3.9c21.5-2.9,40.7,9.8,52.7,22.5
			c38.3,41,78,52.3,125.4,39.4c16.2-4.4,29.4-12.3,42.8-22.8c-0.3-2-0.8-3.9-1.2-5.9C227.2,60,156,19.3,88.7,40
			C67.7,46.5,49.7,58.1,35.6,73.1"/>
		<g class="st1">
			<g>
				<g>
					<defs>
						<rect id="SVGID_1_" x="21.6" y="88.3" width="215.1" height="75.1"/>
					</defs>
					<clipPath id="SVGID_2_">
						<use xlink:href="#SVGID_1_"  style="overflow:visible;"/>
					</clipPath>
					<path class="st2" d="M21.6,93.8c0-0.2,0.2-0.5,0.3-0.5l13.8-4.2c0.5-0.2,1.7-0.3,3.6-0.6c4.8-0.6,30.5-0.2,46.1,12.3
						c17.1,13.8,31.8,24.2,52.7,35c17.7,9,75.4,5.1,92.8,3.6c1.4-0.2,6.6,0.2,5.6,1.1c-2,1.7-7.8,5.3-11.6,7.2
						c-15.9,8.7-46.7,20.1-77.5,14.1c-44.9-8.7-68.2-40.6-68.5-40.9l0,0c-0.3-0.3-17.9-19.7-36.2-24.6c-2.6-0.8-5.1-1.1-7.7-1.1
						c0,0-8.9,0-9,0C26,95.2,21.7,96.1,21.6,93.8"/>
				</g>
			</g>
		</g>
		<path class="st0" d="M71.3,266.1c28.4,13.8,62.2,16.5,94.2,5.3c60.4-21.3,93.6-85.3,77.7-146.1l-8.1,6c2-1.7,20,92.4-76.2,126.5
			C71.8,288.5,24,212.8,10.6,198.4c-0.3-0.3-0.8,0-0.6,0.3C21.6,228.8,44.3,253,71.3,266.1z"/>
		<path class="st3" d="M162.8,62.1c-0.3,0-0.5,0.5-0.2,0.6"/>
		<path class="st4" d="M243.1,126.6c0,0,46-61.7,46.9-106.9C290.1,19.6,223.5,49.5,243.1,126.6"/>
		<path class="st5" d="M104.5,253.3c7.2-11.1,9.8-25.2,5.4-38.9c-7.5-24.2-33.3-37.7-57.5-30c-9.6,3-17.4,8.9-23.1,16.4
			C44,220.3,69.2,246,104.5,253.3"/>
		<path class="st5" d="M124.9,255.7c5.6,1.7,10.4,1.7,11,0c0.5-1.7-3.6-4.2-9.2-5.9c-5.6-1.7-10.4-1.7-11,0
			C115.3,251.5,119.4,254.1,124.9,255.7"/>
		<path class="st5" d="M130.8,238.9c5.7,0.6,10.5-0.5,10.7-2.1s-4.4-3.5-10.2-4.1c-5.7-0.6-10.5,0.5-10.7,2.1
			C120.4,236.5,124.9,238.3,130.8,238.9"/>
		<path class="st5" d="M130.8,220.3c5.7-0.6,10.2-2.4,10.1-4.1c-0.2-1.7-5-2.6-10.7-2s-10.2,2.4-10.1,4.1
			C120.1,220.1,124.9,221,130.8,220.3"/>
		<path class="st5" d="M126.1,201.7c5.1-2.7,8.6-6.2,7.7-7.7c-0.8-1.5-5.6-0.5-10.7,2.4c-5.1,2.7-8.6,6.2-7.7,7.7
			C116.4,205.6,121,204.5,126.1,201.7"/>
		<path class="st5" d="M115.2,184.4c3.9-4.2,6.2-8.6,4.8-9.8c-1.2-1.2-5.4,1.4-9.3,5.7c-3.9,4.2-6.2,8.6-4.8,9.8
			C107.1,191.1,111.3,188.7,115.2,184.4"/>
		<path class="st5" d="M99.4,171.8c2.3-5.3,2.9-10.2,1.4-10.8s-4.7,3.2-6.9,8.4s-2.9,10.2-1.4,10.8C94,180.9,97,177.2,99.4,171.8"/>
		<path class="st5" d="M80.3,164.3c0.6-5.7-0.3-10.5-2-10.7c-1.7-0.2-3.5,4.4-4.1,10.1s0.3,10.5,2,10.7
			C77.9,174.5,79.7,170,80.3,164.3"/>
		<path class="st5" d="M60,163.2c-1.4-5.6-3.9-9.9-5.4-9.5c-1.7,0.5-1.8,5.3-0.5,11c1.4,5.6,3.9,9.9,5.4,9.5
			C61.2,173.7,61.4,168.8,60,163.2"/>
		<path class="st5" d="M41.1,168.3c-2.9-5.1-6.2-8.6-7.7-7.7c-1.5,0.8-0.5,5.6,2.4,10.7c2.9,5.1,6.2,8.6,7.7,7.7
			C45,178.1,44,173.3,41.1,168.3"/>
		<path class="st5" d="M24.3,178.8c-3.9-4.4-8-6.9-9.3-5.7c-1.2,1.1,0.9,5.6,4.8,9.8c3.9,4.4,8,6.9,9.3,5.7
			C30.3,187.5,28.2,183.2,24.3,178.8"/>
		<g class="st6">
			<g>
				<g>
					<defs>
						<rect id="SVGID_3_" x="21.3" y="83.6" width="215.8" height="73.6"/>
					</defs>
					<clipPath id="SVGID_4_">
						<use xlink:href="#SVGID_3_"  style="overflow:visible;"/>
					</clipPath>
					<path class="st7" d="M22.5,94.9c-0.2,0-1.1-0.8-1.2-1.4s0.8-1.4,1.2-1.8c1.2-1.2,3-3.2,3.2-3.3L39,84.2
						c0.5-0.2,1.7-0.3,3.6-0.6c4.8-0.6,30.5-0.2,46.1,12.3c17.1,13.8,29.6,27.6,50.6,38.3c18,9.3,77.7,6.8,94.2,3.9
						c1.5-0.3,5.6,1.4,2.7,2c-13.2,2.4-47.6,22.8-85,15.2c-45.1-9.2-68.8-39.4-68.8-39.4s-20.1-23-39.5-25.5c-2.4-0.3-5,0-7.2,0.9
						C31.1,93.2,23.4,95.6,22.5,94.9"/>
				</g>
			</g>
		</g>
		<g class="st8">
			<g>
				<g>
					<defs>
						<rect id="SVGID_5_" x="21" y="76.2" width="216.1" height="73.3"/>
					</defs>
					<clipPath id="SVGID_6_">
						<use xlink:href="#SVGID_5_"  style="overflow:visible;"/>
					</clipPath>
					<path class="st9" d="M21.1,92c0-0.2,3.9-6.9,9.9-10.7c0.3-0.2,0.5-0.3,0.8-0.3l13.4-4.2c0.5-0.2,1.7-0.3,3.6-0.6
						c4.8-0.6,30.5-0.2,46.1,12.3c17.1,13.8,29.6,27.6,50.6,38.3c14.7,7.5,59.5,6,84.3,8.6c4.1,0.5,10.5,4.4,6.2,3.9
						c-17.4-1.7-50,14.4-78.6,8.6c-43.3-8.9-66.8-36.8-68.8-39.2c-0.2-0.2-0.2-0.2-0.3-0.3c-2.1-2-23.6-21.2-43-20.6
						c-0.2,0-0.3,0-0.5,0L37.1,89l-3.6,0.6c-7.5,1.1-11.1,4.4-12,3.6C21,93.4,21,92.6,21.1,92"/>
				</g>
			</g>
		</g>
		<path class="st10" d="M97.9,220.9c0,3.5-2.7,6.2-6.2,6.2c-3.5,0-6.2-2.7-6.2-6.2c0-3.5,2.7-6.2,6.2-6.2
			C95.2,214.7,97.9,217.4,97.9,220.9"/>
		<path class="st10" d="M71,201.7c0,3.5-2.7,6.2-6.2,6.2c-3.5,0-6.2-2.7-6.2-6.2c0-3.5,2.7-6.2,6.2-6.2
			C68.3,195.5,71,198.4,71,201.7"/>
		<path class="st11" d="M52.7,317.8l1.2,0.2c-0.5,1.7-2.1,5.9-3.2,7.8c-1.4-0.3-1.5-0.5-1.8-0.6c0.8-1.4,1.5-3.3,2.1-5.3h-4.2v12.8
			c0,2.6-1.1,2.7-6.3,2.7c-0.2-0.6-0.5-1.5-0.8-2.1c1.2,0,2.4,0.2,3.2,0.2c1.5,0,1.7,0,1.7-0.6V320H39v0.8h-6v3.6h6v2h-6v4.7
			l6.8-0.9v1.8c-5.4,0.9-11.3,1.8-14.7,2.4c0,0.3-0.3,0.5-0.5,0.5l-0.6-2.6c2-0.2,4.4-0.6,7.1-0.9v-5h-5.9v-2h5.9v-3.6h-5.9v-13.4
			H39v10.4h9.2c-1.8-1.7-4.5-3.8-7.1-5.1l1.4-1.4c1.2,0.6,2.4,1.4,3.6,2.1c1.4-1.1,2.7-2.7,3.8-4.1h-9.9v-2h11.6l0.5-0.2l1.7,1.1
			c-0.2,0.2-0.3,0.2-0.5,0.3c-1.4,2-3.5,4.4-5.6,6c1.1,0.9,2,1.7,2.7,2.4l-0.8,0.9h2.7L52.7,317.8z M26.9,313.1h4.2v-3.9h-4.2V313.1
			z M26.9,318.8h4.2v-3.9h-4.2V318.8z M37.1,309.2h-4.2v3.9h4.2V309.2z M37.1,314.8h-4.2v3.9h4.2V314.8z"/>
		<path class="st11" d="M75.2,332.9H59.7v1.5h-2v-6.8l2.6,0.2c0,0.2-0.2,0.3-0.6,0.5v2.9h5.7v-4.2l2.7,0.2c0,0.2-0.2,0.5-0.6,0.5
			v3.6h5.7v-3.6l2.7,0.2c0,0.2-0.2,0.3-0.6,0.5v4.8H75.2z M84.8,322.6H62.3v2.4H82h0.5l1.2,0.3c0,0.2,0,0.5-0.2,0.6
			c-0.5,5.7-0.9,8-1.8,8.7c-0.6,0.6-1.4,0.8-3.2,0.8c-0.9,0-2,0-3-0.2c0-0.6-0.3-1.4-0.6-2c1.7,0.2,3.3,0.2,3.8,0.2
			c0.6,0,0.9,0,1.2-0.3c0.6-0.6,0.9-2.3,1.4-6.6H60.3v-18.3h7.5c0.5-0.9,0.9-2,1.2-2.7l2.7,0.6c0,0.2-0.3,0.3-0.6,0.3
			c-0.3,0.5-0.6,1.2-1.1,1.8h10.1v10.1H62.4v2.4H85v2H84.8z M77.9,310.1H62.4v2.6h15.5V310.1z M62.4,316.9h15.5v-2.7H62.4V316.9z"/>
		<path class="st11" d="M94.6,322.9v-4.2c-1.7,1.7-3.9,3.3-5.7,4.2c-0.3-0.5-0.9-1.1-1.2-1.5c2.1-0.9,4.5-2.6,6.2-4.2h-4.5v-5.9h5.4
			v-1.8h-6.5v-1.7h6.5v-2.3l2.6,0.2c0,0.2-0.2,0.5-0.6,0.5v1.7h6.6v1.7h-6.6v1.8h5.6v5.9h-5.6v0.2c1.2,0.6,4.8,2.4,5.9,2.9l-1.1,1.4
			c-0.9-0.6-3.2-2-4.8-2.9v3.9h-2.1V322.9z M103.3,329.9v2.9H117v1.8H87.8v-1.8h5.4v-5.7l2.7,0.2c0,0.2-0.2,0.5-0.6,0.5v5.1h6v-7.2
			H90.1v-1.8H115v1.8h-11.6v2.7h9.5v1.7H103.3z M91,315.8h3.6V313H91V315.8z M100.1,312.8h-3.8v2.9h3.8V312.8z M117,311.6h-2.1
			c-0.8,2.6-1.8,4.7-3.5,6.5c1.5,1.4,3.6,2.6,5.9,3.3c-0.5,0.5-1.1,1.2-1.2,1.7c-2.4-0.9-4.4-2.1-6-3.6c-1.8,1.7-4.2,2.9-6.9,3.8
			c-0.3-0.5-0.8-1.2-1.2-1.5c2.7-0.8,5-2,6.8-3.6c-1.2-1.5-2.3-3-3-4.5c-0.8,1.1-1.5,2.1-2.3,3c-0.3-0.5-0.9-1.1-1.4-1.4
			c2-2.1,3.8-5.7,4.8-9.3l2.4,0.6c0,0.2-0.3,0.3-0.6,0.3c-0.3,1.1-0.8,2.1-1.2,3h9.3v1.8H117z M106.8,311.6c0.8,1.7,1.8,3.5,3.3,5.1
			c1.2-1.5,2.1-3.2,2.7-5.1H106.8z"/>
		<path class="st11" d="M137.1,320.5h-3.5v14.9h-2.1v-14.9h-6.5c-0.2,5.4-1.1,10.7-4.7,15c-0.3-0.5-1.1-1.2-1.5-1.5
			c3.3-3.9,4.1-8.7,4.2-13.5h-3.8v-2h3.8v-8.7h-3.3v-2h16.8v2h-3v8.7h3.5V320.5z M125.2,318.4h6.3v-8.7h-6.3V318.4z M149.7,325.6
			c-0.2,0.2-0.3,0.3-0.6,0.3c-2.6,3.8-7.1,7.4-11.7,9.6c-0.5-0.5-1.1-1.2-1.5-1.7c4.5-2,9-5.4,11.4-9L149.7,325.6z M147.6,307.3
			c-0.2,0.2-0.3,0.3-0.6,0.3c-2,2.6-5.4,5.4-8.4,7.4c-0.5-0.5-1.1-1.1-1.7-1.5c2.9-1.7,6.3-4.4,8.1-6.9L147.6,307.3z M148.8,316.3
			c-0.2,0.2-0.3,0.3-0.6,0.3c-2.3,2.7-6.2,5.9-9.6,7.8c-0.3-0.5-1.1-1.1-1.5-1.5c3.3-1.7,7.2-4.7,9.3-7.5L148.8,316.3z"/>
		<path class="st11" d="M174,306.1c0,0.2-0.2,0.5-0.6,0.5v14.1c2.3,2.1,5,3.9,7.5,5.1c-0.5,0.5-1.2,1.2-1.5,1.8
			c-2-1.1-4.1-2.4-6-4.2v11.9h-2.3v-14c-2-2.1-3.8-4.4-5.1-6.6c-2,10.2-6.3,17-12,20.6c-0.3-0.5-1.2-1.2-1.7-1.5
			c3.3-2.1,6.3-5.1,8.4-9.3c-1.4-1.4-3.6-2.9-5.4-4.1l1.2-1.5c1.8,0.9,3.8,2.3,5.3,3.6c1.2-2.7,2.1-6,2.6-9.6h-6.8
			c-1.2,3.6-2.9,6.6-5,8.9c-0.3-0.5-1.1-1.1-1.5-1.5c2.9-3.2,5-8.7,6.2-14.6l2.7,0.6c0,0.2-0.3,0.3-0.6,0.3
			c-0.3,1.4-0.6,2.7-1.1,4.1h6.8l0.5-0.2l1.4,0.6c0,0.2-0.2,0.3-0.3,0.5l-0.3,1.8l1.1-0.5c1.1,1.8,2.4,3.6,3.9,5.3v-12.2L174,306.1z
			"/>
		<path class="st11" d="M191,319.1c1.1,0.9,4.1,4.2,4.7,5l-1.2,1.7c-0.6-1.1-2.3-3-3.5-4.5v14.1h-2.1v-14.9c-1.4,3.5-3.2,7.1-5,9.2
			c-0.3-0.6-0.8-1.5-1.1-2c2.1-2.3,4.4-6.6,5.7-10.4h-5.3v-2.1h5.6v-5.6c-1.7,0.5-3.5,0.9-5.1,1.2c-0.2-0.5-0.5-1.1-0.6-1.5
			c3.9-0.9,8.4-2.1,10.8-3.5l2,1.7c-0.2,0.2-0.2,0.2-0.6,0.2c-1.2,0.6-2.7,1.1-4.4,1.5v6.2h4.7v2.1H191L191,319.1L191,319.1z
			 M212.8,325.7l-5,0.9v8.7h-2.1v-8.4l-10.2,1.8l-0.3-2l10.7-1.8v-19.1l2.9,0.2c0,0.2-0.2,0.5-0.6,0.5v18l4.5-0.8L212.8,325.7z
			 M197.8,316.6c2.3,1.2,4.8,3.2,6.2,4.7l-1.5,1.5c-1.2-1.5-3.9-3.5-6-4.8L197.8,316.6z M199,308.2c2,1.2,4.4,3.2,5.6,4.5l-1.7,1.4
			c-1.1-1.4-3.5-3.3-5.4-4.7L199,308.2z"/>
		<path class="st11" d="M242.5,311.3v21.2c0,1.5-0.3,2.3-1.5,2.6c-1.1,0.3-3,0.5-6,0.5c-0.2-0.6-0.5-1.7-0.8-2.3c1.2,0,2.3,0,3.3,0
			c2.7,0,2.7,0,2.7-0.9v-18.9h-9.9c0,1.4-0.2,2.7-0.6,4.1c3.3,2.9,7.4,6.8,9.3,9.2l-1.8,1.4c-1.8-2.3-5.1-5.7-8.1-8.6
			c-1.2,3.2-3.6,6.5-8.1,9c-0.3-0.5-1.1-1.2-1.5-1.7c7.2-3.9,8.4-9.3,8.7-13.5h-9.5v21.9h-2.1v-24h11.6v-5.6l2.9,0.2
			c0,0.2-0.2,0.5-0.6,0.5v5h12V311.3z"/>
		<path class="st11" d="M254.7,319.1c1.1,0.9,4.1,4.2,4.7,5l-1.2,1.7c-0.6-1.1-2.3-3-3.5-4.5v14.1h-2.1v-14.9
			c-1.4,3.5-3.2,7.1-5,9.2c-0.3-0.6-0.8-1.5-1.1-2c2.1-2.3,4.4-6.6,5.7-10.4H247v-2.1h5.6v-5.6c-1.7,0.5-3.5,0.9-5.1,1.2
			c-0.2-0.5-0.5-1.1-0.6-1.5c3.9-0.9,8.4-2.1,10.8-3.5l2,1.7c-0.2,0.2-0.2,0.2-0.6,0.2c-1.2,0.6-2.7,1.1-4.4,1.5v6.2h4.7v2.1h-4.7
			L254.7,319.1L254.7,319.1z M276.5,325.7l-5,0.9v8.7h-2.1v-8.4l-10.2,1.8l-0.3-2l10.7-1.8v-19.1l2.9,0.2c0,0.2-0.2,0.5-0.6,0.5v18
			l4.5-0.8L276.5,325.7z M261.5,316.6c2.3,1.2,4.8,3.2,6.2,4.7l-1.5,1.5c-1.2-1.5-3.9-3.5-6-4.8L261.5,316.6z M262.5,308.2
			c2,1.2,4.4,3.2,5.6,4.5l-1.7,1.4c-1.1-1.4-3.5-3.3-5.4-4.7L262.5,308.2z"/>
	</g>
</g>
</svg>
