<?xml version="1.0" encoding="utf-8"?>
<!-- Generator: Adobe Illustrator 22.1.0, SVG Export Plug-In . SVG Version: 6.00 Build 0)  -->
<svg version="1.1" id="Layer_1" xmlns="http://www.w3.org/2000/svg" xmlns:xlink="http://www.w3.org/1999/xlink" x="0px" y="0px"
	 viewBox="0 0 300 432" style="enable-background:new 0 0 300 432;" xml:space="preserve">
<style type="text/css">
	.st0{fill:none;stroke:#000000;stroke-width:0.5218;stroke-miterlimit:10;}
	.st1{fill:none;stroke:#000000;stroke-width:1.2811;stroke-miterlimit:10;}
	.st2{fill:none;stroke:#000000;stroke-width:1.2811;stroke-linejoin:round;stroke-miterlimit:10;}
	.st3{fill:#FFFFFF;}
	.st4{fill:none;stroke:#000000;stroke-width:1.3805;stroke-miterlimit:10;}
	.st5{fill:none;stroke:#000000;stroke-width:1.5807;stroke-miterlimit:10;}
	.st6{fill:none;stroke:#000000;stroke-width:1.0119;stroke-miterlimit:10;}
	.st7{fill:none;stroke:#000000;stroke-width:1.5848;stroke-miterlimit:10;}
</style>
<g>
	<g>
		<path class="st0" d="M184.2,176.2c1.2-13.5-10.3-15.3-9.2-35.1c1-10.7-0.2-7.3,6.4-34.3c0,0-4.2,17.3-4.2,26.4s3.8,18.4,5.2,22.4
			c1.4,4.2,4.5,9.8,4.1,16.6c-0.1,1.3-0.3,2.8-0.6,4.3"/>
		<path class="st0" d="M181.6,191.8c-0.3,1.2-0.6,2.4-0.8,3.5c-1.4,6.8-2.8,11.6-2.8,11.6c-0.9-6.8,0.4-10.5,2.2-15"/>
		<path class="st0" d="M151.6,176.6c-0.1-1.6-0.1-3.3,0-5.2c1-10.7-0.2-7.3,6.4-34.3c0,0-4.2,17.3-4.2,26.4c0,4.5,0.9,9.1,2.1,13"/>
		<path class="st0" d="M161.2,191.8c1.1,3.1,2.1,6.7,1.9,10.7c-0.3,6.8-4.5,16.2-5.8,23.1c-1.4,6.8-2.8,11.6-2.8,11.6
			c-1.6-12.3,4.1-14.6,6.2-29.4c1-7.3-1.5-11.3-4.1-15.9"/>
		<polygon class="st1" points="212.6,122.3 31.2,122.3 90.7,176 271.9,176 		"/>
		<polygon class="st2" points="215.2,115 290.8,183.3 87.9,183.3 12.2,115 		"/>
		<polyline class="st2" points="290.8,183.7 290.8,192.2 87.9,191.8 87.9,183.3 87.9,191.8 12.2,123.6 12.2,115.2 		"/>
		<path d="M113.7,12.4c0,0-16.2,0.1-8.3,25.1c7.9,25,20,16.8,20,16.8s1.2-0.5,2.3-1.3c1.4,0,2.6-0.4,2.6-0.4s14.5-1,5.5-25.5
			C126.6,2.6,113.7,12.4,113.7,12.4 M125.4,47.6l-2.1-4.7l-2.6-7.8l-5.7-15C130.2,50.5,125.4,47.6,125.4,47.6"/>
		<path class="st3" d="M123.2,42.8l2.1,4.7c0,0,4.8,2.9-10.5-27.5l5.7,15L123.2,42.8z"/>
		<path d="M193.2,53.3c0,0-10.1-11.9-23.7,9.4c-13.6,21.3-0.1,25.2-0.1,25.2s1.1,0.6,2.4,0.9c0.8,1,1.9,1.7,1.9,1.7
			s9.7,10.1,22.3-11.8C208.5,56.7,193.2,53.3,193.2,53.3 M174.5,83.6l2.1-4.5l4.2-6.8l7.5-13.5C175.3,89,174.5,83.6,174.5,83.6"/>
		<path class="st3" d="M176.6,79.1l-2.1,4.5c0,0,0.8,5.4,13.8-24.8l-7.5,13.5L176.6,79.1z"/>
		<path d="M103.2,96.3c0.1,0,0.1,0,0.1-0.1c0.9-1.2,12.8-16.5,31.9,10.5c19.8,28.1,1.7,34.2,1.7,34.2s-1.8,1.1-3.4,1.2
			c-1.1,1.4-2.2,2.6-2.2,2.6s-12.6,14.4-31-14.6C82.6,102.1,101.7,96.7,103.2,96.3 M129.8,135.5l-3.2-6l-6.1-9l-11.1-17.9
			C129,142.9,129.8,135.5,129.8,135.5"/>
		<path class="st3" d="M126.6,129.5l3.2,6c0,0-0.8,7.4-20.3-32.9l11.1,17.9L126.6,129.5z"/>
		<path d="M116.9,260.9c0-6,20.7-10.9,46.2-10.9s46.2,4.9,46.2,10.9c0,6-20.7,10.9-46.2,10.9S116.9,267,116.9,260.9"/>
		<ellipse class="st4" cx="163.1" cy="260.9" rx="46.2" ry="10.9"/>
		<ellipse class="st4" cx="163.1" cy="260.9" rx="65.3" ry="20.4"/>
		<path class="st4" d="M228.5,260.9v29.7c0,31.1-25.5,56.6-56.6,56.6h-17.5c-31.1,0-56.6-25.5-56.6-56.6v-29.7"/>
		<path class="st5" d="M229.1,280.9h5.3c7.3,0,13.3,6,13.3,13.3v2.6c0,7.3-6,13.3-13.3,13.3h-8"/>
		<path class="st5" d="M229.1,273.7h5.5c10.9,0,19.9,8.9,19.9,19.9v3.9c0,10.9-8.9,19.9-19.9,19.9h-10.9"/>
		<path class="st6" d="M213.3,332.7c9.8,2.4,15.7,5.6,15.7,9.1c0,7.7-28.9,13.9-64.6,13.9s-64.6-6.2-64.6-13.9
			c0-3.2,5.2-6.2,13.8-8.6"/>
		<path class="st7" d="M217.3,324.3c22.6,4.4,37.3,11.5,37.3,19.4c0,13.3-40.9,24.1-91.4,24.1s-91.4-10.8-91.4-24.1
			c0-8,14.7-15.1,37.3-19.4"/>
	</g>
	<g>
		<g>
			<path d="M37,418.2l1-1.4c1.1,0.9,2.2,1.5,3.6,1.5c1.6,0,2.4-0.9,2.4-1.9c0-1.3-1.5-1.8-2.8-2.3c-1.7-0.6-3.7-1.5-3.7-3.6
				c0-2,1.6-3.5,4.3-3.5c1.5,0,2.9,0.6,3.8,1.4l-1,1.3c-0.8-0.6-1.7-1.1-2.8-1.1c-1.6,0-2.3,0.8-2.3,1.8c0,1.2,1.3,1.6,2.7,2.1
				c1.8,0.7,3.8,1.4,3.8,3.7c0,2-1.6,3.7-4.5,3.7C39.9,419.9,38.2,419.2,37,418.2z"/>
			<path d="M52.2,413.5c0-4.1,2.7-6.5,5.7-6.5s5.7,2.4,5.7,6.5c0,4.1-2.7,6.5-5.7,6.5S52.2,417.6,52.2,413.5z M61.4,413.5
				c0-2.8-1.4-4.8-3.6-4.8s-3.6,1.9-3.6,4.8s1.4,4.7,3.6,4.7S61.4,416.3,61.4,413.5z"/>
			<path d="M70.9,407.3h1.7l0.2,2.2h0.1c0.9-1.6,2.1-2.6,3.5-2.6c0.5,0,0.9,0.1,1.3,0.3l-0.4,1.8c-0.4-0.1-0.7-0.2-1.2-0.2
				c-1,0-2.3,0.8-3.1,2.8v7.9h-2.1V407.3z"/>
			<path d="M83,416.4c0-2.7,2.3-4,7.6-4.6c0-1.6-0.5-3.1-2.5-3.1c-1.4,0-2.7,0.7-3.7,1.3l-0.8-1.4c1.1-0.7,2.9-1.6,4.8-1.6
				c3,0,4.3,2,4.3,5.1v7.6H91l-0.2-1.5h-0.1c-1.2,1-2.6,1.8-4.1,1.8C84.6,419.9,83,418.6,83,416.4z M90.6,416.6v-3.4
				c-4.1,0.5-5.5,1.5-5.5,3.1c0,1.4,1,2,2.2,2C88.4,418.2,89.4,417.7,90.6,416.6z"/>
			<path d="M100.6,407.3h1.7l0.2,1.8h0.1c1.1-1.2,2.4-2.1,3.8-2.1c1.9,0,2.9,0.9,3.4,2.4c1.3-1.4,2.6-2.4,4.1-2.4
				c2.5,0,3.8,1.7,3.8,4.8v7.8h-2.1v-7.6c0-2.3-0.7-3.3-2.3-3.3c-1,0-2,0.6-3.1,1.9v8.9h-2.1v-7.6c0-2.3-0.7-3.3-2.3-3.3
				c-0.9,0-2,0.6-3.1,1.9v8.9h-2.1V407.3z"/>
			<path d="M125,416.4c0-2.7,2.3-4,7.6-4.6c0-1.6-0.5-3.1-2.5-3.1c-1.4,0-2.7,0.7-3.7,1.3l-0.8-1.4c1.1-0.7,2.9-1.6,4.8-1.6
				c3,0,4.3,2,4.3,5.1v7.6h-1.7l-0.2-1.5h-0.1c-1.2,1-2.6,1.8-4.1,1.8C126.5,419.9,125,418.6,125,416.4z M132.6,416.6v-3.4
				c-4.1,0.5-5.5,1.5-5.5,3.1c0,1.4,1,2,2.2,2C130.4,418.2,131.4,417.7,132.6,416.6z"/>
			<path d="M141.7,413.5c0-4,2.5-6.5,5.3-6.5c1.4,0,2.4,0.5,3.5,1.4l-0.1-2.1v-4.8h2.1v18.1h-1.7l-0.2-1.5h-0.1
				c-1,1-2.3,1.8-3.7,1.8C143.7,419.9,141.7,417.6,141.7,413.5z M150.4,416.5V410c-1.1-0.9-2-1.3-3-1.3c-2,0-3.5,1.9-3.5,4.7
				c0,3,1.2,4.7,3.4,4.7C148.4,418.2,149.4,417.6,150.4,416.5z"/>
			<path d="M159.8,413.5c0-4.1,2.7-6.5,5.7-6.5s5.7,2.4,5.7,6.5c0,4.1-2.7,6.5-5.7,6.5S159.8,417.6,159.8,413.5z M169.1,413.5
				c0-2.8-1.4-4.8-3.6-4.8s-3.6,1.9-3.6,4.8s1.4,4.7,3.6,4.7S169.1,416.3,169.1,413.5z"/>
			<path d="M186.8,413.5c0-4.1,2.8-6.5,5.9-6.5c1.6,0,2.7,0.7,3.6,1.4l-1.1,1.4c-0.7-0.6-1.5-1.1-2.4-1.1c-2.2,0-3.9,1.9-3.9,4.8
				s1.5,4.7,3.8,4.7c1.1,0,2.1-0.5,2.9-1.2l0.9,1.4c-1.1,1-2.5,1.6-4,1.6C189.3,419.9,186.8,417.6,186.8,413.5z"/>
			<path d="M202.4,413.5c0-4.1,2.7-6.5,5.7-6.5s5.7,2.4,5.7,6.5c0,4.1-2.7,6.5-5.7,6.5S202.4,417.6,202.4,413.5z M211.7,413.5
				c0-2.8-1.4-4.8-3.6-4.8s-3.6,1.9-3.6,4.8s1.4,4.7,3.6,4.7S211.7,416.3,211.7,413.5z"/>
			<path d="M219.9,407.4l1.8-0.1h4.6v1.7h-6.4V407.4z M221.5,405.3c0-2.5,1.1-4.1,3.6-4.1c0.8,0,1.5,0.2,2,0.4l-0.4,1.6
				c-0.5-0.2-1-0.3-1.4-0.3c-1.2,0-1.7,0.8-1.7,2.4v14.3h-2.1V405.3z"/>
			<path d="M232.3,407.4l1.8-0.1h4.6v1.7h-6.4V407.4z M234,405.3c0-2.5,1.1-4.1,3.6-4.1c0.8,0,1.5,0.2,2,0.4l-0.4,1.6
				c-0.5-0.2-1-0.3-1.4-0.3c-1.2,0-1.7,0.8-1.7,2.4v14.3H234V405.3z"/>
			<path d="M245.2,413.5c0-4,2.7-6.5,5.5-6.5c3.1,0,4.9,2.3,4.9,5.8c0,0.4,0,0.9-0.1,1.2h-8.3c0.1,2.6,1.7,4.3,4.1,4.3
				c1.2,0,2.2-0.4,3.1-1l0.7,1.4c-1.1,0.7-2.4,1.3-4.1,1.3C247.9,419.9,245.2,417.5,245.2,413.5z M253.9,412.5c0-2.5-1.1-3.8-3-3.8
				c-1.7,0-3.3,1.4-3.5,3.8H253.9z"/>
			<path d="M262.9,413.5c0-4,2.7-6.5,5.5-6.5c3.1,0,4.9,2.3,4.9,5.8c0,0.4,0,0.9-0.1,1.2H265c0.1,2.6,1.7,4.3,4.1,4.3
				c1.2,0,2.2-0.4,3.1-1l0.7,1.4c-1.1,0.7-2.4,1.3-4.1,1.3C265.5,419.9,262.9,417.5,262.9,413.5z M271.5,412.5c0-2.5-1.1-3.8-3-3.8
				c-1.7,0-3.3,1.4-3.5,3.8H271.5z"/>
		</g>
	</g>
</g>
</svg>
